<svg xmlns="http://www.w3.org/2000/svg" width="512" height="512" viewBox="0 0 512 512"><g fill="#c6c6c6"><path d="M386.98 59.732C359.95 22.065 313.956 2.154 255.996.5c-57.953 1.654-103.95 21.565-130.98 59.232-42.22 50.858-47.356 123.536-15.534 180.055 22.84 29.202 39.918 62.3 48.87 97.42 7.183 18.424-1.397 43.313 18.414 56.372H335.234c19.813-13.06 11.232-37.95 18.422-56.374 8.938-35.12 26.026-68.217 48.862-97.42 31.823-56.518 26.687-129.195-15.54-180.054zM369.55 218.157c-25.538 33.307-43.518 69.396-53.473 107.358-3.667 10.514-4.566 20.474-5.198 28.755H201.122c-.63-8.28-1.528-18.243-5.192-28.76-9.98-37.98-27.96-74.076-53.48-107.355-22.977-43.004-17.958-96.25 12.813-133.315l.885-1.067.808-1.125c23.936-33.36 66.833-41.742 99.042-42.822 32.21 1.08 75.107 9.46 99.046 42.822l.81 1.127.884 1.064c30.77 37.065 35.788 90.312 12.814 133.317zm-182.34 195.075h137.577l-19.654 78.613h-19.653V511.5H226.52v-19.654h-19.654l-19.655-78.614z"/></g></svg>