<svg xmlns="http://www.w3.org/2000/svg" width="512" height="512" viewBox="0 0 512 512"><g fill="#2b59a2"><path d="M402.518 239.787c-22.835 29.203-39.926 62.3-48.862 97.42-7.19 18.422 1.39 43.312-18.422 56.372H176.767c-19.81-13.06-11.23-37.95-18.414-56.374-8.952-35.12-26.03-68.217-48.87-97.42C77.66 183.27 82.796 110.592 125.018 59.733 152.046 22.066 198.044 2.155 255.998.5c57.958 1.655 103.954 21.566 130.98 59.232 42.226 50.86 47.362 123.536 15.54 180.055zm-195.653 252.06h19.654V511.5h58.96v-19.653h19.654l19.654-78.614H187.212l19.653 78.614z"/></g></svg>