<svg xmlns="http://www.w3.org/2000/svg" width="585" height="122" viewBox="0 0 585 122"><g><path d="M324.435 14.96V6.37h6.21v1.014h-5.073v2.63h4.752v1.01h-4.752v2.923h5.273v1.014h-6.41zM332.28 14.96V8.737h.95v.885c.456-.684 1.116-1.025 1.98-1.025.374 0 .72.067 1.034.202s.55.31.705.53.265.478.327.778c.04.195.06.537.06 1.025v3.826h-1.056v-3.786c0-.43-.04-.75-.122-.964s-.227-.383-.436-.51-.455-.19-.736-.19c-.45 0-.836.143-1.162.428s-.49.826-.49 1.623v3.4h-1.054zM338.76 15.476l1.026.152c.043.316.162.547.357.69.262.196.62.294 1.072.294.488 0 .865-.098 1.13-.293s.446-.47.54-.82c.055-.216.08-.667.076-1.355-.46.543-1.034.814-1.722.814-.855 0-1.518-.31-1.986-.927s-.703-1.357-.703-2.22c0-.595.106-1.143.32-1.645s.528-.89.937-1.163.887-.41 1.438-.41c.734 0 1.34.297 1.816.89v-.75h.974v5.38c0 .97-.098 1.655-.295 2.06s-.51.724-.94.958-.954.352-1.58.352c-.74 0-1.34-.167-1.798-.5s-.677-.838-.66-1.51zm.874-3.74c0 .817.162 1.413.486 1.788s.73.562 1.22.562c.483 0 .89-.187 1.218-.56s.492-.958.492-1.755c0-.76-.168-1.335-.506-1.722s-.746-.58-1.223-.58c-.468 0-.866.19-1.194.57s-.492.95-.492 1.7zM345.634 7.583V6.37h1.055v1.213h-1.056zm0 7.377V8.737h1.055v6.223h-1.056zM348.294 14.96V8.737h.95v.885c.456-.684 1.116-1.025 1.98-1.025.374 0 .72.067 1.034.202s.55.31.705.53.266.478.328.778c.04.195.06.537.06 1.025v3.826h-1.055v-3.786c0-.43-.04-.75-.123-.964s-.227-.383-.436-.51-.455-.19-.736-.19c-.45 0-.836.143-1.162.428s-.49.826-.49 1.623v3.4h-1.054zM359.228 12.956l1.09.135c-.172.638-.49 1.132-.955 1.483s-1.06.527-1.78.527c-.91 0-1.632-.28-2.165-.84s-.8-1.348-.8-2.36c0-1.046.27-1.858.808-2.437s1.238-.867 2.098-.867c.832 0 1.512.283 2.04.85s.79 1.363.79 2.39c0 .063-.002.157-.006.282h-4.64c.038.684.23 1.207.58 1.57s.78.545 1.3.545c.387 0 .717-.102.99-.305s.49-.527.65-.972zm-3.463-1.705h3.475c-.047-.522-.18-.915-.398-1.177-.336-.406-.77-.61-1.307-.61-.484 0-.89.163-1.22.487s-.515.758-.55 1.3zM69.076 33.812l3.3-8.59H73.6l3.516 8.59H75.82l-1.002-2.602h-3.592l-.943 2.602h-1.207zm2.48-3.528h2.91l-.895-2.38c-.272-.722-.476-1.315-.608-1.78-.11.55-.264 1.098-.463 1.64l-.945 2.52zM84.152 30.8l1.137.287c-.24.934-.668 1.646-1.287 2.136s-1.376.735-2.27.735c-.927 0-1.68-.188-2.26-.565s-1.02-.923-1.324-1.638-.455-1.482-.455-2.303c0-.895.17-1.675.513-2.34s.828-1.173 1.46-1.52 1.324-.518 2.082-.518c.86 0 1.582.22 2.168.656s.994 1.053 1.225 1.846l-1.12.264c-.198-.625-.487-1.08-.866-1.365s-.855-.428-1.43-.428c-.66 0-1.212.158-1.655.475s-.755.74-.935 1.274-.27 1.083-.27 1.65c0 .73.106 1.367.32 1.912s.543.952.992 1.222.935.404 1.458.404c.637 0 1.176-.184 1.617-.55s.74-.912.897-1.634zM89.89 36.196V27.59h.96v.808c.227-.316.482-.554.768-.712s.63-.237 1.037-.237c.53 0 1 .136 1.406.41s.714.658.92 1.156.312 1.044.312 1.638c0 .637-.114 1.21-.343 1.72s-.562.9-.997 1.172-.894.407-1.374.407c-.353 0-.668-.074-.947-.223s-.51-.336-.688-.562v3.03H89.89zm.954-5.46c0 .8.162 1.392.486 1.774s.717.574 1.178.574c.47 0 .87-.198 1.204-.595s.5-1.012.5-1.844c0-.793-.162-1.387-.488-1.78s-.716-.593-1.17-.593c-.448 0-.846.21-1.19.63s-.52 1.032-.52 1.832zM96.17 30.7c0-1.152.32-2.006.96-2.56.536-.462 1.19-.692 1.958-.692.855 0 1.555.28 2.098.84s.814 1.336.814 2.324c0 .8-.12 1.43-.36 1.89s-.59.815-1.05 1.07-.96.38-1.502.38c-.87 0-1.575-.28-2.112-.838s-.806-1.363-.806-2.414zm1.084 0c0 .797.174 1.394.52 1.79s.786.595 1.313.595c.523 0 .96-.2 1.307-.598s.52-1.006.52-1.822c0-.77-.174-1.353-.523-1.75s-.783-.594-1.303-.594c-.527 0-.965.198-1.312.593s-.52.99-.52 1.787zM104.385 33.812l-1.904-6.223h1.09l.99 3.59.37 1.337.322-1.283.99-3.645h1.084l.932 3.608.31 1.19.358-1.202 1.066-3.598h1.025l-1.945 6.223h-1.096l-.99-3.726-.24-1.06-1.26 4.786h-1.1zM116.162 31.808l1.09.135c-.172.637-.49 1.13-.955 1.482s-1.06.527-1.78.527c-.91 0-1.633-.28-2.166-.84s-.8-1.348-.8-2.36c0-1.046.27-1.858.81-2.437s1.238-.867 2.098-.867c.832 0 1.512.283 2.04.85s.79 1.363.79 2.39c0 .063-.002.157-.006.282h-4.64c.038.684.23 1.207.58 1.57s.78.545 1.3.545c.387 0 .717-.102.99-.305s.49-.527.65-.972zm-3.463-1.705h3.474c-.047-.523-.18-.916-.398-1.178-.336-.406-.77-.61-1.307-.61-.485 0-.893.163-1.223.487s-.513.758-.548 1.3zM118.564 33.812V27.59h.95v.942c.24-.44.465-.732.67-.873s.43-.212.677-.212c.356 0 .718.113 1.085.34l-.363.98c-.258-.153-.516-.23-.773-.23-.23 0-.44.07-.622.208s-.314.33-.393.577c-.117.375-.176.785-.176 1.23v3.258h-1.056zM373.152 100.965v-8.59h6.21v1.014h-5.073v2.63h4.75v1.008h-4.75v2.924h5.272v1.014h-6.41zM381.086 100.965v-8.59h1.137v7.576h4.23v1.015h-5.367zM394.715 97.596v-1.008l3.64-.006v3.188c-.56.445-1.136.78-1.73 1.005s-1.203.337-1.828.337c-.844 0-1.61-.18-2.3-.542s-1.21-.884-1.562-1.567-.527-1.447-.527-2.29c0-.837.175-1.617.524-2.342s.853-1.262 1.51-1.613 1.41-.527 2.267-.527c.62 0 1.182.1 1.684.302s.896.48 1.18.84.503.83.65 1.407l-1.024.28c-.13-.438-.29-.78-.48-1.03s-.465-.45-.82-.602-.75-.226-1.184-.226c-.52 0-.97.08-1.348.237s-.685.365-.917.623-.412.54-.54.85c-.22.53-.33 1.107-.33 1.73 0 .765.133 1.405.397 1.92s.647.9 1.15 1.15 1.04.374 1.606.374c.492 0 .973-.095 1.44-.284s.825-.392 1.067-.606v-1.6h-2.525zM403.955 100.197c-.39.332-.767.566-1.128.703s-.75.205-1.163.205c-.684 0-1.21-.167-1.576-.5s-.55-.762-.55-1.28c0-.306.068-.584.207-.836s.32-.455.545-.607.478-.268.76-.346c.206-.055.52-.107.937-.158.852-.103 1.48-.224 1.88-.364.005-.145.007-.236.007-.275 0-.43-.1-.73-.3-.907-.27-.238-.67-.357-1.2-.357-.496 0-.862.087-1.1.26s-.41.482-.523.924l-1.03-.14c.094-.442.248-.8.463-1.07s.525-.48.932-.627.877-.22 1.412-.22c.53 0 .963.062 1.295.188s.576.283.732.473.266.43.328.718c.035.18.053.505.053.974v1.406c0 .98.022 1.6.067 1.86s.134.51.267.747h-1.103c-.11-.22-.18-.477-.212-.77zm-.088-2.355c-.383.156-.957.29-1.723.398-.434.062-.74.133-.92.21s-.318.193-.416.344-.146.317-.146.5c0 .282.106.517.32.704s.523.28.934.28c.406 0 .768-.088 1.084-.266s.55-.42.697-.73c.113-.237.17-.59.17-1.054v-.386zM408.87 100.02l.153.933c-.297.062-.562.094-.797.094-.383 0-.68-.06-.89-.182s-.36-.28-.446-.478-.13-.612-.13-1.245v-3.58h-.772v-.82h.773v-1.54l1.05-.634v2.174h1.06v.82h-1.06v3.64c0 .3.02.493.056.58s.098.153.182.204.204.076.36.076c.117 0 .272-.013.463-.04zM414.162 98.96l1.09.136c-.172.637-.49 1.13-.955 1.482s-1.06.527-1.78.527c-.91 0-1.633-.28-2.166-.84s-.8-1.348-.8-2.36c0-1.046.27-1.858.81-2.437s1.238-.867 2.098-.867c.832 0 1.512.284 2.04.85s.79 1.364.79 2.392c0 .062-.002.156-.006.28h-4.64c.038.685.23 1.208.58 1.57s.78.546 1.3.546c.387 0 .717-.102.99-.305s.49-.527.65-.972zm-3.463-1.704h3.474c-.047-.523-.18-.916-.398-1.178-.336-.406-.77-.61-1.307-.61-.485 0-.893.163-1.223.487s-.513.758-.548 1.3zM417.725 100.965l-1.904-6.223h1.09l.99 3.592.37 1.336.322-1.283.99-3.645h1.084l.932 3.61.31 1.188.358-1.2 1.066-3.6h1.025l-1.945 6.224h-1.096l-.99-3.727-.24-1.06-1.26 4.786h-1.1zM429.303 100.197c-.39.332-.767.566-1.128.703s-.75.205-1.163.205c-.684 0-1.21-.167-1.576-.5s-.55-.762-.55-1.28c0-.306.068-.584.207-.836s.32-.455.545-.607.478-.268.76-.346c.206-.055.52-.107.937-.158.852-.103 1.48-.224 1.88-.364.005-.145.007-.236.007-.275 0-.43-.1-.73-.3-.907-.27-.238-.67-.357-1.2-.357-.496 0-.862.087-1.1.26s-.41.482-.523.924l-1.032-.14c.094-.442.248-.8.463-1.07s.526-.48.933-.627.877-.22 1.412-.22c.53 0 .963.062 1.295.188s.576.283.732.473.266.43.328.718c.035.18.053.505.053.974v1.406c0 .98.022 1.6.067 1.86s.134.51.267.747h-1.102c-.11-.22-.18-.477-.212-.77zm-.088-2.355c-.383.156-.957.29-1.723.398-.434.062-.74.133-.92.21s-.318.193-.416.344-.146.317-.146.5c0 .282.106.517.32.704s.523.28.934.28c.406 0 .768-.088 1.084-.266s.55-.42.697-.73c.113-.237.17-.59.17-1.054v-.386zM431.87 103.36l-.118-.99c.23.063.432.095.604.095.234 0 .422-.04.562-.117s.256-.188.346-.328c.066-.105.174-.367.322-.785.02-.06.05-.145.094-.258l-2.36-6.234h1.136l1.295 3.604c.17.457.32.938.452 1.44.12-.483.266-.956.434-1.417l1.33-3.627h1.055l-2.366 6.328c-.254.685-.45 1.155-.592 1.413-.188.348-.402.603-.645.765s-.53.243-.867.243c-.204 0-.43-.043-.68-.13zM427.892 12.284l1.072-.094c.05.43.17.782.354 1.058s.474.498.864.668.83.255 1.318.255c.434 0 .816-.063 1.148-.192s.58-.306.74-.53.244-.47.244-.735c0-.27-.078-.505-.234-.706s-.414-.37-.773-.507c-.23-.09-.74-.23-1.53-.42s-1.34-.367-1.657-.535c-.41-.215-.716-.48-.917-.8s-.3-.675-.3-1.07c0-.433.122-.838.368-1.215s.605-.663 1.078-.858.998-.293 1.576-.293c.637 0 1.198.102 1.685.307s.86.507 1.122.905.4.85.42 1.354l-1.09.082c-.058-.543-.256-.953-.594-1.23s-.836-.418-1.496-.418c-.688 0-1.188.126-1.503.378s-.472.556-.472.91c0 .31.11.563.334.763.218.2.79.404 1.713.613s1.558.392 1.9.548c.5.23.87.523 1.108.877s.358.76.358 1.222c0 .456-.13.887-.393 1.29s-.638.72-1.128.944-1.042.337-1.655.337c-.777 0-1.43-.112-1.954-.34s-.938-.566-1.236-1.02-.455-.972-.47-1.546zM440.707 13.04l1.09.135c-.172.637-.49 1.13-.955 1.482s-1.06.527-1.78.527c-.91 0-1.633-.28-2.166-.84s-.8-1.348-.8-2.36c0-1.046.27-1.858.81-2.437s1.237-.867 2.097-.867c.832 0 1.512.283 2.04.85s.79 1.363.79 2.39c0 .063-.002.157-.006.282h-4.64c.038.684.23 1.207.58 1.57s.78.545 1.3.545c.387 0 .717-.102.99-.305s.49-.527.65-.972zm-3.463-1.705h3.475c-.048-.523-.18-.916-.4-1.178-.335-.406-.77-.61-1.306-.61-.484 0-.892.163-1.222.487s-.513.758-.548 1.3zM443.42 15.044V8.82h.95v.886c.457-.684 1.117-1.025 1.98-1.025.375 0 .72.068 1.034.203s.55.312.706.53.266.48.328.78c.04.194.06.536.06 1.024v3.826h-1.056v-3.785c0-.43-.04-.75-.123-.964s-.23-.383-.438-.51-.454-.19-.735-.19c-.45 0-.837.143-1.163.428s-.49.826-.49 1.623v3.398h-1.053zM449.974 13.187l1.043-.164c.06.418.222.738.49.96s.64.335 1.12.335c.485 0 .845-.1 1.08-.296s.35-.43.35-.694c0-.238-.103-.426-.31-.562-.145-.094-.504-.213-1.078-.357-.774-.196-1.31-.365-1.61-.508s-.524-.34-.68-.592-.23-.53-.23-.835c0-.277.063-.534.19-.77s.3-.434.52-.59c.163-.12.387-.224.67-.308s.587-.126.91-.126c.49 0 .918.07 1.287.212s.642.33.817.57.297.563.363.965l-1.03.14c-.048-.32-.184-.57-.408-.75s-.543-.27-.953-.27c-.484 0-.83.08-1.037.24s-.31.35-.31.563c0 .137.042.26.128.37.086.112.22.206.404.28.105.04.416.13.932.27.746.2 1.267.362 1.562.49s.526.31.694.553.252.543.252.902c0 .352-.103.683-.308.993s-.5.55-.888.72-.824.256-1.312.256c-.81 0-1.425-.168-1.85-.504s-.693-.833-.81-1.493zM456.303 11.933c0-1.152.32-2.006.96-2.56.536-.462 1.19-.692 1.958-.692.856 0 1.556.28 2.1.842s.813 1.335.813 2.323c0 .8-.12 1.43-.36 1.89s-.59.815-1.05 1.07-.96.38-1.502.38c-.87 0-1.574-.28-2.11-.838s-.807-1.364-.807-2.414zm1.084 0c0 .797.174 1.394.52 1.79s.786.595 1.313.595c.523 0 .96-.2 1.307-.598s.52-1.006.52-1.822c0-.77-.174-1.353-.523-1.75s-.784-.594-1.304-.594c-.527 0-.965.197-1.312.592s-.52.99-.52 1.787zM463.657 15.044V8.82h.95v.944c.24-.44.465-.732.67-.873s.43-.21.677-.21c.355 0 .717.113 1.084.34l-.363.98c-.258-.153-.516-.23-.773-.23-.23 0-.438.07-.62.208s-.315.33-.394.577c-.117.375-.176.785-.176 1.23v3.258h-1.055zM471.312 12.776l1.055-.14c.12.597.327 1.027.618 1.29s.646.397 1.063.397c.496 0 .915-.172 1.257-.516s.513-.77.513-1.277c0-.484-.158-.884-.475-1.198s-.72-.472-1.207-.472c-.2 0-.447.04-.744.117l.117-.926c.07.01.126.013.17.013.448 0 .853-.117 1.212-.352s.54-.595.54-1.083c0-.387-.132-.707-.394-.96s-.6-.382-1.014-.382c-.41 0-.752.13-1.025.387s-.45.645-.528 1.16l-1.055-.188c.13-.707.422-1.255.88-1.644s1.024-.583 1.704-.583c.47 0 .9.1 1.296.302s.696.475.905.822.314.717.314 1.107c0 .37-.1.708-.3 1.013s-.493.547-.884.727c.508.117.902.36 1.184.73s.422.83.422 1.385c0 .75-.273 1.386-.82 1.907s-1.238.782-2.074.782c-.754 0-1.38-.225-1.878-.674s-.782-1.03-.852-1.744z"/></g><g><circle fill="#E6E6E6" stroke="#666" cx="42" cy="47.812" r="23.875"/><path fill="#FBB000" d="M57 63.938l-17.5-9.876H45l-13-11.25 6.875.126L27 31.688h11l11.75 13.624-5-.124 9.25 11-3.625-.126z"/></g><g><path fill="#4D4D4D" d="M68 43.312h60.667v5H68z"/><path fill="#009245" d="M393.25 39.812h49.25v5h-49.25zM340.432 55.14h5v19.61h-5z"/><path fill="#E6E6E6" stroke="#f00" stroke-width="2" d="M132 12.01h107.252v66.527H132z"/><path d="M138.276 39V27.547h1.516V37.65h5.64V39h-7.156zM147.465 29.164v-1.617h1.406v1.617h-1.405zm0 9.836v-8.297h1.406V39h-1.405zM151.154 39.688l1.367.203c.058.423.217.73.478.923.35.26.825.39 1.43.39.65 0 1.153-.13 1.508-.39.354-.26.594-.625.72-1.094.072-.288.105-.89.1-1.806-.614.724-1.38 1.086-2.296 1.086-1.14 0-2.023-.41-2.648-1.234-.625-.823-.938-1.81-.938-2.96 0-.793.143-1.523.43-2.192.286-.67.702-1.186 1.246-1.55.544-.365 1.184-.548 1.918-.548.98 0 1.786.396 2.422 1.188v-1h1.297v7.172c0 1.292-.132 2.207-.395 2.746-.263.54-.68.965-1.25 1.277s-1.272.468-2.105.468c-.99 0-1.79-.223-2.398-.668s-.907-1.117-.886-2.012zm1.164-4.985c0 1.09.216 1.883.648 2.383.432.5.974.75 1.625.75.647 0 1.19-.25 1.626-.746.438-.497.656-1.277.656-2.34 0-1.016-.226-1.78-.676-2.297-.45-.516-.994-.773-1.63-.773-.624 0-1.155.254-1.593.762s-.655 1.26-.655 2.26zM160.71 39V27.547h1.407v4.11c.656-.76 1.484-1.142 2.484-1.142.615 0 1.15.12 1.603.363s.777.577.973 1.004c.195.427.293 1.047.293 1.86V39h-1.407v-5.258c0-.703-.152-1.215-.457-1.535s-.736-.48-1.293-.48c-.417 0-.81.108-1.176.324-.367.217-.63.51-.785.88-.156.37-.234.88-.234 1.53V39h-1.407zM173.08 37.742l.203 1.242c-.396.083-.75.125-1.062.125-.51 0-.905-.082-1.187-.243s-.48-.374-.594-.637c-.116-.263-.173-.816-.173-1.66v-4.773h-1.03v-1.094h1.03v-2.055l1.398-.844v2.898h1.414v1.094h-1.415v4.852c0 .4.024.66.074.773.048.116.13.207.24.274.113.068.273.102.48.102.16 0 .364-.017.62-.054zM174.862 29.164v-1.617h1.406v1.617h-1.406zm0 9.836v-8.297h1.406V39h-1.406zM178.81 39v-8.297h1.265v1.18c.61-.91 1.49-1.367 2.64-1.367.5 0 .96.09 1.38.27.42.18.733.416.94.707.21.292.355.638.44 1.04.05.26.077.715.077 1.366V39h-1.406v-5.047c0-.573-.055-1-.164-1.285-.11-.284-.304-.51-.582-.68-.28-.17-.605-.254-.98-.254-.6 0-1.116.19-1.55.57-.436.38-.653 1.102-.653 2.164V39h-1.408zM187.85 39.688l1.367.203c.057.423.216.73.477.923.35.26.825.39 1.43.39.65 0 1.153-.13 1.508-.39.354-.26.594-.625.72-1.094.072-.288.105-.89.1-1.806-.614.724-1.38 1.086-2.296 1.086-1.14 0-2.023-.41-2.648-1.234-.625-.823-.938-1.81-.938-2.96 0-.793.143-1.523.43-2.192.286-.67.702-1.186 1.246-1.55.544-.365 1.184-.548 1.918-.548.98 0 1.786.396 2.422 1.188v-1h1.297v7.172c0 1.292-.132 2.207-.395 2.746-.263.54-.68.965-1.25 1.277s-1.272.468-2.105.468c-.99 0-1.79-.223-2.398-.668s-.906-1.117-.885-2.012zm1.164-4.985c0 1.09.216 1.883.648 2.383.432.5.974.75 1.625.75.646 0 1.188-.25 1.625-.746.438-.497.656-1.277.656-2.34 0-1.016-.226-1.78-.676-2.297-.45-.516-.994-.773-1.63-.773-.624 0-1.155.254-1.593.762s-.656 1.26-.656 2.26zM209.947 27.547h1.516v6.617c0 1.15-.13 2.065-.39 2.742-.262.677-.73 1.228-1.41 1.652-.68.425-1.573.637-2.677.637-1.073 0-1.95-.185-2.633-.555-.683-.37-1.17-.905-1.46-1.605-.293-.7-.44-1.657-.44-2.87v-6.618h1.517v6.61c0 .994.092 1.727.277 2.198.185.472.502.835.953 1.09.45.255 1 .383 1.652.383 1.114 0 1.91-.252 2.383-.758.474-.505.71-1.477.71-2.914v-6.61zM214.386 39V27.547h4.32c.76 0 1.34.037 1.742.11.562.093 1.034.27 1.414.534.38.264.686.633.918 1.106.23.474.348.995.348 1.562 0 .974-.31 1.798-.93 2.473-.62.676-1.74 1.013-3.36 1.013h-2.937V39h-1.514zm1.515-6.008h2.962c.98 0 1.674-.182 2.086-.547.41-.364.617-.877.617-1.54 0-.478-.12-.888-.363-1.23-.242-.34-.562-.565-.957-.675-.255-.067-.727-.102-1.414-.102h-2.93v4.094zM224.942 35.32l1.43-.125c.067.573.225 1.043.473 1.41.247.367.63.664 1.152.89.52.228 1.106.34 1.758.34.578 0 1.088-.085 1.53-.257.443-.172.773-.407.99-.707.215-.298.323-.625.323-.98 0-.358-.104-.672-.312-.94-.208-.268-.552-.493-1.03-.676-.31-.12-.988-.306-2.04-.56-1.052-.25-1.79-.49-2.21-.714-.548-.286-.956-.642-1.224-1.066-.27-.424-.402-.9-.402-1.426 0-.578.164-1.118.492-1.62.328-.503.807-.885 1.438-1.146.63-.26 1.33-.39 2.102-.39.85 0 1.598.136 2.246.41s1.147.675 1.496 1.206c.35.53.536 1.133.562 1.805l-1.453.11c-.078-.725-.343-1.272-.793-1.642-.45-.37-1.116-.554-1.996-.554-.917 0-1.585.168-2.004.504-.42.336-.63.74-.63 1.215 0 .412.15.75.446 1.016.292.267 1.053.54 2.285.817 1.232.28 2.078.522 2.536.73.667.308 1.16.697 1.477 1.168.317.472.477 1.015.477 1.63 0 .608-.175 1.183-.523 1.722-.35.54-.85.958-1.504 1.258-.654.3-1.39.45-2.207.45-1.037 0-1.905-.152-2.605-.454-.7-.3-1.25-.755-1.647-1.362-.4-.606-.61-1.292-.63-2.058zM170.376 51.547h1.516v6.617c0 1.15-.13 2.065-.39 2.742-.262.677-.73 1.228-1.41 1.652s-1.573.637-2.677.637c-1.073 0-1.95-.185-2.633-.555-.683-.37-1.17-.905-1.46-1.605-.293-.7-.44-1.657-.44-2.87v-6.618h1.517v6.61c0 .994.09 1.727.276 2.198.185.472.502.835.953 1.09.45.255 1 .383 1.65.383 1.115 0 1.91-.253 2.384-.758s.71-1.477.71-2.914v-6.61zM174.752 63V51.547h1.516V61.65h5.64V63h-7.156zM183.754 60.352l1.352-.125c.114.636.333 1.097.656 1.383.323.286.737.43 1.242.43.432 0 .81-.1 1.137-.297.326-.198.593-.462.802-.793.208-.33.383-.777.523-1.34s.21-1.135.21-1.72c0-.06-.002-.155-.007-.28-.28.448-.666.812-1.152 1.09-.487.28-1.015.418-1.582.418-.948 0-1.75-.344-2.406-1.03s-.984-1.595-.984-2.72c0-1.16.342-2.096 1.027-2.805.686-.708 1.544-1.062 2.575-1.062.745 0 1.426.202 2.043.603.617.4 1.086.973 1.406 1.715s.48 1.816.48 3.223c0 1.465-.16 2.63-.477 3.497-.318.867-.79 1.527-1.418 1.98-.63.453-1.364.68-2.208.68-.896 0-1.628-.25-2.195-.746-.568-.498-.91-1.197-1.023-2.098zm5.758-5.055c0-.807-.215-1.448-.645-1.922-.43-.474-.947-.71-1.55-.71-.626 0-1.17.254-1.634.765-.464.51-.695 1.172-.695 1.984 0 .73.22 1.322.66 1.777.44.457.983.685 1.63.685.65 0 1.185-.228 1.604-.684.42-.454.63-1.086.63-1.893zM200.232 61.648V63h-7.57c-.01-.34.044-.664.164-.977.192-.516.5-1.023.926-1.523.424-.5 1.038-1.078 1.84-1.734 1.245-1.02 2.086-1.83 2.523-2.426.438-.596.656-1.16.656-1.69 0-.558-.198-1.028-.597-1.41s-.918-.575-1.56-.575c-.676 0-1.218.203-1.624.61s-.613.968-.618 1.687l-1.445-.148c.1-1.078.47-1.9 1.117-2.465.646-.566 1.513-.85 2.602-.85 1.1 0 1.97.306 2.61.915s.96 1.365.96 2.266c0 .46-.094.91-.28 1.353-.19.443-.5.91-.935 1.398-.434.49-1.157 1.163-2.167 2.017-.844.708-1.386 1.19-1.625 1.44-.24.254-.438.508-.594.763h5.618zM206.648 63v-2.742h-4.97v-1.29l5.228-7.42h1.148v7.42h1.547v1.29h-1.546V63h-1.406zm0-4.03v-5.165l-3.586 5.164h3.586z"/><path fill="#4D4D4D" d="M241.5 39.867h48.75v5H241.5z"/><path fill="#009245" d="M184.41 98.36l-.002-17.61h-5v22.61h137.87v-5zM460.545 39.333h41.705v5h-41.705z"/></g><g><path fill="#fff" stroke="#4D4D4D" d="M319.036 76.984h45.667v41.75h-45.667z"/><path fill="#009245" d="M321.682 89.234h9.875v19.75h-9.875z"/><path fill="#F7931E" d="M323.134 92.484h6.97v7h-6.97z"/><path fill="#009245" d="M336.682 89.234h9.875v19.75h-9.875z"/><path fill="#F7931E" d="M338.134 92.484h6.97v7h-6.97z"/><path fill="#009245" d="M351.828 89.234h9.875v19.75h-9.875z"/><path fill="#F7931E" d="M353.28 92.484h6.97v7h-6.97z"/><path fill="#4D4D4D" d="M326.266 111.484h13.9v5h-13.9z"/><path fill="#999" d="M343.766 111.484h13.9v5h-13.9z"/><path d="M309.298 34.686h5.438v5h-5.438z"/></g><g><path fill="#333" d="M292.485 27.04h98.89v26.374h-98.89z"/><path fill="#666" d="M295.485 29.372h92.977V50.55h-92.977z"/><path fill="#8CC63F" d="M307.485 32.74h69.594v15.396h-69.595z"/><path fill="#4D4D4D" d="M314.806 39.79h-5.577v-3.688l1.484-1.312h2.584l1.508 1.374z"/><path fill="#C69C6D" d="M298.485 32.74h5.25v15.396h-5.25zM380.876 32.74h5.25v15.396h-5.25z"/><path fill="#4D4D4D" d="M322.236 39.79h-5.577v-3.688l1.485-1.312h2.583l1.508 1.374zM329.667 39.79h-5.576v-3.688l1.485-1.312h2.584l1.507 1.374zM337.1 39.79h-5.58v-3.688l1.487-1.312h2.583l1.51 1.374zM344.528 39.79h-5.576v-3.688l1.485-1.312h2.584l1.508 1.374zM351.96 39.79h-5.577v-3.688l1.485-1.312h2.584l1.508 1.374zM359.39 39.79h-5.577v-3.688l1.486-1.312h2.582l1.51 1.374zM366.82 39.79h-5.575v-3.688l1.484-1.312h2.583l1.508 1.374zM374.253 39.79h-5.578v-3.688l1.486-1.312h2.584l1.51 1.374zM314.806 40.977h-5.577v3.688l1.484 1.312h2.584l1.508-1.374zM322.236 40.977h-5.577v3.688l1.485 1.312h2.583l1.508-1.374zM329.667 40.977h-5.576v3.688l1.485 1.312h2.584l1.507-1.374zM337.1 40.977h-5.58v3.688l1.487 1.312h2.583l1.51-1.374zM344.528 40.977h-5.576v3.688l1.485 1.312h2.584l1.508-1.374zM351.96 40.977h-5.577v3.688l1.485 1.312h2.584l1.508-1.374zM359.39 40.977h-5.577v3.688l1.486 1.312h2.582l1.51-1.374zM366.82 40.977h-5.575v3.688l1.484 1.312h2.583l1.508-1.374zM374.253 40.977h-5.578v3.688l1.486 1.312h2.584l1.51-1.374z"/></g><g><path fill="#ccc" d="M457.334 56.167H445.5v-30.75c0-1.61 1.306-2.917 2.917-2.917h6c1.61 0 2.917 1.306 2.917 2.917v30.75zM463.834 61.334H439v-2.25c0-1.61 1.307-2.917 2.918-2.917h19c1.61 0 2.916 1.306 2.916 2.917v2.25z"/><path fill="#4D4D4D" d="M454.206 32.6h-5.578v-3.69l1.486-1.31h2.583l1.51 1.374zM454.206 41.833h-5.578v-3.688l1.486-1.312h2.583l1.51 1.374z"/></g><g><circle fill="#FCEE21" stroke="#4D4D4D" cx="530.496" cy="47.34" r="8.121"/><circle fill="#FCEE21" stroke="#4D4D4D" cx="553.496" cy="47.34" r="8.121"/><path d="M520.04 27.688h42.92v7.822h-42.92z"/><path fill="#999" d="M579.5 47.616h-76l7.153-12.652h61.917z"/><path d="M522.164 15.1V6.51h5.795v1.015h-4.66v2.66h4.032V11.2h-4.03v3.9h-1.138zM529.606 7.724V6.51h1.055v1.214h-1.054zm0 7.377V8.88h1.055V15.1h-1.054zM531.863 15.1l2.273-3.233-2.104-2.988h1.318l.955 1.458c.18.277.324.51.434.697.17-.258.33-.486.474-.686l1.05-1.472h1.26l-2.15 2.93 2.313 3.293h-1.295l-1.277-1.933-.34-.52-1.635 2.454h-1.277zM541.17 14.157l.152.932c-.297.06-.562.093-.797.093-.383 0-.68-.06-.89-.182s-.36-.28-.446-.477-.13-.612-.13-1.245v-3.58h-.773v-.82h.773v-1.54l1.05-.634v2.174h1.06v.82h-1.06v3.64c0 .3.018.493.055.58s.098.153.182.204.204.076.36.076c.117 0 .272-.013.463-.04zM546.58 15.1v-.913c-.485.703-1.144 1.055-1.976 1.055-.367 0-.71-.07-1.028-.21s-.555-.318-.71-.53-.262-.475-.324-.783c-.043-.208-.064-.536-.064-.985V8.878h1.055v3.45c0 .552.02.923.064 1.114.066.277.207.495.422.653s.48.237.796.237.613-.08.89-.243.475-.384.59-.663.173-.685.173-1.216V8.88h1.054V15.1h-.945zM549.463 15.1V8.88h.95v.943c.24-.44.465-.73.67-.872s.43-.21.677-.21c.355 0 .717.112 1.084.34l-.363.978c-.257-.152-.515-.23-.772-.23-.23 0-.438.07-.62.21s-.315.33-.394.576c-.117.375-.176.785-.176 1.23V15.1h-1.055zM558.03 13.097l1.09.135c-.172.637-.49 1.13-.955 1.482s-1.06.527-1.78.527c-.91 0-1.633-.28-2.166-.84s-.8-1.347-.8-2.358c0-1.047.27-1.86.808-2.438s1.238-.867 2.098-.867c.832 0 1.512.283 2.04.85s.79 1.363.79 2.39c0 .063-.002.157-.006.282h-4.64c.038.683.23 1.206.58 1.57s.78.544 1.3.544c.387 0 .717-.102.99-.305s.49-.528.65-.973zm-3.463-1.705h3.475c-.047-.523-.18-.916-.398-1.178-.336-.406-.77-.61-1.307-.61-.484 0-.892.163-1.222.487s-.512.76-.548 1.302z"/></g></svg>