<svg xmlns="http://www.w3.org/2000/svg" width="585" height="122" viewBox="0 0 585 122"><g><path d="M393.08 85.816c0-1.426.383-2.542 1.148-3.35s1.754-1.21 2.965-1.21c.793 0 1.508.19 2.145.57s1.122.906 1.456 1.584.5 1.446.5 2.306c0 .87-.175 1.65-.526 2.338s-.85 1.208-1.494 1.562-1.34.53-2.086.53c-.81 0-1.53-.195-2.168-.586s-1.12-.924-1.447-1.6-.493-1.39-.493-2.144zm1.172.018c0 1.035.278 1.85.835 2.446s1.255.894 2.095.894c.855 0 1.56-.3 2.112-.902s.83-1.455.83-2.56c0-.7-.12-1.31-.355-1.832s-.583-.926-1.038-1.213-.966-.43-1.532-.43c-.805 0-1.497.275-2.077.828s-.87 1.476-.87 2.77zM406.703 90v-.914c-.484.703-1.143 1.055-1.975 1.055-.367 0-.71-.07-1.028-.21s-.555-.317-.71-.53-.262-.474-.324-.782c-.043-.207-.064-.535-.064-.984V83.78h1.055v3.45c0 .55.02.922.064 1.113.067.277.208.495.423.653s.48.237.797.237.613-.08.89-.243.475-.383.59-.662.173-.685.173-1.216v-3.334h1.055V90h-.945zM411.602 89.057l.152.932c-.297.06-.562.093-.797.093-.383 0-.68-.06-.89-.182s-.36-.28-.446-.477-.128-.612-.128-1.245v-3.58h-.773v-.82h.772v-1.54l1.05-.634v2.174h1.06v.82h-1.06v3.64c0 .3.018.493.055.58s.098.153.182.204.203.076.36.076c.116 0 .27-.014.462-.04zM416.693 89.232c-.39.332-.767.566-1.128.703s-.75.205-1.163.205c-.684 0-1.21-.167-1.576-.5s-.55-.762-.55-1.28c0-.306.068-.584.207-.836s.32-.454.545-.606.478-.268.76-.346c.206-.055.52-.107.937-.158.852-.102 1.48-.223 1.88-.363.005-.144.007-.235.007-.274 0-.43-.1-.732-.3-.908-.27-.238-.67-.357-1.2-.357-.496 0-.862.088-1.1.262s-.41.48-.523.923l-1.032-.14c.094-.442.248-.8.463-1.07s.526-.48.933-.627.877-.22 1.412-.22c.53 0 .963.062 1.295.188s.576.282.732.472.266.43.328.718c.035.18.053.504.053.973v1.405c0 .98.022 1.6.067 1.86s.134.51.267.747h-1.102c-.11-.22-.18-.477-.212-.77zm-.088-2.355c-.383.156-.957.29-1.723.398-.434.062-.74.133-.92.21s-.318.193-.416.344-.146.316-.146.5c0 .28.106.516.32.703s.523.28.934.28c.406 0 .768-.088 1.084-.266s.55-.42.697-.73c.113-.237.17-.59.17-1.054v-.386zM419.113 90.516l1.025.152c.043.316.162.547.357.69.262.196.62.294 1.072.294.488 0 .865-.098 1.13-.293s.446-.47.54-.82c.055-.216.08-.667.076-1.355-.46.543-1.035.814-1.723.814-.855 0-1.518-.31-1.986-.927s-.703-1.357-.703-2.22c0-.595.108-1.143.323-1.645s.526-.89.935-1.163.888-.41 1.438-.41c.734 0 1.34.297 1.816.89v-.75h.973v5.38c0 .97-.1 1.655-.296 2.06s-.51.724-.94.958-.953.352-1.578.352c-.742 0-1.342-.167-1.8-.5s-.674-.837-.66-1.51zm.873-3.74c0 .817.162 1.413.486 1.788s.73.562 1.22.562c.483 0 .89-.187 1.218-.56s.492-.958.492-1.755c0-.76-.17-1.335-.507-1.722s-.745-.58-1.222-.58c-.47 0-.867.19-1.195.57s-.492.95-.492 1.7zM430.24 87.996l1.09.135c-.172.638-.49 1.132-.955 1.483s-1.06.527-1.78.527c-.91 0-1.633-.28-2.166-.84s-.8-1.348-.8-2.36c0-1.046.27-1.858.808-2.437s1.238-.867 2.098-.867c.832 0 1.512.283 2.04.85s.79 1.363.79 2.39c0 .063-.002.157-.006.282h-4.64c.038.684.23 1.207.58 1.57s.78.545 1.3.545c.387 0 .717-.102.99-.305s.49-.527.65-.972zm-3.463-1.705h3.475c-.047-.522-.18-.915-.398-1.177-.336-.406-.77-.61-1.307-.61-.484 0-.892.163-1.222.487s-.513.758-.548 1.3zM393.443 104.4v-8.59h3.81c.765 0 1.347.077 1.745.23s.717.428.955.818.357.822.357 1.295c0 .61-.197 1.123-.592 1.54s-1.004.685-1.828.798c.3.146.53.288.686.43.332.304.646.685.943 1.142l1.493 2.338h-1.43l-1.137-1.787c-.332-.516-.605-.91-.82-1.184s-.407-.466-.577-.575-.344-.186-.52-.23c-.13-.026-.34-.04-.633-.04h-1.318v3.814h-1.137zm1.137-4.798h2.443c.52 0 .926-.054 1.22-.16s.515-.28.667-.517.23-.493.23-.77c0-.407-.148-.74-.443-1.003s-.76-.393-1.397-.393h-2.72V99.6zM406.217 102.396l1.09.135c-.172.638-.49 1.132-.955 1.483s-1.06.527-1.78.527c-.91 0-1.633-.28-2.166-.84s-.8-1.348-.8-2.36c0-1.046.27-1.858.81-2.437s1.237-.867 2.097-.867c.832 0 1.512.283 2.04.85s.79 1.363.79 2.39c0 .063-.002.157-.006.282h-4.64c.038.684.23 1.207.58 1.57s.78.545 1.3.545c.387 0 .717-.102.99-.305s.49-.526.65-.972zm-3.463-1.705h3.475c-.048-.522-.18-.915-.4-1.177-.335-.406-.77-.61-1.306-.61-.484 0-.892.163-1.222.487s-.513.758-.548 1.3zM408.607 104.4v-8.59h1.055v8.59h-1.055zM415.357 103.633c-.39.332-.767.566-1.128.703s-.75.205-1.164.205c-.684 0-1.21-.166-1.576-.5s-.55-.76-.55-1.28c0-.305.068-.583.207-.835s.32-.454.545-.606.478-.27.76-.347c.206-.055.52-.107.937-.158.85-.102 1.478-.223 1.88-.363l.006-.275c0-.43-.1-.732-.3-.908-.27-.24-.67-.358-1.2-.358-.496 0-.862.087-1.1.26s-.41.482-.523.924l-1.03-.14c.093-.442.247-.8.462-1.07s.525-.48.932-.627.877-.22 1.412-.22c.53 0 .962.06 1.294.187s.576.282.732.472.266.428.328.717c.035.18.053.504.053.973v1.406c0 .98.022 1.6.067 1.86s.134.51.267.747h-1.1c-.11-.22-.18-.477-.213-.77zm-.087-2.356c-.383.156-.957.29-1.723.398-.434.062-.74.133-.92.21s-.318.193-.416.344-.145.316-.145.5c0 .28.106.516.32.703s.523.28.934.28c.405 0 .767-.088 1.083-.266s.55-.42.697-.73c.113-.237.17-.59.17-1.054v-.386zM417.924 106.797l-.117-.99c.23.062.432.094.604.094.235 0 .423-.038.563-.116s.256-.188.346-.328c.065-.105.173-.367.32-.785.02-.058.052-.144.095-.257l-2.36-6.234h1.136l1.296 3.603c.168.457.318.938.45 1.44.122-.483.267-.956.435-1.417l1.33-3.627h1.056l-2.367 6.327c-.255.684-.452 1.154-.593 1.412-.188.347-.402.602-.645.764s-.53.243-.867.243c-.205 0-.43-.044-.68-.13zM237.017 34.793v-8.59h2.96c.667 0 1.177.04 1.528.123.492.113.912.318 1.26.615.453.384.792.873 1.017 1.47s.337 1.275.337 2.04c0 .653-.077 1.23-.23 1.735s-.348.92-.586 1.25-.5.59-.782.78-.625.333-1.025.43-.86.147-1.38.147h-3.1zm1.136-1.014h1.834c.566 0 1.01-.054 1.333-.16s.58-.253.77-.444c.27-.27.48-.632.63-1.087s.227-1.008.227-1.656c0-.898-.147-1.59-.442-2.07s-.653-.807-1.075-.97c-.305-.118-.795-.177-1.47-.177h-1.806v6.562zM245.536 34.793V28.57h.95v.943c.24-.44.465-.732.67-.873s.43-.21.677-.21c.355 0 .717.112 1.084.34l-.363.978c-.258-.152-.516-.23-.773-.23-.23 0-.437.07-.62.21s-.314.33-.393.576c-.117.375-.176.785-.176 1.23v3.258h-1.054zM249.497 37.19l-.117-.99c.23.06.432.093.604.093.234 0 .422-.04.562-.117s.256-.188.346-.328c.066-.105.174-.367.322-.785.02-.06.05-.145.094-.258l-2.36-6.234h1.136l1.295 3.605c.167.457.317.938.45 1.44.12-.483.266-.956.434-1.417l1.33-3.627h1.055l-2.368 6.33c-.254.683-.45 1.153-.592 1.41-.188.35-.402.604-.645.766s-.53.243-.867.243c-.204-.002-.43-.045-.68-.13zM265.142 31.78l1.137.288c-.24.934-.668 1.646-1.287 2.136s-1.376.735-2.27.735c-.927 0-1.68-.19-2.26-.566s-1.02-.923-1.324-1.638-.455-1.482-.455-2.303c0-.895.17-1.675.513-2.34s.828-1.173 1.46-1.52 1.324-.518 2.082-.518c.86 0 1.582.22 2.168.656s.994 1.054 1.225 1.847l-1.12.264c-.198-.624-.487-1.08-.866-1.364s-.855-.428-1.43-.428c-.66 0-1.212.158-1.655.475s-.755.74-.935 1.274-.27 1.083-.27 1.65c0 .73.106 1.367.32 1.912s.543.95.992 1.22.935.405 1.458.405c.637 0 1.176-.184 1.617-.55s.74-.91.897-1.634zM267.15 31.682c0-1.152.32-2.006.962-2.56.535-.462 1.188-.692 1.957-.692.854 0 1.554.28 2.097.84s.814 1.336.814 2.324c0 .8-.12 1.43-.36 1.89s-.59.815-1.048 1.07-.96.38-1.503.38c-.872 0-1.576-.28-2.113-.838s-.806-1.364-.806-2.414zm1.085 0c0 .797.174 1.394.52 1.79s.786.595 1.313.595c.523 0 .96-.2 1.307-.598s.52-1.007.52-1.823c0-.77-.174-1.353-.523-1.75s-.784-.594-1.304-.594c-.527 0-.965.197-1.312.592s-.52.99-.52 1.787zM274.218 34.793V28.57h.95v.885c.456-.684 1.116-1.025 1.98-1.025.374 0 .72.067 1.033.202s.55.312.707.53.266.48.328.78c.04.194.06.536.06 1.024v3.826h-1.056v-3.785c0-.43-.042-.75-.124-.964s-.228-.383-.437-.51-.455-.19-.736-.19c-.45 0-.837.143-1.163.428s-.488.827-.488 1.624v3.398h-1.054zM283.194 33.85l.152.932c-.297.062-.562.094-.797.094-.384 0-.68-.06-.892-.182s-.36-.28-.445-.478-.13-.612-.13-1.245v-3.58h-.772v-.82h.774v-1.54l1.05-.633v2.174h1.06v.82h-1.06v3.64c0 .3.018.494.055.58s.097.154.18.205.205.076.36.076c.12 0 .273-.013.464-.04zM288.286 34.025c-.39.332-.767.566-1.128.703s-.75.205-1.163.205c-.684 0-1.21-.167-1.576-.5s-.552-.762-.552-1.28c0-.306.07-.584.208-.836s.32-.454.545-.606.48-.267.76-.345c.207-.055.52-.107.938-.158.852-.102 1.48-.223 1.88-.363.005-.145.007-.236.007-.275 0-.43-.1-.733-.3-.91-.27-.237-.67-.356-1.2-.356-.496 0-.862.087-1.1.26s-.41.482-.523.924l-1.03-.14c.093-.442.247-.8.462-1.07s.525-.48.932-.627.877-.22 1.412-.22c.53 0 .963.063 1.295.19s.576.28.732.47.266.43.328.72c.035.18.053.503.053.972v1.406c0 .98.022 1.6.067 1.86s.134.51.267.747h-1.102c-.11-.22-.18-.477-.212-.77zm-.088-2.355c-.383.156-.957.29-1.723.398-.434.062-.74.133-.92.21s-.318.193-.416.344-.147.317-.147.5c0 .282.106.517.32.704s.523.28.934.28c.406 0 .768-.088 1.084-.266s.55-.42.698-.73c.113-.237.17-.59.17-1.054v-.386zM294.96 32.514l1.037.135c-.113.714-.403 1.273-.87 1.678s-1.04.606-1.72.606c-.852 0-1.536-.278-2.054-.835s-.776-1.355-.776-2.395c0-.672.11-1.26.334-1.764s.563-.88 1.018-1.133.95-.378 1.485-.378c.676 0 1.23.17 1.658.512s.706.827.827 1.456l-1.025.158c-.098-.418-.27-.732-.52-.943s-.547-.316-.898-.316c-.53 0-.963.19-1.295.57s-.5.984-.5 1.81c0 .835.16 1.442.48 1.82s.74.57 1.255.57c.414 0 .76-.128 1.037-.382s.454-.644.528-1.17zM299.202 33.85l.152.932c-.297.062-.562.094-.797.094-.383 0-.68-.06-.89-.182s-.36-.28-.446-.478-.128-.612-.128-1.245v-3.58h-.773v-.82h.772v-1.54l1.05-.633v2.174h1.06v.82h-1.06v3.64c0 .3.018.494.055.58s.098.154.182.205.203.076.36.076c.116 0 .27-.013.462-.04zM303.72 34.793v-8.59h3.81c.765 0 1.347.077 1.745.23s.717.428.955.818.357.823.357 1.296c0 .61-.197 1.123-.592 1.54s-1.004.685-1.828.798c.3.145.53.287.686.428.332.305.646.686.943 1.143l1.494 2.338h-1.43l-1.137-1.787c-.332-.516-.605-.91-.82-1.184s-.407-.465-.577-.574-.343-.186-.52-.23c-.128-.026-.34-.04-.632-.04h-1.318v3.814h-1.136zm1.136-4.8h2.443c.52 0 .925-.053 1.218-.16s.516-.28.668-.516.23-.493.23-.77c0-.407-.148-.74-.443-1.003s-.76-.393-1.397-.393h-2.72v2.844zM316.493 32.79l1.09.134c-.172.637-.49 1.13-.955 1.482s-1.06.527-1.78.527c-.91 0-1.633-.28-2.166-.84s-.8-1.348-.8-2.36c0-1.046.27-1.858.81-2.437s1.237-.867 2.097-.867c.83 0 1.51.282 2.038.85s.79 1.362.79 2.39c0 .062 0 .156-.005.28h-4.64c.038.685.23 1.208.58 1.57s.78.546 1.3.546c.387 0 .717-.102.99-.305s.49-.526.65-.97zm-3.463-1.706h3.475c-.047-.523-.18-.916-.398-1.178-.336-.406-.77-.61-1.307-.61-.484 0-.892.163-1.222.487s-.513.758-.548 1.3zM318.884 34.793v-8.59h1.055v8.59h-1.056zM325.634 34.025c-.39.332-.767.566-1.128.703s-.75.205-1.163.205c-.684 0-1.21-.167-1.576-.5s-.55-.762-.55-1.28c0-.306.068-.584.207-.836s.32-.454.545-.606.477-.267.758-.345c.207-.055.52-.107.938-.158.852-.102 1.48-.223 1.88-.363.005-.145.007-.236.007-.275 0-.43-.1-.733-.3-.91-.27-.237-.67-.356-1.2-.356-.496 0-.862.087-1.1.26s-.41.482-.523.924l-1.03-.14c.093-.442.247-.8.462-1.07s.525-.48.932-.627.877-.22 1.412-.22c.53 0 .963.063 1.295.19s.577.28.733.47.266.43.328.72c.036.18.054.503.054.972v1.406c0 .98.022 1.6.067 1.86s.135.51.268.747h-1.102c-.11-.22-.18-.477-.212-.77zm-.088-2.355c-.383.156-.957.29-1.723.398-.434.062-.74.133-.92.21s-.318.193-.416.344-.146.317-.146.5c0 .282.107.517.32.704s.524.28.935.28c.406 0 .768-.088 1.084-.266s.548-.42.696-.73c.113-.237.17-.59.17-1.054v-.386zM328.2 37.19l-.117-.99c.23.06.432.093.604.093.234 0 .422-.04.562-.117s.255-.188.345-.328c.066-.105.174-.367.322-.785.02-.06.05-.145.094-.258l-2.36-6.234h1.137l1.295 3.605c.168.457.318.938.45 1.44.122-.483.267-.956.435-1.417l1.33-3.627h1.055l-2.367 6.33c-.254.683-.45 1.153-.592 1.41-.188.35-.402.604-.645.766s-.53.243-.867.243c-.203-.002-.43-.045-.68-.13zM211.95 72.56v-8.59h6.21v1.015h-5.074v2.63h4.752v1.01h-4.752v2.923h5.273v1.014h-6.41zM219.795 72.56V66.34h.95v.885c.456-.684 1.116-1.025 1.98-1.025.374 0 .72.067 1.033.202s.55.312.706.53.266.48.328.78c.04.194.06.536.06 1.024v3.826h-1.056v-3.785c0-.43-.04-.75-.123-.964s-.228-.382-.437-.51-.454-.19-.735-.19c-.448 0-.836.144-1.162.43s-.49.825-.49 1.622v3.398h-1.053zM226.275 73.076l1.025.152c.043.316.162.547.357.69.262.196.62.294 1.072.294.487 0 .864-.098 1.13-.293s.445-.47.54-.82c.054-.216.08-.667.075-1.355-.46.543-1.035.814-1.723.814-.855 0-1.518-.31-1.986-.927s-.703-1.357-.703-2.22c0-.595.107-1.143.322-1.645s.526-.89.935-1.163.888-.41 1.438-.41c.734 0 1.34.297 1.816.89v-.75h.973v5.38c0 .97-.1 1.655-.296 2.06s-.51.724-.937.958-.954.352-1.58.352c-.74 0-1.34-.167-1.798-.5s-.675-.837-.66-1.51zm.873-3.738c0 .816.162 1.412.486 1.787s.73.562 1.22.562c.483 0 .89-.187 1.218-.56s.492-.958.492-1.755c0-.762-.17-1.336-.507-1.723s-.745-.58-1.222-.58c-.47 0-.867.19-1.195.57s-.492.948-.492 1.698zM233.148 65.184V63.97h1.055v1.214h-1.055zm0 7.377V66.34h1.055v6.223h-1.055zM235.81 72.56V66.34h.948v.885c.457-.684 1.117-1.025 1.98-1.025.375 0 .72.067 1.034.202s.55.312.706.53.266.48.328.78c.04.194.06.536.06 1.024v3.826h-1.056v-3.785c0-.43-.04-.75-.123-.964s-.228-.382-.437-.51-.454-.19-.735-.19c-.45 0-.837.144-1.163.43s-.49.825-.49 1.622v3.398h-1.053zM246.742 70.557l1.09.135c-.172.637-.49 1.13-.955 1.482s-1.06.527-1.78.527c-.91 0-1.633-.28-2.166-.84s-.8-1.347-.8-2.358c0-1.047.27-1.86.81-2.438s1.238-.867 2.098-.867c.832 0 1.512.283 2.04.85s.79 1.363.79 2.39c0 .063-.002.157-.006.282h-4.64c.038.683.23 1.206.58 1.57s.78.544 1.3.544c.387 0 .717-.102.99-.305s.49-.528.65-.973zm-3.463-1.705h3.474c-.047-.523-.18-.916-.398-1.178-.336-.406-.77-.61-1.307-.61-.485 0-.893.163-1.223.487s-.513.76-.548 1.302zM69.076 33.812l3.3-8.59H73.6l3.516 8.59H75.82l-1.002-2.602h-3.592l-.943 2.602h-1.207zm2.48-3.528h2.91l-.895-2.38c-.272-.722-.476-1.315-.608-1.78-.11.55-.264 1.098-.463 1.64l-.945 2.52zM84.152 30.8l1.137.287c-.24.934-.668 1.646-1.287 2.136s-1.376.735-2.27.735c-.927 0-1.68-.188-2.26-.565s-1.02-.923-1.324-1.638-.455-1.482-.455-2.303c0-.895.17-1.675.513-2.34s.828-1.173 1.46-1.52 1.324-.518 2.082-.518c.86 0 1.582.22 2.168.656s.994 1.053 1.225 1.846l-1.12.264c-.198-.625-.487-1.08-.866-1.365s-.855-.428-1.43-.428c-.66 0-1.212.158-1.655.475s-.755.74-.935 1.274-.27 1.083-.27 1.65c0 .73.106 1.367.32 1.912s.543.952.992 1.222.935.404 1.458.404c.637 0 1.176-.184 1.617-.55s.74-.912.897-1.634zM89.89 36.196V27.59h.96v.808c.227-.316.482-.554.768-.712s.63-.237 1.037-.237c.53 0 1 .136 1.406.41s.714.658.92 1.156.312 1.044.312 1.638c0 .637-.114 1.21-.343 1.72s-.562.9-.997 1.172-.894.407-1.374.407c-.353 0-.668-.074-.947-.223s-.51-.336-.688-.562v3.03H89.89zm.954-5.46c0 .8.162 1.392.486 1.774s.717.574 1.178.574c.47 0 .87-.198 1.204-.595s.5-1.012.5-1.844c0-.793-.162-1.387-.488-1.78s-.716-.593-1.17-.593c-.448 0-.846.21-1.19.63s-.52 1.032-.52 1.832zM96.17 30.7c0-1.152.32-2.006.96-2.56.536-.462 1.19-.692 1.958-.692.855 0 1.555.28 2.098.84s.814 1.336.814 2.324c0 .8-.12 1.43-.36 1.89s-.59.815-1.05 1.07-.96.38-1.502.38c-.87 0-1.575-.28-2.112-.838s-.806-1.363-.806-2.414zm1.084 0c0 .797.174 1.394.52 1.79s.786.595 1.313.595c.523 0 .96-.2 1.307-.598s.52-1.006.52-1.822c0-.77-.174-1.353-.523-1.75s-.783-.594-1.303-.594c-.527 0-.965.198-1.312.593s-.52.99-.52 1.787zM104.385 33.812l-1.904-6.223h1.09l.99 3.59.37 1.337.322-1.283.99-3.645h1.084l.932 3.608.31 1.19.358-1.202 1.066-3.598h1.025l-1.945 6.223h-1.096l-.99-3.726-.24-1.06-1.26 4.786h-1.1zM116.162 31.808l1.09.135c-.172.637-.49 1.13-.955 1.482s-1.06.527-1.78.527c-.91 0-1.633-.28-2.166-.84s-.8-1.348-.8-2.36c0-1.046.27-1.858.81-2.437s1.238-.867 2.098-.867c.832 0 1.512.283 2.04.85s.79 1.363.79 2.39c0 .063-.002.157-.006.282h-4.64c.038.684.23 1.207.58 1.57s.78.545 1.3.545c.387 0 .717-.102.99-.305s.49-.527.65-.972zm-3.463-1.705h3.474c-.047-.523-.18-.916-.398-1.178-.336-.406-.77-.61-1.307-.61-.485 0-.893.163-1.223.487s-.513.758-.548 1.3zM118.564 33.812V27.59h.95v.942c.24-.44.465-.732.67-.873s.43-.212.677-.212c.356 0 .718.113 1.085.34l-.363.98c-.258-.153-.516-.23-.773-.23-.23 0-.44.07-.622.208s-.314.33-.393.577c-.117.375-.176.785-.176 1.23v3.258h-1.056z"/></g><g stroke="#000"><circle fill="#fff" cx="342.417" cy="45.812" r="8.583"/><circle fill="#fff" cx="383.083" cy="45.812" r="8.583"/><path fill="none" d="M374.5 44.833l-21.167-20"/></g><g><circle fill="#E6E6E6" stroke="#666" cx="42" cy="47.812" r="23.875"/><path fill="#FBB000" d="M57 63.938l-17.5-9.876H45l-13-11.25 6.875.126L27 31.688h11l11.75 13.624-5-.124 9.25 11-3.625-.126z"/></g><g><circle fill="#E6E6E6" cx="138.251" cy="90.437" r="17.876"/><path fill="#FBB000" d="M149.482 102.51l-13.102-7.394h4.118l-9.734-8.423 5.148.094-8.892-8.424h8.236l8.798 10.2-3.743-.09 6.926 8.235-2.714-.095z"/><path fill="#f00" d="M138.252 72.205c-9.873 0-17.877 8.003-17.877 17.876 0 9.873 8.004 17.878 17.877 17.878 9.872 0 17.876-8.005 17.876-17.877 0-9.872-8.004-17.875-17.876-17.875zm0 34.003c-8.907 0-16.127-7.222-16.127-16.127 0-8.905 7.22-16.125 16.127-16.125 8.905 0 16.126 7.22 16.126 16.126 0 8.906-7.22 16.128-16.126 16.128z"/><path stroke="#f00" stroke-width="2" fill="none" d="M126.25 102.083l24.003-24.004"/></g><g><path fill="#4D4D4D" d="M68 43.312h263.833v5H68zM393.08 43.312h58.42v5h-58.42zM38.25 71.688h4.875v5H38.25zM38.25 87.938h4.875v5H38.25zM57 87.938h4.875v5H57zM74.875 87.938h4.875v5h-4.875zM93.125 87.938H98v5h-4.875zM111.5 87.938h4.875v5H111.5zM157.794 90.438H179v5h-21.206z"/><path fill="#009245" d="M280.127 90.438h55.948v5h-55.948zM358.167 49.02h5v24.647h-5z"/></g><g><path fill="#fff" stroke="#4D4D4D" d="M453.5 25.446H564v40.342H453.5z"/><circle fill="#FCEE21" stroke="#4D4D4D" cx="544.625" cy="45.617" r="16.5"/><circle fill="#E6E6E6" stroke="#333" cx="509.125" cy="45.617" r="16.5"/><path fill="#FBB000" d="M519.492 56.76l-12.095-6.824h3.8l-8.983-7.775 4.75.088-8.206-7.775h7.603l8.12 9.416-3.455-.088 6.393 7.603-2.505-.087z"/><circle fill="#FCEE21" stroke="#4D4D4D" cx="473" cy="45.617" r="16.5"/></g><g><path fill="#fff" stroke="#4D4D4D" d="M337.833 75.062H383.5v41.75h-45.667z"/><path fill="#009245" d="M340.48 87.312h9.874v19.75h-9.875z"/><path fill="#F7931E" d="M341.93 90.562h6.972v7h-6.97z"/><path fill="#009245" d="M355.48 87.312h9.874v19.75h-9.875z"/><path fill="#F7931E" d="M356.93 90.562h6.972v7h-6.97z"/><path fill="#009245" d="M370.625 87.312h9.875v19.75h-9.875z"/><path fill="#F7931E" d="M372.077 90.562h6.97v7h-6.97z"/><path fill="#4D4D4D" d="M345.062 109.562h13.9v5h-13.9z"/><path fill="#999" d="M362.562 109.562h13.9v5h-13.9z"/><path d="M196.812 86.646h5.438v5h-5.438z"/></g><g><path fill="#333" d="M180 79h98.89v26.375H180z"/><path fill="#666" d="M183 81.333h92.976v21.178H183z"/><path fill="#8CC63F" d="M195 84.702h69.594v15.395H195z"/><path fill="#4D4D4D" d="M202.32 91.75h-5.577v-3.688l1.485-1.31h2.584l1.508 1.373z"/><path fill="#C69C6D" d="M186 84.702h5.25v15.395H186zM268.39 84.702h5.25v15.395h-5.25z"/><path fill="#4D4D4D" d="M209.75 91.75h-5.577v-3.688l1.486-1.31h2.582l1.508 1.373zM217.182 91.75h-5.578v-3.688l1.486-1.31h2.583l1.51 1.373zM224.612 91.75h-5.577v-3.688l1.486-1.31h2.584l1.508 1.373zM232.043 91.75h-5.577v-3.688l1.485-1.31h2.585l1.508 1.373zM239.474 91.75h-5.577v-3.688l1.485-1.31h2.584l1.508 1.373zM246.905 91.75h-5.577v-3.688l1.485-1.31h2.583l1.51 1.373zM254.336 91.75h-5.577v-3.688l1.484-1.31h2.584l1.508 1.373zM261.767 91.75h-5.578v-3.688l1.485-1.31h2.583l1.51 1.373zM202.32 92.938h-5.577v3.688l1.485 1.312h2.584l1.508-1.375zM209.75 92.938h-5.577v3.688l1.486 1.312h2.582l1.508-1.375zM217.182 92.938h-5.578v3.688l1.486 1.312h2.583l1.51-1.375zM224.612 92.938h-5.577v3.688l1.486 1.312h2.584l1.508-1.375zM232.043 92.938h-5.577v3.688l1.485 1.312h2.585l1.508-1.375zM239.474 92.938h-5.577v3.688l1.485 1.312h2.584l1.508-1.375zM246.905 92.938h-5.577v3.688l1.485 1.312h2.583l1.51-1.375zM254.336 92.938h-5.577v3.688l1.484 1.312h2.584l1.508-1.375zM261.767 92.938h-5.578v3.688l1.485 1.312h2.583l1.51-1.375z"/></g></svg>