<svg xmlns="http://www.w3.org/2000/svg" width="512" height="512" viewBox="0 0 512 512"><g fill="#1e4072"><path d="M469.744 205.066l-22.946-4.59c-2.63-.527-5.194-.76-7.693-.778-3.194-10.448-7.307-20.668-12.322-30.55 2.005-1.937 3.867-4.15 5.54-6.66l12.974-19.47c12.99-19.488 10.072-48.98-6.487-65.54-16.56-16.563-46.05-19.483-65.542-6.49L353.8 83.965c-1.93 1.287-3.646 2.71-5.24 4.2-11.535-6.383-23.665-11.567-36.262-15.42-.028-2.452-.258-4.965-.773-7.543l-4.59-22.947C302.342 19.292 279.42.5 256 .5s-46.34 18.792-50.934 41.756l-4.59 22.947c-.517 2.578-.745 5.092-.772 7.543-11.627 3.556-22.87 8.215-33.6 13.93-1.134-.947-2.332-1.856-3.615-2.71l-19.47-12.98c-19.488-12.99-48.982-10.07-65.543 6.492-16.56 16.56-19.48 46.052-6.49 65.54l12.98 19.47c.873 1.307 1.802 2.523 2.77 3.675-5.723 10.798-10.322 22.034-13.838 33.535-2.5.02-5.066.25-7.696.777l-22.947 4.59C19.29 209.658.5 232.58.5 256s18.79 46.343 41.756 50.934l22.947 4.59c2.63.525 5.196.758 7.695.78 3.807 12.453 8.926 24.584 15.322 36.198-1.51 1.605-2.95 3.34-4.252 5.294l-12.98 19.47c-12.992 19.487-10.07 48.98 6.49 65.54 16.56 16.562 46.055 19.48 65.543 6.49l19.47-12.98c2.486-1.658 4.686-3.5 6.61-5.48 9.828 5.012 20.047 9.19 30.604 12.418.027 2.45.255 4.965.77 7.544l4.592 22.946C209.66 492.708 232.58 511.5 256 511.5s46.343-18.792 50.934-41.756l4.59-22.946c.517-2.58.746-5.09.774-7.544 11.615-3.552 22.852-8.205 33.572-13.914 2.225 2.55 4.836 4.915 7.93 6.978l19.467 12.98c19.49 12.99 48.983 10.07 65.542-6.492 16.56-16.56 19.478-46.052 6.486-65.538l-12.975-19.47c-2.078-3.12-4.465-5.748-7.04-7.985 5.715-10.787 10.31-22.015 13.824-33.51 2.5-.02 5.064-.253 7.693-.777l22.946-4.59C492.713 302.342 511.5 279.42 511.5 256s-18.788-46.343-41.756-50.934zM256.002 362.458c-28.438 0-55.175-11.074-75.28-31.176-41.508-41.51-41.508-109.05-.002-150.56 20.108-20.106 46.844-31.18 75.282-31.18 28.434 0 55.17 11.073 75.275 31.18 41.51 41.51 41.51 109.05 0 150.56-20.1 20.102-46.837 31.176-75.275 31.176z"/></g></svg>