<svg xmlns="http://www.w3.org/2000/svg" width="512" height="512" viewBox="0 0 512 512"><g fill="#1e4072"><path d="M256 52.944c111.963 0 203.056 91.087 203.056 203.056 0 111.968-91.093 203.056-203.056 203.056-111.963 0-203.056-91.088-203.056-203.056 0-111.968 91.093-203.056 203.056-203.056m0-50.763C115.82 2.18 2.18 115.82 2.18 256S115.82 509.82 256 509.82 509.82 396.18 509.82 256 396.18 2.18 256 2.18zm25.382 380.73h25.382v-25.383h-25.382v-152.29h-76.146v25.38h25.382v126.91h-25.382v25.383h76.146zm0-253.82h-50.764v50.764h50.764V129.09z"/></g></svg>