<svg xmlns="http://www.w3.org/2000/svg" width="512" height="512" viewBox="0 0 512 512"><g><path fill-rule="evenodd" clip-rule="evenodd" d="M501.28 286.66v81.76c0 78.894-64.187 143.08-143.08 143.08H153.8c-78.894 0-143.08-64.187-143.08-143.08v-81.76c0-22.484 18.396-40.88 40.88-40.88s40.88 18.396 40.88 40.88v81.76c0 33.727 27.595 61.32 61.32 61.32h204.4c33.726 0 61.32-27.594 61.32-61.32v-81.76c0-22.484 18.395-40.88 40.88-40.88 22.484 0 40.88 18.396 40.88 40.88zm-274.187-39.127c15.898 15.9 41.914 15.9 57.814 0l126.146-126.145c15.9-15.9 10.512-28.908-11.973-28.908h-51.1v-51.1C347.98 18.896 329.584.5 307.1.5H204.9c-22.484 0-40.88 18.396-40.88 40.88v51.1h-51.1c-22.485 0-27.873 13.007-11.974 28.908l126.147 126.145z"/></g></svg>