<svg xmlns="http://www.w3.org/2000/svg" width="512" height="512" viewBox="0 0 512 512"><g><path d="M509.328 414.14c-1.347 13.797-10.865 16.672-21.144 6.394l-51.552-51.552c-10.282-10.282-28.852-14.183-41.262-8.67l-3.388 1.502c-12.41 5.516-26.766 20.334-31.896 32.926l-1.11 2.734c-5.132 12.6-.922 31.313 9.364 41.597l50.788 50.793c10.282 10.282 7.407 19.8-6.387 21.15 0 0-69.464 6.784-106.54-30.297-34.536-34.528-42.79-85.585-25.154-129.14l-121.302-121.3c-43.063 16.473-92.975 7.93-126.922-26.018-36.93-36.927-30.15-106.4-30.15-106.4 1.34-13.8 10.86-16.672 21.14-6.396l51.553 51.554c10.282 10.283 28.85 14.185 41.26 8.67l3.387-1.503c12.412-5.515 26.766-20.33 31.898-32.927l1.11-2.73c5.13-12.6.92-31.317-9.362-41.6l-50.79-50.79C82.584 11.854 85.46 2.336 99.255.986c0 0 69.465-6.785 106.544 30.294 33.947 33.947 42.49 83.862 26.018 126.922l122.66 122.662c42.546-15.343 91.34-6.49 124.7 26.873 36.93 36.933 30.15 106.402 30.15 106.402z"/></g></svg>