<svg xmlns="http://www.w3.org/2000/svg" width="512" height="512" viewBox="0 0 512 512"><g fill="#fff"><path d="M349.993 142.216L100.45 391.756l-19.975-19.98L330.01 122.242l-18.937-18.937-275.97 275.968L2.046 511.5l132.23-33.06L410.25 202.473l-60.257-60.256zM59.07 482.02L31.8 454.754l15.7-62.81 74.38 74.38-62.81 15.698zM497.9 114.818l-29.213 29.22-14.612 14.608-29.22 29.22-29.218-29.22-43.826-43.83-29.222-29.218 29.223-29.22L366.42 41.77l29.22-29.22c16.07-16.07 42.366-16.07 58.437 0L497.9 56.378c16.073 16.073 16.073 42.37 0 58.44z"/></g></svg>