<svg xmlns="http://www.w3.org/2000/svg" width="512" height="512" viewBox="0 0 512 512"><g fill="#f00"><path d="M492.498 370.7L312.218 89.85c-30.915-48.163-81.516-48.163-112.44 0L19.5 370.7c-30.915 48.16-23.288 87.57 16.967 87.57H475.54c40.246 0 47.88-39.41 16.958-87.57zm-213.25 24.863c-5.93 6.324-12.974 9.48-21.133 9.48-9.382 0-17.358-3.156-23.954-9.48-6.595-6.318-9.896-13.732-9.896-22.254 0-8.788 3.227-16.276 9.673-22.456 6.446-6.184 14.497-9.273 24.178-9.273 8.16 0 15.203 3.16 21.134 9.478 5.93 6.326 8.89 13.74 8.89 22.252 0 8.52-2.96 15.934-8.89 22.253zm5.848-154.915c-2.02 30.915-3.036 52.647-3.036 65.227 0 9.027-8.68 13.66-25.858 14.002-17.18-.342-25.858-4.975-25.858-14.002 0-12.58-1.015-34.313-3.036-65.227-2.03-30.906-3.044-52.755-3.044-65.547 0-5.962 3.177-10.71 9.523-14.225 5.905-3.273 13.424-4.96 22.415-5.186 8.992.224 16.51 1.912 22.416 5.185 6.346 3.514 9.522 8.263 9.522 14.226 0 12.793-1.015 34.642-3.044 65.548z"/></g></svg>