<svg xmlns="http://www.w3.org/2000/svg" xmlns:xlink="http://www.w3.org/1999/xlink" width="366" height="87" viewBox="0 0 366 87"><defs><path id="a" d="M0 0h366v87H0z"/></defs><clipPath id="b"><use xlink:href="#a" overflow="visible"/></clipPath><path clip-path="url(#b)" fill="#00AEEF" d="M13.45 18.676c1.738 1.238 2.14 3.648.902 5.386-1.243 1.735-3.657 2.14-5.39.903-1.74-1.246-2.142-3.656-.9-5.395 1.24-1.734 3.653-2.14 5.387-.894M23.72 26.03c1.733 1.24 2.135 3.654.893 5.392-1.238 1.738-3.652 2.137-5.386.898-1.74-1.242-2.145-3.656-.9-5.386 1.24-1.74 3.653-2.14 5.392-.903M33.98 33.387c1.74 1.246 2.14 3.652.9 5.394-1.24 1.74-3.653 2.142-5.388.9-1.738-1.24-2.144-3.656-.898-5.39 1.238-1.735 3.652-2.14 5.386-.903M74.086 71.23c-1.738-1.246-2.14-3.652-.902-5.39 1.246-1.74 3.656-2.142 5.394-.902 1.738 1.233 2.14 3.65.895 5.39-1.235 1.735-3.653 2.14-5.387.903M63.863 63.898c-1.734-1.238-2.136-3.652-.898-5.39 1.238-1.734 3.652-2.142 5.39-.902 1.735 1.245 2.14 3.66.9 5.39-1.24 1.742-3.65 2.145-5.392.902"/><defs><path id="c" d="M0 .03h365.916V87H0z"/></defs><clipPath id="d"><use xlink:href="#c" overflow="visible"/></clipPath><path clip-path="url(#d)" fill="#00AEEF" d="M53.644 56.574c-1.738-1.242-2.144-3.656-.898-5.395 1.234-1.74 3.648-2.138 5.383-.9 1.737 1.244 2.143 3.653.9 5.392-1.237 1.738-3.65 2.137-5.386.902M27.93 81.957c.652-2.03 2.828-3.148 4.86-2.5 2.03.652 3.15 2.828 2.495 4.856-.648 2.038-2.824 3.155-4.855 2.5-2.035-.653-3.153-2.825-2.5-4.856"/><defs><path id="e" d="M0 0h366v87H0z"/></defs><clipPath id="f"><use xlink:href="#e" overflow="visible"/></clipPath><path clip-path="url(#f)" fill="#00AEEF" d="M31.805 69.937c.656-2.03 2.828-3.147 4.86-2.498 2.034.65 3.15 2.826 2.503 4.853-.652 2.035-2.828 3.148-4.86 2.504-2.035-.652-3.152-2.836-2.503-4.86M35.684 57.918c.652-2.03 2.828-3.152 4.863-2.504 2.027.656 3.144 2.828 2.496 4.863-.65 2.03-2.824 3.148-4.856 2.5-2.035-.648-3.156-2.832-2.503-4.86M59.492 8.18c-.652 2.04-2.828 3.156-4.86 2.508-2.03-.653-3.148-2.83-2.5-4.864.653-2.03 2.83-3.148 4.856-2.5 2.03.657 3.156 2.828 2.504 4.856M55.63 20.152c-.653 2.035-2.83 3.153-4.857 2.5-2.035-.648-3.148-2.824-2.5-4.86.65-2.034 2.825-3.15 4.856-2.495 2.03.648 3.155 2.824 2.5 4.855M51.77 32.125c-.657 2.03-2.83 3.152-4.86 2.5-2.035-.652-3.152-2.828-2.504-4.855.653-2.036 2.828-3.157 4.86-2.504 2.03.652 3.152 2.828 2.503 4.86M83.734 49.047c-2.136-.004-3.855-1.742-3.847-3.88.007-2.132 1.746-3.854 3.88-3.847 2.127.012 3.854 1.746 3.846 3.88-.004 2.136-1.742 3.86-3.88 3.847M71.11 48.977c-2.137-.004-3.86-1.742-3.852-3.87.008-2.137 1.742-3.864 3.875-3.853 2.136.004 3.863 1.742 3.85 3.875-.006 2.136-1.745 3.858-3.874 3.847"/><defs><path id="g" d="M0 .03h365.916V87H0z"/></defs><clipPath id="h"><use xlink:href="#g" overflow="visible"/></clipPath><path clip-path="url(#h)" fill="#00AEEF" d="M58.477 48.91c-2.133-.008-3.864-1.742-3.848-3.875.003-2.136 1.74-3.86 3.874-3.85 2.133.006 3.86 1.74 3.848 3.874-.008 2.135-1.74 3.854-3.875 3.85M3.88 41.223c2.136.01 3.854 1.746 3.847 3.882-.008 2.13-1.743 3.855-3.88 3.844C1.716 48.94-.007 47.206 0 45.073c.004-2.133 1.742-3.855 3.88-3.85"/><defs><path id="i" d="M0 0h366v87H0z"/></defs><clipPath id="j"><use xlink:href="#i" overflow="visible"/></clipPath><path clip-path="url(#j)" fill="#00AEEF" d="M16.457 41.293c2.133.008 3.855 1.746 3.848 3.883-.008 2.13-1.742 3.855-3.88 3.848-2.128-.012-3.855-1.746-3.847-3.874.004-2.138 1.742-3.86 3.88-3.857M29.03 41.363c2.138.008 3.86 1.743 3.853 3.883-.008 2.13-1.742 3.855-3.88 3.848-2.132-.012-3.86-1.746-3.847-3.88.004-2.136 1.746-3.86 3.875-3.85M34.297 6.02c.7 2.02-.37 4.218-2.387 4.917-2.015.7-4.22-.37-4.914-2.39-.695-2.016.37-4.22 2.387-4.914 2.015-.695 4.215.37 4.914 2.387M38.402 17.965c.7 2.02-.37 4.222-2.386 4.918-2.016.7-4.22-.37-4.918-2.39-.696-2.02.375-4.22 2.39-4.915 2.02-.7 4.22.37 4.914 2.387"/><defs><path id="k" d="M0 .03h365.916V87H0z"/></defs><clipPath id="l"><use xlink:href="#k" overflow="visible"/></clipPath><path clip-path="url(#l)" fill="#00AEEF" d="M42.508 29.914c.7 2.016-.375 4.215-2.387 4.914-2.015.696-4.222-.375-4.917-2.39-.695-2.02.375-4.22 2.39-4.914 2.016-.7 4.216.37 4.915 2.39M53.28 83.988c-.694-2.012.372-4.22 2.388-4.914s4.215.375 4.914 2.39c.703 2.013-.375 4.216-2.387 4.915-2.015.694-4.218-.376-4.914-2.392"/><defs><path id="m" d="M0 0h366v87H0z"/></defs><clipPath id="n"><use xlink:href="#m" overflow="visible"/></clipPath><path clip-path="url(#n)" fill="#00AEEF" d="M49.19 72.09c-.694-2.012.376-4.22 2.392-4.914s4.215.38 4.918 2.39c.69 2.017-.38 4.22-2.395 4.92-2.02.694-4.214-.38-4.914-2.396M45.102 60.19c-.696-2.01.375-4.21 2.39-4.91 2.02-.694 4.22.372 4.914 2.392.7 2.017-.37 4.22-2.387 4.914-2.016.7-4.223-.37-4.918-2.395M8.957 65.184c1.738-1.234 4.152-.82 5.387.923 1.23 1.737.82 4.15-.922 5.386-1.742 1.23-4.152.82-5.387-.918-1.23-1.747-.82-4.153.922-5.39M19.277 57.902c1.74-1.234 4.153-.816 5.383.918 1.238 1.746.82 4.152-.918 5.387-1.738 1.234-4.152.828-5.387-.922-1.234-1.738-.82-4.148.922-5.383M29.598 50.63c1.738-1.24 4.152-.83 5.386.91 1.23 1.74.817 4.155-.918 5.39-1.746 1.23-4.156.824-5.386-.918-1.235-1.746-.828-4.153.918-5.383M78.5 25.156c-1.738 1.23-4.152.82-5.387-.922-1.234-1.742-.824-4.152.914-5.386 1.742-1.235 4.157-.825 5.39.918 1.23 1.734.82 4.156-.917 5.39M68.223 32.402c-1.746 1.235-4.157.825-5.387-.918-1.234-1.738-.824-4.152.918-5.386 1.738-1.23 4.152-.82 5.387.922 1.235 1.742.82 4.152-.917 5.382M57.945 39.656c-1.742 1.235-4.156.825-5.386-.918-1.24-1.742-.822-4.152.917-5.39 1.742-1.235 4.152-.817 5.386.922 1.235 1.738.82 4.156-.918 5.386M40.906 48.97c-2.254-1.61-2.777-4.75-1.164-7.005 1.61-2.262 4.746-2.785 7.008-1.172 2.254 1.613 2.777 4.746 1.168 7.008-1.617 2.255-4.75 2.782-7.012 1.17"/><path clip-path="url(#n)" d="M106.49 33.566h.21c1.55-3.868 4.785-6.33 9.005-6.33 1.83 0 3.658.633 5.205 1.618l-2.884 5.768c-1.125-.985-2.39-1.337-3.87-1.337-6.822 0-7.666 6.33-7.666 11.676v16.18h-6.33V28.22h6.33v5.346"/><path clip-path="url(#n)" d="M126.186 45.735c.07 5.627 3.87 10.902 9.918 10.902 4.854 0 7.456-2.462 9.848-6.4l5.346 3.023c-3.095 5.7-8.863 9.004-15.264 9.004-10.06 0-16.18-7.596-16.18-17.304 0-10.128 5.418-17.725 16.04-17.725 10.48 0 15.404 7.738 15.404 17.514v.984h-25.112m18.78-4.782c-.773-4.924-4.008-8.23-9.073-8.23-4.923 0-8.58 3.517-9.355 8.23h18.43zM181.262 58.005h-.14c-2.37 2.372-6.542 4.26-11.185 4.26-10.13 0-15.756-8.37-15.756-17.796 0-9.005 5.98-17.234 15.476-17.234 4.924 0 9.234 2.087 11.466 4.47l.14 1V.087h6.33V61.14h-6.33v-3.135m.352-13.325c0-6.4-3.87-11.818-10.692-11.818-6.542 0-10.41 5.7-10.41 11.818 0 6.19 3.728 11.958 10.41 11.958 6.893 0 10.692-5.487 10.692-11.958zM343.622 58.005h-.14c-2.37 2.372-6.542 4.26-11.186 4.26-10.13 0-15.756-8.37-15.756-17.796 0-9.005 5.98-17.234 15.475-17.234 4.925 0 9.233 2.087 11.466 4.47l.142 1V.087h6.33V61.14h-6.33v-3.135m.352-13.325c0-6.4-3.87-11.818-10.69-11.818-6.543 0-10.41 5.7-10.41 11.818 0 6.19 3.727 11.958 10.41 11.958 6.89 0 10.69-5.487 10.69-11.958zM275.482 44.75c0 9.92-7.737 17.515-17.585 17.515s-17.584-7.596-17.584-17.515c0-9.917 7.736-17.514 17.584-17.514s17.585 7.597 17.585 17.514m-28.838 0c0 6.19 4.994 11.466 11.254 11.466s11.255-5.274 11.255-11.466c0-6.26-4.994-11.465-11.255-11.465-6.26 0-11.254 5.205-11.254 11.465zM313.466 44.75c0 9.92-7.737 17.515-17.585 17.515s-17.584-7.596-17.584-17.515c0-9.917 7.737-17.514 17.585-17.514s17.586 7.597 17.586 17.514m-28.84 0c0 6.19 4.995 11.466 11.255 11.466 6.262 0 11.256-5.274 11.256-11.466 0-6.26-4.994-11.465-11.255-11.465-6.26 0-11.254 5.205-11.254 11.465zM354.56 5.694c0-3.156 2.51-5.663 5.68-5.663s5.677 2.508 5.677 5.664c0 3.157-2.507 5.663-5.678 5.663-3.172 0-5.68-2.506-5.68-5.663m.922 0c0 2.666 2.162 4.742 4.756 4.742s4.756-2.076 4.756-4.742c0-2.68-2.162-4.74-4.756-4.74s-4.756 2.06-4.756 4.74zm7.35 3.228h-1.052l-1.628-2.94h-1.182v2.94h-.923v-6.37h2.68c1.153 0 2.19.346 2.19 1.686 0 1.254-.85 1.715-1.7 1.744l1.615 2.94zm-3.86-5.447V5.06h.978c.864 0 2.047.144 2.047-.72 0-.807-.678-.865-1.44-.865h-1.586zM233.183 28.553L226.4 53.94l-8.21-25.387h-4.87l-8.262 25.386-6.784-25.387h-7.035l9.424 32.587h7.456l7.644-22.43 7.595 22.43h7.434l9.425-32.587h-7.037"/></svg>