<svg xmlns="http://www.w3.org/2000/svg" width="93.5" height="87" viewBox="0 0 93.5 87"><path d="M42.94 46.828c-2.255-1.61-2.778-4.75-1.165-7.004 1.61-2.262 4.746-2.785 7.008-1.172 2.254 1.613 2.777 4.746 1.168 7.008-1.616 2.254-4.75 2.78-7.01 1.168M59.978 37.516c-1.742 1.235-4.156.825-5.386-.918-1.24-1.742-.82-4.152.918-5.39 1.742-1.235 4.152-.817 5.386.922 1.235 1.737.82 4.155-.918 5.386M70.256 30.26c-1.746 1.236-4.157.826-5.387-.917-1.235-1.738-.825-4.152.917-5.386 1.738-1.23 4.152-.82 5.387.922 1.234 1.742.82 4.15-.918 5.38M80.533 23.016c-1.738 1.23-4.152.82-5.387-.922-1.234-1.742-.824-4.152.914-5.386 1.742-1.235 4.157-.825 5.39.918 1.23 1.733.82 4.155-.917 5.39M31.63 48.488c1.74-1.238 4.153-.828 5.387.91 1.23 1.742.817 4.156-.918 5.39-1.747 1.23-4.157.825-5.387-.917-1.235-1.745-.828-4.15.918-5.382M21.31 55.762c1.74-1.234 4.153-.816 5.383.918 1.238 1.746.82 4.152-.918 5.387-1.738 1.234-4.152.828-5.387-.922-1.234-1.74-.82-4.15.922-5.383M10.99 63.043c1.738-1.233 4.152-.82 5.387.924 1.23 1.736.82 4.15-.922 5.386-1.742 1.23-4.152.82-5.387-.918-1.23-1.747-.82-4.154.922-5.392M47.135 58.05c-.696-2.01.375-4.21 2.39-4.91 2.02-.694 4.22.372 4.914 2.392.698 2.018-.372 4.22-2.388 4.914-2.015.7-4.222-.372-4.917-2.395M51.224 69.95c-.695-2.013.375-4.22 2.39-4.915 2.017-.693 4.216.38 4.92 2.39.69 2.018-.38 4.22-2.396 4.92-2.02.694-4.214-.38-4.914-2.396M55.314 81.848c-.695-2.012.37-4.22 2.387-4.914s4.216.375 4.915 2.39c.703 2.013-.375 4.216-2.387 4.915-2.015.694-4.218-.377-4.914-2.392M44.54 27.773c.7 2.016-.374 4.215-2.386 4.914-2.016.696-4.223-.375-4.918-2.39-.695-2.02.375-4.22 2.39-4.914 2.016-.7 4.216.37 4.915 2.39M40.435 15.824c.7 2.02-.37 4.222-2.386 4.918-2.017.7-4.22-.37-4.92-2.39-.695-2.02.376-4.22 2.39-4.915 2.02-.7 4.22.372 4.915 2.387M36.33 3.88c.7 2.018-.37 4.217-2.387 4.916-2.015.7-4.22-.37-4.914-2.39-.696-2.016.37-4.22 2.386-4.914 2.015-.695 4.215.37 4.914 2.387M31.064 39.222c2.137.008 3.86 1.743 3.852 3.883-.008 2.13-1.742 3.855-3.88 3.848-2.132-.012-3.86-1.746-3.847-3.88.003-2.135 1.745-3.86 3.874-3.85M18.49 39.152c2.133.008 3.855 1.746 3.848 3.883-.008 2.13-1.742 3.855-3.88 3.848-2.128-.012-3.855-1.746-3.847-3.873.005-2.138 1.743-3.862 3.88-3.858M5.912 39.083c2.137.01 3.855 1.746 3.848 3.882-.008 2.13-1.743 3.854-3.88 3.844-2.132-.01-3.855-1.743-3.847-3.876.004-2.134 1.742-3.856 3.88-3.85M60.51 46.77c-2.133-.008-3.864-1.742-3.848-3.875.004-2.136 1.742-3.86 3.875-3.85 2.133.006 3.86 1.74 3.848 3.874-.008 2.135-1.74 3.853-3.875 3.85M73.142 46.836c-2.136-.004-3.86-1.742-3.85-3.87.007-2.137 1.74-3.863 3.874-3.853 2.136.004 3.863 1.742 3.85 3.875-.006 2.137-1.745 3.86-3.874 3.848M85.767 46.906c-2.136-.004-3.855-1.742-3.847-3.88.007-2.132 1.746-3.854 3.88-3.847 2.127.01 3.854 1.745 3.846 3.878-.004 2.137-1.742 3.86-3.88 3.848M53.802 29.984c-.656 2.03-2.828 3.152-4.86 2.5-2.034-.652-3.15-2.828-2.503-4.855.652-2.037 2.827-3.158 4.86-2.505 2.03.652 3.15 2.828 2.502 4.86M57.662 18.01c-.652 2.036-2.828 3.154-4.856 2.5-2.035-.647-3.148-2.823-2.5-4.858.65-2.035 2.825-3.152 4.856-2.496 2.03.648 3.156 2.824 2.5 4.855M61.525 6.04c-.652 2.04-2.828 3.156-4.86 2.508-2.03-.653-3.148-2.83-2.5-4.864.653-2.03 2.83-3.148 4.856-2.5 2.032.656 3.157 2.827 2.505 4.856M37.717 55.777c.652-2.03 2.828-3.152 4.863-2.504 2.027.656 3.144 2.828 2.496 4.863-.65 2.03-2.824 3.147-4.856 2.5-2.035-.648-3.156-2.83-2.503-4.86M33.838 67.797c.656-2.03 2.828-3.147 4.86-2.498 2.034.65 3.15 2.825 2.503 4.853-.65 2.035-2.827 3.148-4.858 2.504-2.036-.653-3.153-2.837-2.504-4.86M29.963 79.816c.652-2.03 2.828-3.148 4.86-2.5 2.03.652 3.15 2.828 2.495 4.855-.648 2.04-2.824 3.156-4.855 2.5-2.035-.65-3.153-2.822-2.5-4.854M55.677 54.434c-1.738-1.242-2.144-3.656-.898-5.395 1.233-1.74 3.647-2.14 5.382-.9 1.738 1.243 2.144 3.653.902 5.392-1.238 1.738-3.652 2.136-5.387.902M65.896 61.758c-1.734-1.238-2.136-3.652-.898-5.392 1.238-1.733 3.652-2.14 5.39-.9 1.735 1.245 2.14 3.66.9 5.39-1.24 1.742-3.65 2.144-5.392.902M76.12 69.09c-1.74-1.246-2.142-3.652-.903-5.392 1.246-1.737 3.656-2.14 5.394-.9 1.74 1.232 2.142 3.65.896 5.39-1.235 1.734-3.653 2.14-5.387.902M36.013 31.247c1.74 1.246 2.14 3.652.9 5.394-1.24 1.74-3.653 2.142-5.388.9-1.738-1.24-2.144-3.656-.898-5.39 1.238-1.735 3.652-2.142 5.386-.903M25.752 23.89c1.734 1.24 2.136 3.654.894 5.392-1.238 1.738-3.652 2.137-5.386.898-1.74-1.242-2.145-3.656-.9-5.386 1.24-1.74 3.653-2.142 5.392-.903M15.482 16.535c1.74 1.238 2.14 3.648.903 5.386-1.243 1.736-3.657 2.142-5.39.904-1.74-1.246-2.142-3.656-.9-5.395 1.24-1.735 3.653-2.14 5.387-.895"/><path d="M81.144 79.196c0-3.155 2.508-5.663 5.68-5.663S92.5 76.04 92.5 79.196c0 3.157-2.506 5.663-5.677 5.663s-5.68-2.506-5.68-5.664m.922 0c0 2.666 2.162 4.742 4.756 4.742s4.757-2.076 4.757-4.742c0-2.68-2.162-4.74-4.756-4.74s-4.755 2.06-4.755 4.74zm7.35 3.228h-1.053l-1.627-2.94h-1.182v2.94h-.923v-6.37h2.682c1.15 0 2.19.347 2.19 1.687 0 1.255-.853 1.716-1.702 1.745l1.615 2.94zm-3.86-5.446v1.586h.978c.864 0 2.047.144 2.047-.722 0-.807-.68-.864-1.44-.864h-1.586z"/></svg>