<svg xmlns="http://www.w3.org/2000/svg" width="80.707" height="85.701" viewBox="0 0 80.707 85.701"><path d="M66.828 23.182c-2.21 0-4 1.79-4 4v50.52h-44.95V27.18c0-2.21-1.79-4-4-4s-4 1.79-4 4v54.52c0 2.208 1.792 4 4 4h52.95c2.21 0 4-1.792 4-4V27.18c0-2.21-1.79-4-4-4zM76.707 10.358h-23.81V2.5c0-1.38-1.12-2.5-2.5-2.5H30.31c-1.38 0-2.5 1.12-2.5 2.5v7.858H4c-2.21 0-4 1.79-4 4s1.79 4 4 4h72.707c2.21 0 4-1.79 4-4s-1.79-4-4-4zM32.81 5h15.086v5.358H32.81V5zM30.836 69.306V29.938c0-1.38-1.12-2.5-2.5-2.5s-2.5 1.12-2.5 2.5v39.37c0 1.38 1.12 2.5 2.5 2.5s2.5-1.12 2.5-2.502zM42.853 69.412v-39.37c0-1.38-1.12-2.5-2.5-2.5s-2.5 1.12-2.5 2.5v39.37c0 1.38 1.12 2.5 2.5 2.5s2.5-1.12 2.5-2.5zM54.727 69.517v-39.37c0-1.38-1.12-2.5-2.5-2.5s-2.5 1.12-2.5 2.5v39.37c0 1.38 1.12 2.5 2.5 2.5s2.5-1.12 2.5-2.5z"/></svg>