<svg xmlns="http://www.w3.org/2000/svg" width="512" height="512" viewBox="0 0 512 512"><g fill="#fff"><path d="M489.713 412.548l-243.028-243.03c17.658-46.153 8.5-99.647-27.884-136.03C179.063-6.252 104.617 1.023 104.617 1.023 89.83 2.467 86.75 12.668 97.766 23.686l54.44 54.438c11.02 11.02 15.532 31.083 10.033 44.584l-1.19 2.925c-5.503 13.497-20.887 29.38-34.186 35.29l-3.63 1.613c-13.302 5.908-33.202 1.726-44.22-9.294L23.76 97.992c-11.018-11.018-21.22-7.937-22.66 6.85 0 0-7.266 74.458 32.313 114.035 36.382 36.385 89.876 45.542 136.027 27.884l243.028 243.033c25.6 25.595 63.642 29.052 84.97 7.724 21.33-21.332 17.875-59.374-7.725-84.97zm-23.17 54.07c-8.535 8.53-22.365 8.53-30.9 0-8.53-8.535-8.53-22.365 0-30.9 8.535-8.533 22.365-8.533 30.9 0s8.533 22.365 0 30.9z"/></g></svg>