<?xml version="1.0" encoding="utf-8"?>
<!-- Generator: Adobe Illustrator 15.0.2, SVG Export Plug-In . SVG Version: 6.00 Build 0)  -->
<!DOCTYPE svg PUBLIC "-//W3C//DTD SVG 1.1//EN" "http://www.w3.org/Graphics/SVG/1.1/DTD/svg11.dtd">
<svg version="1.1" xmlns="http://www.w3.org/2000/svg" xmlns:xlink="http://www.w3.org/1999/xlink" x="0px" y="0px" width="2678px"
	 height="1279.852px" viewBox="0 0 2678 1279.852" enable-background="new 0 0 2678 1279.852" xml:space="preserve">
<g id="Layer_1">
	
		<image display="none" overflow="visible" width="2456" height="992" xlink:href="2-channels.png"  transform="matrix(0.9999 0 0 0.9999 155.0723 184.627)">
	</image>
	<path fill="#CCCCCC" d="M2453.938,555.678h-101.932V290.817c0-13.876,11.249-25.125,25.125-25.125h51.682
		c13.876,0,25.125,11.249,25.125,25.125V555.678z"/>
	<path fill="#CCCCCC" d="M2509.924,600.192h-213.902v-19.381c0-13.876,11.249-25.125,25.125-25.125h163.652
		c13.876,0,25.125,11.249,25.125,25.125V600.192z"/>
	<polygon fill="#4D4D4D" points="2426.995,352.689 2378.949,352.689 2378.949,320.917 2391.751,309.621 2414.001,309.621 
		2426.995,321.457 	"/>
	<polygon fill="#4D4D4D" points="2426.995,432.221 2378.949,432.221 2378.949,400.449 2391.751,389.152 2414.001,389.152 
		2426.995,400.988 	"/>
	<path fill="#CCCCCC" d="M2453.937,1080.179h-101.932v-264.86c0-13.877,11.249-25.126,25.126-25.126h51.68
		c13.877,0,25.126,11.249,25.126,25.126V1080.179z"/>
	<path fill="#CCCCCC" d="M2509.923,1124.692h-213.902v-19.381c0-13.876,11.249-25.125,25.125-25.125h163.652
		c13.876,0,25.125,11.249,25.125,25.125V1124.692z"/>
	<polygon fill="#4D4D4D" points="2426.994,877.19 2378.948,877.19 2378.948,845.418 2391.75,834.122 2414,834.122 2426.994,845.958 
			"/>
	<polygon fill="#4D4D4D" points="2426.994,956.722 2378.948,956.722 2378.948,924.95 2391.75,913.653 2414,913.653 
		2426.994,925.489 	"/>
	<g>
		<path d="M2076.716,618.367l28.799-13.38v6.36l-21.778,9.539v0.12l21.778,9.541v6.359l-28.799-13.38V618.367z"/>
		<path d="M2149.674,611.407h-15.119l-0.84,6c0.84-0.12,1.56-0.12,2.52-0.12c3.72,0,7.5,0.84,10.26,2.82
			c2.94,1.979,4.74,5.22,4.74,9.78c0,7.26-6.24,13.679-16.739,13.679c-4.74,0-8.7-1.08-10.86-2.219l1.62-6.841
			c1.74,0.84,5.28,1.92,8.82,1.92c3.779,0,7.799-1.799,7.799-5.939c0-4.02-3.18-6.48-10.979-6.48c-2.159,0-3.659,0.12-5.279,0.36
			l2.58-20.459h21.479V611.407z"/>
		<path d="M2158.075,622.926c0-3.659-0.12-6.779-0.24-9.359h7.68l0.42,3.96h0.18c1.26-1.86,3.84-4.62,8.88-4.62
			c3.78,0,6.78,1.92,8.04,4.98h0.12c1.079-1.5,2.399-2.7,3.779-3.54c1.62-0.96,3.42-1.44,5.58-1.44c5.64,0,9.899,3.96,9.899,12.72
			v17.279h-8.88v-15.958c0-4.26-1.38-6.72-4.319-6.72c-2.101,0-3.6,1.439-4.2,3.18c-0.24,0.66-0.36,1.62-0.36,2.34v17.159h-8.879
			v-16.439c0-3.72-1.32-6.239-4.2-6.239c-2.34,0-3.72,1.8-4.26,3.3c-0.3,0.72-0.36,1.56-0.36,2.279v17.099h-8.879V622.926z"/>
	</g>
	<line fill="none" stroke="#000000" stroke-width="7" x1="2076.716" y1="644.999" x2="2105.515" y2="644.999"/>
	<g>
		<path d="M1202.687,676.246l28.799-13.38v6.36l-21.778,9.539v0.12l21.778,9.54v6.359l-28.799-13.38V676.246z"/>
		<path d="M1275.645,669.286h-15.119l-0.84,6c0.84-0.12,1.56-0.12,2.52-0.12c3.72,0,7.5,0.84,10.26,2.82
			c2.94,1.979,4.74,5.22,4.74,9.779c0,7.26-6.24,13.68-16.739,13.68c-4.74,0-8.7-1.08-10.86-2.219l1.62-6.842
			c1.74,0.84,5.28,1.92,8.82,1.92c3.779,0,7.799-1.799,7.799-5.939c0-4.02-3.18-6.479-10.979-6.479c-2.159,0-3.659,0.12-5.279,0.36
			l2.58-20.459h21.479V669.286z"/>
		<path d="M1284.046,680.806c0-3.659-0.12-6.779-0.24-9.359h7.68l0.42,3.96h0.18c1.26-1.86,3.84-4.62,8.88-4.62
			c3.78,0,6.78,1.92,8.04,4.98h0.12c1.079-1.5,2.399-2.7,3.779-3.54c1.62-0.96,3.42-1.44,5.58-1.44c5.64,0,9.899,3.96,9.899,12.72
			v17.279h-8.88v-15.959c0-4.26-1.38-6.72-4.319-6.72c-2.101,0-3.6,1.439-4.2,3.18c-0.24,0.66-0.36,1.62-0.36,2.34v17.159h-8.879
			v-16.439c0-3.72-1.32-6.239-4.2-6.239c-2.34,0-3.72,1.8-4.26,3.3c-0.3,0.72-0.36,1.56-0.36,2.279v17.1h-8.879V680.806z"/>
	</g>
	<line fill="none" stroke="#000000" stroke-width="7" x1="1202.687" y1="702.879" x2="1231.486" y2="702.879"/>
	<g>
		<path d="M1398.986,280.15l28.799-13.38v6.36l-21.778,9.539v0.12l21.778,9.541v6.359l-28.799-13.38V280.15z"/>
		<text transform="matrix(1 0 0 1 1439 302)" font-family="'MyriadPro-Bold'" font-size="60">90m</text>
	</g>
	<line fill="none" stroke="#000000" stroke-width="7" x1="1398.986" y1="306.783" x2="1427.785" y2="306.783"/>
</g>
<g id="Connector">
	<g>
		<g>
			<g enable-background="new    ">
				<g>
					<polygon fill="#B6B6B6" points="1700.718,608.189 1700.371,650.08 1650.478,657.207 1650.825,615.315 					"/>
				</g>
				<g>
					<polygon fill="#6E6E6E" points="1650.478,657.207 1606.057,641.844 1606.403,599.952 1650.825,615.315 					"/>
				</g>
				<g>
					<polygon fill="#8A8A8A" points="1650.825,615.315 1606.403,599.952 1656.296,592.826 1700.718,608.189 					"/>
				</g>
			</g>
		</g>
	</g>
	<g>
		<g>
			<g enable-background="new    ">
				<g>
					<polygon fill="#B6B6B6" points="1794.329,531.76 1792.65,734.562 1692.857,748.815 1694.536,546.013 					"/>
				</g>
				<g>
					<polygon fill="#6E6E6E" points="1692.857,748.815 1648.436,733.453 1650.114,530.65 1694.536,546.013 					"/>
				</g>
				<g>
					<polygon fill="#8A8A8A" points="1694.536,546.013 1650.114,530.65 1749.907,516.397 1794.329,531.76 					"/>
				</g>
			</g>
		</g>
	</g>
	<polygon fill="#4D4D4D" points="1769.668,601.411 1721.383,609.272 1721.743,577.598 1734.736,564.24 1757.097,560.6 
		1770.021,570.274 	"/>
	<polygon fill="#4D4D4D" points="1721.736,654.381 1770.021,646.52 1769.661,678.193 1756.668,691.551 1734.308,695.191 
		1721.383,685.518 	"/>
</g>
<g id="Engine">
	<polygon id="Body_2_" fill="#333333" points="1282.393,1015.513 281.481,1192 281.481,925.048 1282.393,748.56 	"/>
	<polygon fill="#666666" points="1252.898,991.722 311.845,1157.655 311.845,943.308 1252.898,777.374 	"/>
	<polygon fill="#CCCCCC" points="1137.688,987.603 433.302,1111.806 433.302,955.991 1137.688,831.788 	"/>
	<polygon fill="#4D4D4D" points="507.394,1014.271 450.945,1024.224 450.945,986.892 465.979,970.966 492.133,966.354 
		507.394,977.571 	"/>
	<polygon fill="#C69C6D" points="395.347,1118.497 342.209,1127.867 342.209,972.053 395.347,962.683 	"/>
	<polygon fill="#C69C6D" points="1229.256,971.456 1176.118,980.826 1176.118,825.012 1229.256,815.642 	"/>
	<polygon fill="#4D4D4D" points="582.603,1001.009 526.154,1010.963 526.154,973.63 541.188,957.704 567.331,953.095 
		582.603,964.31 	"/>
	<polygon fill="#4D4D4D" points="657.812,987.748 601.373,997.7 601.373,960.366 616.396,944.443 642.55,939.831 657.812,951.048 	
		"/>
	<polygon fill="#4D4D4D" points="733.03,974.485 676.571,984.44 676.571,947.106 691.615,931.181 717.759,926.57 733.03,937.784 	
		"/>
	<polygon fill="#4D4D4D" points="808.229,961.226 751.79,971.177 751.79,933.845 766.814,917.921 792.968,913.31 808.229,924.525 	
		"/>
	<polygon fill="#4D4D4D" points="883.447,947.962 826.999,957.915 826.999,920.583 842.033,904.657 868.187,900.046 
		883.447,911.263 	"/>
	<polygon fill="#4D4D4D" points="958.656,934.701 902.208,944.654 902.208,907.321 917.241,891.396 943.385,886.786 
		958.656,898.001 	"/>
	<polygon fill="#4D4D4D" points="1033.865,921.44 977.427,931.392 977.427,894.058 992.45,878.135 1018.604,873.523 
		1033.865,884.739 	"/>
	<polygon fill="#4D4D4D" points="1109.084,908.177 1052.625,918.132 1052.625,880.799 1067.669,864.872 1093.812,860.262 
		1109.084,871.476 	"/>
	<polygon fill="#4D4D4D" points="507.394,1026.28 450.945,1036.233 450.945,1073.565 465.979,1084.189 492.133,1079.577 
		507.394,1062.979 	"/>
	<polygon fill="#4D4D4D" points="582.603,1013.019 526.154,1022.972 526.154,1060.305 541.188,1070.929 567.331,1066.318 
		582.603,1049.718 	"/>
	<polygon fill="#4D4D4D" points="657.812,999.757 601.373,1009.708 601.373,1047.042 616.396,1057.667 642.55,1053.056 
		657.812,1036.457 	"/>
	<polygon fill="#4D4D4D" points="733.03,986.493 676.571,996.448 676.571,1033.782 691.615,1044.403 717.759,1039.794 
		733.03,1023.194 	"/>
	<polygon fill="#4D4D4D" points="808.229,973.234 751.79,983.187 751.79,1020.519 766.814,1031.144 792.968,1026.532 
		808.229,1009.935 	"/>
	<polygon fill="#4D4D4D" points="883.447,959.972 826.999,969.925 826.999,1007.257 842.033,1017.881 868.187,1013.27 
		883.447,996.671 	"/>
	<polygon fill="#4D4D4D" points="958.656,946.71 902.208,956.663 902.208,993.996 917.241,1004.62 943.385,1000.011 958.656,983.41 
			"/>
	<polygon fill="#4D4D4D" points="1033.865,933.448 977.427,943.399 977.427,980.733 992.45,991.358 1018.604,986.747 
		1033.865,970.149 	"/>
	<polygon fill="#4D4D4D" points="1109.084,920.185 1052.625,930.141 1052.625,967.474 1067.669,978.095 1093.812,973.485 
		1109.084,956.886 	"/>
</g>
<g id="Layer_7" display="none">
	<rect id="Body_1_" x="218.778" y="420.476" display="inline" fill="#333333" width="753.084" height="133.476"/>
	<rect x="243.615" y="439.188" display="inline" fill="#8CC63F" width="704.387" height="89.324"/>
	<polygon display="inline" fill="#4D4D4D" points="317.707,510.533 261.258,510.533 261.258,473.2 276.292,459.926 302.446,459.926 
		317.707,473.833 	"/>
	<polygon display="inline" fill="#4D4D4D" points="392.916,510.533 336.467,510.533 336.467,473.2 351.5,459.926 377.644,459.926 
		392.916,473.833 	"/>
	<polygon display="inline" fill="#4D4D4D" points="468.125,510.533 411.686,510.533 411.686,473.2 426.709,459.926 452.863,459.926 
		468.125,473.833 	"/>
	<polygon display="inline" fill="#4D4D4D" points="543.343,510.533 486.884,510.533 486.884,473.2 501.928,459.926 528.072,459.926 
		543.343,473.833 	"/>
	<polygon display="inline" fill="#4D4D4D" points="618.542,510.533 562.103,510.533 562.103,473.2 577.127,459.926 603.281,459.926 
		618.542,473.833 	"/>
	<polygon display="inline" fill="#4D4D4D" points="693.76,510.533 637.312,510.533 637.312,473.2 652.346,459.926 678.5,459.926 
		693.76,473.833 	"/>
	<polygon display="inline" fill="#4D4D4D" points="768.969,510.533 712.521,510.533 712.521,473.2 727.554,459.926 753.698,459.926 
		768.969,473.833 	"/>
	<polygon display="inline" fill="#4D4D4D" points="844.178,510.533 787.74,510.533 787.74,473.2 802.763,459.926 828.917,459.926 
		844.178,473.833 	"/>
	<polygon display="inline" fill="#4D4D4D" points="919.397,510.533 862.938,510.533 862.938,473.2 877.982,459.926 904.125,459.926 
		919.397,473.833 	"/>
</g>
<g id="Layer_9">
	<path fill="#C1272D" d="M1359.297,538c-2.417-0.615-0.739-353.451-0.739-353.451c0.019-5.455-2.079-10.693-5.831-14.557
		s-8.849-6.036-14.162-6.036H741.54c-11.024,0-19.969,9.159-19.995,20.475L721.187,402h23.136l-0.124-207.56
		c0-3.79,2.994-6.863,6.687-6.863h577.459c3.693,0,6.687,3.073,6.687,6.863V534.25c0,9.581,3.119,16.626,12.222,18.75
		l215.208,72.806c7.865,1.347,15.075-12.764,6.845-18.159L1359.297,538z"/>
	<g>
		<g>
			<g enable-background="new    ">
				<g>
					<polygon fill="#B6B6B6" points="1589.711,584.613 1589.364,626.504 1539.471,633.631 1539.817,591.738 					"/>
				</g>
				<g>
					<polygon fill="#6E6E6E" points="1539.471,633.631 1495.049,618.267 1495.396,576.376 1539.817,591.738 					"/>
				</g>
				<g>
					<polygon fill="#8A8A8A" points="1539.817,591.738 1495.396,576.376 1545.289,569.25 1589.711,584.613 					"/>
				</g>
			</g>
		</g>
	</g>
	<polygon fill="#4D4D4D" points="1581.065,621.105 1547.049,626.643 1547.303,604.33 1556.456,594.919 1572.209,592.354 
		1581.314,599.169 	"/>
</g>
<g id="Layer_7_copy">
	<polygon id="Body_3_" fill="#333333" points="1125.862,457.557 372.778,590.346 372.778,456.87 1125.862,324.081 	"/>
	<polygon fill="#B3B3B3" points="1102.001,436.326 397.615,560.528 397.615,471.204 1102.001,347.001 	"/>
	<polygon fill="#4D4D4D" points="471.707,529.484 415.258,539.438 415.258,502.104 430.292,486.179 456.446,481.567 
		471.707,492.784 	"/>
	<polygon fill="#4D4D4D" points="546.916,516.223 490.467,526.176 490.467,488.843 505.5,472.918 531.644,468.308 546.916,479.522 	
		"/>
	<polygon fill="#4D4D4D" points="622.125,502.961 565.686,512.913 565.686,475.58 580.709,459.656 606.863,455.045 622.125,466.261 
			"/>
	<polygon fill="#4D4D4D" points="697.343,489.698 640.884,499.653 640.884,462.32 655.928,446.394 682.072,441.784 697.343,452.998 
			"/>
	<polygon fill="#4D4D4D" points="772.542,476.438 716.103,486.391 716.103,449.058 731.127,433.134 757.281,428.522 
		772.542,439.738 	"/>
	<polygon fill="#4D4D4D" points="847.76,463.176 791.312,473.129 791.312,435.796 806.346,419.871 832.5,415.259 847.76,426.476 	
		"/>
	<polygon fill="#4D4D4D" points="922.969,449.914 866.521,459.868 866.521,422.535 881.554,406.609 907.698,402 922.969,413.214 	
		"/>
	<polygon fill="#4D4D4D" points="998.178,436.653 941.74,446.604 941.74,409.271 956.763,393.348 982.917,388.736 998.178,399.953 	
		"/>
	<polygon fill="#4D4D4D" points="1073.397,423.39 1016.938,433.345 1016.938,396.012 1031.982,380.085 1058.125,375.475 
		1073.397,386.689 	"/>
</g>
<g id="Layer_8">
	<g>
		<g>
			<g enable-background="new    ">
				<g>
					<polygon fill="#B6B6B6" points="893.081,596.537 892.734,638.428 842.834,645.555 843.181,603.664 					"/>
				</g>
				<g>
					<polygon fill="#6E6E6E" points="842.834,645.555 798.412,630.191 798.759,588.3 843.181,603.664 					"/>
				</g>
				<g>
					<polygon fill="#8A8A8A" points="843.181,603.664 798.759,588.3 848.659,581.173 893.081,596.537 					"/>
				</g>
			</g>
		</g>
	</g>
	<g>
		<g>
			<g enable-background="new    ">
				<g>
					<polygon fill="#B6B6B6" points="986.689,520.101 985.011,722.904 885.225,737.156 886.903,534.353 					"/>
				</g>
				<g>
					<polygon fill="#6E6E6E" points="885.225,737.156 840.803,721.793 842.481,518.99 886.903,534.353 					"/>
				</g>
				<g>
					<polygon fill="#8A8A8A" points="886.903,534.353 842.481,518.99 942.268,504.738 986.689,520.101 					"/>
				</g>
			</g>
		</g>
	</g>
	<polygon fill="#4D4D4D" points="962.03,589.755 913.745,597.617 914.105,565.942 927.099,552.584 949.459,548.944 962.384,558.619 
			"/>
	<polygon fill="#4D4D4D" points="914.099,642.725 962.384,634.863 962.023,666.537 949.03,679.895 926.67,683.535 913.745,673.861 	
		"/>
</g>
<g id="Layer_6">
	<g>
		<path fill="#CCCCCC" d="M2334.314,310.368h-267.514c-16.91,0-30.619,12.665-30.619,28.287l0.001,201.4
			c0,15.622-13.71,28.287-30.62,28.287H1763.02c-10.082,5.438-8.462,17.579,0,23.067l253.275,0c24.773,0,44.857-18.553,44.857-41.44
			V346.13c0-7.011,6.152-12.695,13.742-12.695h259.42C2344.883,327.797,2344.162,314.991,2334.314,310.368z"/>
		<path fill="#0071BC" d="M2334.314,310.368h-267.514c-16.91,0-30.619,12.665-30.619,28.287l0.001,201.4
			c0,15.622-13.71,28.287-30.62,28.287H1763.02c-10.082,5.438-8.462,17.579,0,23.067l253.275,0c24.773,0,44.857-18.553,44.857-41.44
			V346.13c0-7.011,6.152-12.695,13.742-12.695h259.42C2344.883,327.797,2344.162,314.991,2334.314,310.368z"/>
	</g>
	<g>
		<path fill="#CCCCCC" d="M1763.71,660.165h267.514c16.91,0,30.619,12.664,30.619,28.287l-0.001,201.399
			c0,15.622,13.71,28.287,30.62,28.287h242.543c10.082,5.438,8.462,17.579,0,23.067l-253.275-0.001
			c-24.773,0-44.857-18.554-44.857-41.44V695.927c0-7.011-6.152-12.694-13.742-12.694h-259.42
			C1753.142,677.595,1753.862,664.788,1763.71,660.165z"/>
		<path fill="#00A99D" d="M1763.71,660.165h267.514c16.91,0,30.619,12.664,30.619,28.287l-0.001,201.399
			c0,15.622,13.71,28.287,30.62,28.287h242.543c10.082,5.438,8.462,17.579,0,23.067l-253.275-0.001
			c-24.773,0-44.857-18.554-44.857-41.44V695.927c0-7.011-6.152-12.694-13.742-12.694h-259.42
			C1753.142,677.595,1753.862,664.788,1763.71,660.165z"/>
	</g>
</g>
<g id="Layer_5">
	<path fill="#0071BC" d="M969.959,554.399c-7.074,9.487-6.144,15.324,0,25.96l188.607-0.516c10.86,0.468,9.215,17.254,9.215,30.214
		l1.529,312.139c1.439,19.009-2.811,20.303-11.311,20.303h-152.354c-5.627,8.414-4.776,13.366,0,21.545L1168.75,964
		c11.15,0,20.052-8.908,20.052-22.205V578.479c0-13.299-9.039-24.08-20.189-24.08H969.959z"/>
	<path fill="#00A99D" d="M942.99,646.904c-3.971,6.209-4.662,11.009,0,20.984h174.118c10.86,0.386,9.215,14.229,9.215,24.917
		l2,249.835c-0.5,10.599,3.301,24.374-14.324,24.874H944c-5.36,7.148-5.783,8.312-0.5,16.985h181.75
		c11.15,0,22.094-7.146,22.094-18.111V666.763c0-10.968-9.039-19.858-20.189-19.858H942.99z"/>
</g>
</svg>
