<?xml version="1.0" encoding="utf-8"?>
<!-- Generator: Adobe Illustrator 15.0.2, SVG Export Plug-In . SVG Version: 6.00 Build 0)  -->
<!DOCTYPE svg PUBLIC "-//W3C//DTD SVG 1.1//EN" "http://www.w3.org/Graphics/SVG/1.1/DTD/svg11.dtd">
<svg version="1.1" xmlns="http://www.w3.org/2000/svg" xmlns:xlink="http://www.w3.org/1999/xlink" x="0px" y="0px" width="585px"
	 height="122px" viewBox="0 0 585 122" enable-background="new 0 0 585 122" xml:space="preserve">
<g id="Text">
	<g>
		<path d="M393.08,85.816c0-1.426,0.383-2.542,1.148-3.349s1.754-1.21,2.965-1.21c0.793,0,1.508,0.189,2.145,0.568
			s1.122,0.907,1.456,1.585s0.501,1.446,0.501,2.306c0,0.871-0.176,1.65-0.527,2.338s-0.85,1.208-1.494,1.562s-1.34,0.53-2.086,0.53
			c-0.809,0-1.531-0.195-2.168-0.586s-1.119-0.924-1.447-1.6S393.08,86.57,393.08,85.816z M394.252,85.834
			c0,1.035,0.278,1.851,0.835,2.446s1.255,0.894,2.095,0.894c0.855,0,1.56-0.301,2.112-0.902s0.829-1.455,0.829-2.561
			c0-0.699-0.118-1.31-0.354-1.831s-0.582-0.926-1.037-1.213s-0.966-0.431-1.532-0.431c-0.805,0-1.497,0.276-2.077,0.829
			S394.252,84.541,394.252,85.834z"/>
		<path d="M406.703,90v-0.914c-0.484,0.703-1.143,1.055-1.975,1.055c-0.367,0-0.71-0.07-1.028-0.211s-0.555-0.317-0.709-0.53
			s-0.263-0.474-0.325-0.782c-0.043-0.207-0.064-0.535-0.064-0.984v-3.855h1.055v3.451c0,0.551,0.021,0.922,0.064,1.113
			c0.066,0.277,0.207,0.495,0.422,0.653s0.48,0.237,0.797,0.237s0.613-0.081,0.891-0.243s0.474-0.383,0.589-0.662
			s0.173-0.685,0.173-1.216v-3.334h1.055V90H406.703z"/>
		<path d="M411.602,89.057l0.152,0.932c-0.297,0.062-0.562,0.094-0.797,0.094c-0.383,0-0.68-0.061-0.891-0.182
			s-0.359-0.28-0.445-0.478s-0.129-0.612-0.129-1.245v-3.58h-0.773v-0.82h0.773v-1.541l1.049-0.633v2.174h1.061v0.82h-1.061v3.639
			c0,0.301,0.019,0.494,0.056,0.58s0.098,0.154,0.182,0.205s0.204,0.076,0.36,0.076C411.256,89.098,411.41,89.084,411.602,89.057z"
			/>
		<path d="M416.693,89.232c-0.391,0.332-0.767,0.566-1.128,0.703s-0.749,0.205-1.163,0.205c-0.684,0-1.209-0.167-1.576-0.501
			s-0.551-0.761-0.551-1.28c0-0.305,0.069-0.583,0.208-0.835s0.32-0.454,0.545-0.606s0.478-0.268,0.759-0.346
			c0.207-0.055,0.52-0.107,0.938-0.158c0.852-0.102,1.479-0.223,1.881-0.363c0.004-0.145,0.006-0.236,0.006-0.275
			c0-0.43-0.1-0.732-0.299-0.908c-0.27-0.238-0.67-0.357-1.201-0.357c-0.496,0-0.862,0.087-1.099,0.261s-0.411,0.481-0.524,0.923
			l-1.031-0.141c0.094-0.441,0.248-0.798,0.463-1.069s0.525-0.48,0.932-0.627s0.877-0.22,1.412-0.22
			c0.531,0,0.963,0.062,1.295,0.188s0.576,0.282,0.732,0.472s0.266,0.429,0.328,0.718c0.035,0.18,0.053,0.504,0.053,0.973v1.406
			c0,0.98,0.022,1.601,0.067,1.86s0.134,0.509,0.267,0.747h-1.102C416.795,89.781,416.725,89.525,416.693,89.232z M416.605,86.877
			c-0.383,0.156-0.957,0.289-1.723,0.398c-0.434,0.062-0.74,0.133-0.92,0.211s-0.318,0.192-0.416,0.343s-0.146,0.317-0.146,0.501
			c0,0.281,0.106,0.516,0.319,0.703s0.524,0.281,0.935,0.281c0.406,0,0.768-0.089,1.084-0.267s0.549-0.421,0.697-0.729
			c0.113-0.238,0.17-0.59,0.17-1.055V86.877z"/>
		<path d="M419.113,90.516l1.025,0.152c0.043,0.316,0.162,0.547,0.357,0.691c0.262,0.195,0.619,0.293,1.072,0.293
			c0.488,0,0.865-0.098,1.131-0.293s0.445-0.469,0.539-0.82c0.055-0.215,0.08-0.666,0.076-1.354
			c-0.461,0.543-1.035,0.814-1.723,0.814c-0.855,0-1.518-0.309-1.986-0.926s-0.703-1.357-0.703-2.221
			c0-0.594,0.107-1.142,0.322-1.644s0.526-0.89,0.935-1.163s0.888-0.41,1.438-0.41c0.734,0,1.34,0.297,1.816,0.891v-0.75h0.973
			v5.379c0,0.969-0.099,1.655-0.296,2.06s-0.51,0.724-0.938,0.958s-0.954,0.352-1.579,0.352c-0.742,0-1.342-0.167-1.799-0.501
			S419.098,91.188,419.113,90.516z M419.986,86.777c0,0.816,0.162,1.412,0.486,1.787s0.73,0.562,1.219,0.562
			c0.484,0,0.891-0.187,1.219-0.56s0.492-0.958,0.492-1.755c0-0.762-0.169-1.336-0.507-1.723s-0.745-0.58-1.222-0.58
			c-0.469,0-0.867,0.19-1.195,0.571S419.986,86.027,419.986,86.777z"/>
		<path d="M430.24,87.996l1.09,0.135c-0.172,0.637-0.49,1.131-0.955,1.482s-1.059,0.527-1.781,0.527c-0.91,0-1.632-0.28-2.165-0.841
			s-0.8-1.347-0.8-2.358c0-1.047,0.27-1.859,0.809-2.438s1.238-0.867,2.098-0.867c0.832,0,1.512,0.283,2.039,0.85
			s0.791,1.363,0.791,2.391c0,0.062-0.002,0.156-0.006,0.281h-4.641c0.039,0.684,0.232,1.207,0.58,1.57s0.781,0.545,1.301,0.545
			c0.387,0,0.717-0.102,0.99-0.305S430.08,88.441,430.24,87.996z M426.777,86.291h3.475c-0.047-0.523-0.18-0.916-0.398-1.178
			c-0.336-0.406-0.771-0.609-1.307-0.609c-0.484,0-0.892,0.162-1.222,0.486S426.812,85.748,426.777,86.291z"/>
		<path d="M393.443,104.4v-8.59h3.809c0.766,0,1.348,0.077,1.746,0.231s0.717,0.427,0.955,0.817s0.357,0.822,0.357,1.295
			c0,0.609-0.197,1.123-0.592,1.541s-1.004,0.684-1.828,0.797c0.301,0.145,0.529,0.287,0.686,0.428
			c0.332,0.305,0.646,0.686,0.943,1.143l1.494,2.338h-1.43l-1.137-1.787c-0.332-0.516-0.605-0.91-0.82-1.184
			s-0.407-0.465-0.577-0.574s-0.343-0.186-0.519-0.229c-0.129-0.027-0.34-0.041-0.633-0.041h-1.318v3.814H393.443z M394.58,99.602
			h2.443c0.52,0,0.926-0.054,1.219-0.161s0.516-0.279,0.668-0.516s0.229-0.493,0.229-0.771c0-0.406-0.147-0.74-0.442-1.002
			s-0.761-0.393-1.397-0.393h-2.719V99.602z"/>
		<path d="M406.217,102.396l1.09,0.135c-0.172,0.637-0.49,1.131-0.955,1.482s-1.059,0.527-1.781,0.527
			c-0.91,0-1.632-0.28-2.165-0.841s-0.8-1.347-0.8-2.358c0-1.047,0.27-1.859,0.809-2.438s1.238-0.867,2.098-0.867
			c0.832,0,1.512,0.283,2.039,0.85s0.791,1.363,0.791,2.391c0,0.062-0.002,0.156-0.006,0.281h-4.641
			c0.039,0.684,0.232,1.207,0.58,1.57s0.781,0.545,1.301,0.545c0.387,0,0.717-0.102,0.99-0.305S406.057,102.842,406.217,102.396z
			 M402.754,100.691h3.475c-0.047-0.523-0.18-0.916-0.398-1.178c-0.336-0.406-0.771-0.609-1.307-0.609
			c-0.484,0-0.892,0.162-1.222,0.486S402.789,100.148,402.754,100.691z"/>
		<path d="M408.607,104.4v-8.59h1.055v8.59H408.607z"/>
		<path d="M415.357,103.633c-0.391,0.332-0.767,0.566-1.128,0.703s-0.749,0.205-1.163,0.205c-0.684,0-1.209-0.167-1.576-0.501
			s-0.551-0.761-0.551-1.28c0-0.305,0.069-0.583,0.208-0.835s0.32-0.454,0.545-0.606s0.478-0.268,0.759-0.346
			c0.207-0.055,0.52-0.107,0.938-0.158c0.852-0.102,1.479-0.223,1.881-0.363c0.004-0.145,0.006-0.236,0.006-0.275
			c0-0.43-0.1-0.732-0.299-0.908c-0.27-0.238-0.67-0.357-1.201-0.357c-0.496,0-0.862,0.087-1.099,0.261s-0.411,0.481-0.524,0.923
			l-1.031-0.141c0.094-0.441,0.248-0.798,0.463-1.069s0.525-0.48,0.932-0.627s0.877-0.22,1.412-0.22
			c0.531,0,0.963,0.062,1.295,0.188s0.576,0.282,0.732,0.472s0.266,0.429,0.328,0.718c0.035,0.18,0.053,0.504,0.053,0.973v1.406
			c0,0.98,0.022,1.601,0.067,1.86s0.134,0.509,0.267,0.747h-1.102C415.459,104.182,415.389,103.926,415.357,103.633z
			 M415.27,101.277c-0.383,0.156-0.957,0.289-1.723,0.398c-0.434,0.062-0.74,0.133-0.92,0.211s-0.318,0.192-0.416,0.343
			s-0.146,0.317-0.146,0.501c0,0.281,0.106,0.516,0.319,0.703s0.524,0.281,0.935,0.281c0.406,0,0.768-0.089,1.084-0.267
			s0.549-0.421,0.697-0.729c0.113-0.238,0.17-0.59,0.17-1.055V101.277z"/>
		<path d="M417.924,106.797l-0.117-0.99c0.23,0.062,0.432,0.094,0.604,0.094c0.234,0,0.422-0.039,0.562-0.117
			s0.256-0.188,0.346-0.328c0.066-0.105,0.174-0.367,0.322-0.785c0.02-0.059,0.051-0.145,0.094-0.258l-2.361-6.234h1.137
			l1.295,3.604c0.168,0.457,0.318,0.938,0.451,1.441c0.121-0.484,0.266-0.957,0.434-1.418l1.33-3.627h1.055l-2.367,6.328
			c-0.254,0.684-0.451,1.154-0.592,1.412c-0.188,0.348-0.402,0.603-0.645,0.765s-0.531,0.243-0.867,0.243
			C418.4,106.926,418.174,106.883,417.924,106.797z"/>
	</g>
	<g>
		<path d="M237.017,34.793v-8.59h2.959c0.668,0,1.178,0.041,1.529,0.123c0.492,0.113,0.912,0.318,1.26,0.615
			c0.453,0.383,0.792,0.872,1.017,1.468s0.337,1.276,0.337,2.042c0,0.652-0.076,1.23-0.229,1.734s-0.348,0.921-0.586,1.251
			s-0.499,0.59-0.782,0.779s-0.625,0.333-1.025,0.431s-0.86,0.146-1.38,0.146H237.017z M238.153,33.779h1.834
			c0.566,0,1.011-0.053,1.333-0.158s0.579-0.254,0.771-0.445c0.27-0.27,0.479-0.632,0.63-1.087s0.226-1.007,0.226-1.655
			c0-0.898-0.147-1.589-0.442-2.071s-0.653-0.806-1.075-0.97c-0.305-0.117-0.795-0.176-1.471-0.176h-1.805V33.779z"/>
		<path d="M245.536,34.793V28.57h0.949v0.943c0.242-0.441,0.466-0.732,0.671-0.873s0.431-0.211,0.677-0.211
			c0.355,0,0.717,0.113,1.084,0.34l-0.363,0.979c-0.258-0.152-0.516-0.229-0.773-0.229c-0.23,0-0.438,0.069-0.621,0.208
			s-0.314,0.331-0.393,0.577c-0.117,0.375-0.176,0.785-0.176,1.23v3.258H245.536z"/>
		<path d="M249.497,37.189l-0.117-0.99c0.23,0.062,0.432,0.094,0.604,0.094c0.234,0,0.422-0.039,0.562-0.117
			s0.256-0.188,0.346-0.328c0.066-0.105,0.174-0.367,0.322-0.785c0.02-0.059,0.051-0.145,0.094-0.258l-2.361-6.234h1.137
			l1.295,3.604c0.168,0.457,0.318,0.938,0.451,1.441c0.121-0.484,0.266-0.957,0.434-1.418l1.33-3.627h1.055l-2.367,6.328
			c-0.254,0.684-0.451,1.154-0.592,1.412c-0.188,0.348-0.402,0.603-0.645,0.765s-0.531,0.243-0.867,0.243
			C249.974,37.318,249.747,37.275,249.497,37.189z"/>
		<path d="M265.142,31.781l1.137,0.287c-0.238,0.934-0.667,1.646-1.286,2.136s-1.376,0.735-2.271,0.735
			c-0.926,0-1.679-0.188-2.259-0.565s-1.021-0.923-1.324-1.638s-0.454-1.482-0.454-2.303c0-0.895,0.171-1.675,0.513-2.341
			s0.828-1.172,1.459-1.518s1.325-0.519,2.083-0.519c0.859,0,1.582,0.219,2.168,0.656s0.994,1.053,1.225,1.846l-1.119,0.264
			c-0.199-0.625-0.488-1.08-0.867-1.365s-0.855-0.428-1.43-0.428c-0.66,0-1.212,0.158-1.655,0.475s-0.755,0.741-0.935,1.274
			s-0.27,1.083-0.27,1.649c0,0.73,0.106,1.368,0.319,1.913s0.544,0.952,0.993,1.222s0.936,0.404,1.459,0.404
			c0.637,0,1.176-0.184,1.617-0.551S264.985,32.504,265.142,31.781z"/>
		<path d="M267.151,31.682c0-1.152,0.32-2.006,0.961-2.561c0.535-0.461,1.188-0.691,1.957-0.691c0.855,0,1.555,0.28,2.098,0.841
			s0.814,1.335,0.814,2.323c0,0.801-0.12,1.431-0.36,1.89s-0.59,0.815-1.049,1.069s-0.96,0.381-1.503,0.381
			c-0.871,0-1.575-0.279-2.112-0.838S267.151,32.732,267.151,31.682z M268.235,31.682c0,0.797,0.174,1.394,0.521,1.79
			s0.785,0.595,1.312,0.595c0.523,0,0.959-0.199,1.307-0.598s0.521-1.006,0.521-1.822c0-0.77-0.175-1.353-0.524-1.749
			s-0.784-0.595-1.304-0.595c-0.527,0-0.965,0.197-1.312,0.592S268.235,30.885,268.235,31.682z"/>
		<path d="M274.218,34.793V28.57h0.949v0.885c0.457-0.684,1.117-1.025,1.98-1.025c0.375,0,0.72,0.067,1.034,0.202
			s0.55,0.312,0.706,0.53s0.266,0.479,0.328,0.779c0.039,0.195,0.059,0.537,0.059,1.025v3.826h-1.055v-3.785
			c0-0.43-0.041-0.751-0.123-0.964s-0.228-0.383-0.437-0.51s-0.454-0.19-0.735-0.19c-0.449,0-0.837,0.143-1.163,0.428
			s-0.489,0.826-0.489,1.623v3.398H274.218z"/>
		<path d="M283.194,33.85l0.152,0.932c-0.297,0.062-0.562,0.094-0.797,0.094c-0.383,0-0.68-0.061-0.891-0.182
			s-0.359-0.28-0.445-0.478s-0.129-0.612-0.129-1.245v-3.58h-0.773v-0.82h0.773v-1.541l1.049-0.633v2.174h1.061v0.82h-1.061v3.639
			c0,0.301,0.019,0.494,0.056,0.58s0.098,0.154,0.182,0.205s0.204,0.076,0.36,0.076C282.849,33.891,283.003,33.877,283.194,33.85z"
			/>
		<path d="M288.286,34.025c-0.391,0.332-0.767,0.566-1.128,0.703s-0.749,0.205-1.163,0.205c-0.684,0-1.209-0.167-1.576-0.501
			s-0.551-0.761-0.551-1.28c0-0.305,0.069-0.583,0.208-0.835s0.32-0.454,0.545-0.606s0.478-0.268,0.759-0.346
			c0.207-0.055,0.52-0.107,0.938-0.158c0.852-0.102,1.479-0.223,1.881-0.363c0.004-0.145,0.006-0.236,0.006-0.275
			c0-0.43-0.1-0.732-0.299-0.908c-0.27-0.238-0.67-0.357-1.201-0.357c-0.496,0-0.862,0.087-1.099,0.261s-0.411,0.481-0.524,0.923
			l-1.031-0.141c0.094-0.441,0.248-0.798,0.463-1.069s0.525-0.48,0.932-0.627s0.877-0.22,1.412-0.22
			c0.531,0,0.963,0.062,1.295,0.188s0.576,0.282,0.732,0.472s0.266,0.429,0.328,0.718c0.035,0.18,0.053,0.504,0.053,0.973v1.406
			c0,0.98,0.022,1.601,0.067,1.86s0.134,0.509,0.267,0.747h-1.102C288.388,34.574,288.317,34.318,288.286,34.025z M288.198,31.67
			c-0.383,0.156-0.957,0.289-1.723,0.398c-0.434,0.062-0.74,0.133-0.92,0.211s-0.318,0.192-0.416,0.343s-0.146,0.317-0.146,0.501
			c0,0.281,0.106,0.516,0.319,0.703s0.524,0.281,0.935,0.281c0.406,0,0.768-0.089,1.084-0.267s0.549-0.421,0.697-0.729
			c0.113-0.238,0.17-0.59,0.17-1.055V31.67z"/>
		<path d="M294.96,32.514l1.037,0.135c-0.113,0.715-0.403,1.274-0.87,1.679s-1.04,0.606-1.72,0.606
			c-0.852,0-1.536-0.278-2.054-0.835s-0.776-1.354-0.776-2.394c0-0.672,0.111-1.26,0.334-1.764s0.562-0.882,1.017-1.134
			s0.95-0.378,1.485-0.378c0.676,0,1.229,0.171,1.658,0.513s0.705,0.827,0.826,1.456l-1.025,0.158
			c-0.098-0.418-0.271-0.732-0.519-0.943s-0.548-0.316-0.899-0.316c-0.531,0-0.963,0.19-1.295,0.571s-0.498,0.983-0.498,1.808
			c0,0.836,0.16,1.443,0.48,1.822s0.738,0.568,1.254,0.568c0.414,0,0.76-0.127,1.037-0.381S294.886,33.041,294.96,32.514z"/>
		<path d="M299.202,33.85l0.152,0.932c-0.297,0.062-0.562,0.094-0.797,0.094c-0.383,0-0.68-0.061-0.891-0.182
			s-0.359-0.28-0.445-0.478s-0.129-0.612-0.129-1.245v-3.58h-0.773v-0.82h0.773v-1.541l1.049-0.633v2.174h1.061v0.82h-1.061v3.639
			c0,0.301,0.019,0.494,0.056,0.58s0.098,0.154,0.182,0.205s0.204,0.076,0.36,0.076C298.856,33.891,299.011,33.877,299.202,33.85z"
			/>
		<path d="M303.72,34.793v-8.59h3.809c0.766,0,1.348,0.077,1.746,0.231s0.717,0.427,0.955,0.817s0.357,0.822,0.357,1.295
			c0,0.609-0.197,1.123-0.592,1.541s-1.004,0.684-1.828,0.797c0.301,0.145,0.529,0.287,0.686,0.428
			c0.332,0.305,0.646,0.686,0.943,1.143l1.494,2.338h-1.43l-1.137-1.787c-0.332-0.516-0.605-0.91-0.82-1.184
			s-0.407-0.465-0.577-0.574s-0.343-0.186-0.519-0.229c-0.129-0.027-0.34-0.041-0.633-0.041h-1.318v3.814H303.72z M304.856,29.994
			h2.443c0.52,0,0.926-0.054,1.219-0.161s0.516-0.279,0.668-0.516s0.229-0.493,0.229-0.771c0-0.406-0.147-0.74-0.442-1.002
			s-0.761-0.393-1.397-0.393h-2.719V29.994z"/>
		<path d="M316.493,32.789l1.09,0.135c-0.172,0.637-0.49,1.131-0.955,1.482s-1.059,0.527-1.781,0.527
			c-0.91,0-1.632-0.28-2.165-0.841s-0.8-1.347-0.8-2.358c0-1.047,0.27-1.859,0.809-2.438s1.238-0.867,2.098-0.867
			c0.832,0,1.512,0.283,2.039,0.85s0.791,1.363,0.791,2.391c0,0.062-0.002,0.156-0.006,0.281h-4.641
			c0.039,0.684,0.232,1.207,0.58,1.57s0.781,0.545,1.301,0.545c0.387,0,0.717-0.102,0.99-0.305S316.333,33.234,316.493,32.789z
			 M313.03,31.084h3.475c-0.047-0.523-0.18-0.916-0.398-1.178c-0.336-0.406-0.771-0.609-1.307-0.609
			c-0.484,0-0.892,0.162-1.222,0.486S313.065,30.541,313.03,31.084z"/>
		<path d="M318.884,34.793v-8.59h1.055v8.59H318.884z"/>
		<path d="M325.634,34.025c-0.391,0.332-0.767,0.566-1.128,0.703s-0.749,0.205-1.163,0.205c-0.684,0-1.209-0.167-1.576-0.501
			s-0.551-0.761-0.551-1.28c0-0.305,0.069-0.583,0.208-0.835s0.32-0.454,0.545-0.606s0.478-0.268,0.759-0.346
			c0.207-0.055,0.52-0.107,0.938-0.158c0.852-0.102,1.479-0.223,1.881-0.363c0.004-0.145,0.006-0.236,0.006-0.275
			c0-0.43-0.1-0.732-0.299-0.908c-0.27-0.238-0.67-0.357-1.201-0.357c-0.496,0-0.862,0.087-1.099,0.261s-0.411,0.481-0.524,0.923
			l-1.031-0.141c0.094-0.441,0.248-0.798,0.463-1.069s0.525-0.48,0.932-0.627s0.877-0.22,1.412-0.22
			c0.531,0,0.963,0.062,1.295,0.188s0.576,0.282,0.732,0.472s0.266,0.429,0.328,0.718c0.035,0.18,0.053,0.504,0.053,0.973v1.406
			c0,0.98,0.022,1.601,0.067,1.86s0.134,0.509,0.267,0.747h-1.102C325.735,34.574,325.665,34.318,325.634,34.025z M325.546,31.67
			c-0.383,0.156-0.957,0.289-1.723,0.398c-0.434,0.062-0.74,0.133-0.92,0.211s-0.318,0.192-0.416,0.343s-0.146,0.317-0.146,0.501
			c0,0.281,0.106,0.516,0.319,0.703s0.524,0.281,0.935,0.281c0.406,0,0.768-0.089,1.084-0.267s0.549-0.421,0.697-0.729
			c0.113-0.238,0.17-0.59,0.17-1.055V31.67z"/>
		<path d="M328.2,37.189l-0.117-0.99c0.23,0.062,0.432,0.094,0.604,0.094c0.234,0,0.422-0.039,0.562-0.117s0.256-0.188,0.346-0.328
			c0.066-0.105,0.174-0.367,0.322-0.785c0.02-0.059,0.051-0.145,0.094-0.258l-2.361-6.234h1.137l1.295,3.604
			c0.168,0.457,0.318,0.938,0.451,1.441c0.121-0.484,0.266-0.957,0.434-1.418l1.33-3.627h1.055l-2.367,6.328
			c-0.254,0.684-0.451,1.154-0.592,1.412c-0.188,0.348-0.402,0.603-0.645,0.765s-0.531,0.243-0.867,0.243
			C328.677,37.318,328.45,37.275,328.2,37.189z"/>
	</g>
	<g>
		<path d="M211.949,72.561v-8.59h6.211v1.014h-5.074v2.631h4.752v1.008h-4.752v2.924h5.273v1.014H211.949z"/>
		<path d="M219.795,72.561v-6.223h0.949v0.885c0.457-0.684,1.117-1.025,1.98-1.025c0.375,0,0.72,0.067,1.034,0.202
			s0.55,0.312,0.706,0.53s0.266,0.479,0.328,0.779c0.039,0.195,0.059,0.537,0.059,1.025v3.826h-1.055v-3.785
			c0-0.43-0.041-0.751-0.123-0.964s-0.228-0.383-0.437-0.51s-0.454-0.19-0.735-0.19c-0.449,0-0.837,0.143-1.163,0.428
			s-0.489,0.826-0.489,1.623v3.398H219.795z"/>
		<path d="M226.275,73.076l1.025,0.152c0.043,0.316,0.162,0.547,0.357,0.691c0.262,0.195,0.619,0.293,1.072,0.293
			c0.488,0,0.865-0.098,1.131-0.293s0.445-0.469,0.539-0.82c0.055-0.215,0.08-0.666,0.076-1.354
			c-0.461,0.543-1.035,0.814-1.723,0.814c-0.855,0-1.518-0.309-1.986-0.926s-0.703-1.357-0.703-2.221
			c0-0.594,0.107-1.142,0.322-1.644s0.526-0.89,0.935-1.163s0.888-0.41,1.438-0.41c0.734,0,1.34,0.297,1.816,0.891v-0.75h0.973
			v5.379c0,0.969-0.099,1.655-0.296,2.06s-0.51,0.724-0.938,0.958s-0.954,0.352-1.579,0.352c-0.742,0-1.342-0.167-1.799-0.501
			S226.26,73.748,226.275,73.076z M227.148,69.338c0,0.816,0.162,1.412,0.486,1.787s0.73,0.562,1.219,0.562
			c0.484,0,0.891-0.187,1.219-0.56s0.492-0.958,0.492-1.755c0-0.762-0.169-1.336-0.507-1.723s-0.745-0.58-1.222-0.58
			c-0.469,0-0.867,0.19-1.195,0.571S227.148,68.588,227.148,69.338z"/>
		<path d="M233.148,65.184v-1.213h1.055v1.213H233.148z M233.148,72.561v-6.223h1.055v6.223H233.148z"/>
		<path d="M235.809,72.561v-6.223h0.949v0.885c0.457-0.684,1.117-1.025,1.98-1.025c0.375,0,0.72,0.067,1.034,0.202
			s0.55,0.312,0.706,0.53s0.266,0.479,0.328,0.779c0.039,0.195,0.059,0.537,0.059,1.025v3.826h-1.055v-3.785
			c0-0.43-0.041-0.751-0.123-0.964s-0.228-0.383-0.437-0.51s-0.454-0.19-0.735-0.19c-0.449,0-0.837,0.143-1.163,0.428
			s-0.489,0.826-0.489,1.623v3.398H235.809z"/>
		<path d="M246.742,70.557l1.09,0.135c-0.172,0.637-0.49,1.131-0.955,1.482s-1.059,0.527-1.781,0.527
			c-0.91,0-1.632-0.28-2.165-0.841s-0.8-1.347-0.8-2.358c0-1.047,0.27-1.859,0.809-2.438s1.238-0.867,2.098-0.867
			c0.832,0,1.512,0.283,2.039,0.85s0.791,1.363,0.791,2.391c0,0.062-0.002,0.156-0.006,0.281h-4.641
			c0.039,0.684,0.232,1.207,0.58,1.57s0.781,0.545,1.301,0.545c0.387,0,0.717-0.102,0.99-0.305S246.582,71.002,246.742,70.557z
			 M243.279,68.852h3.475c-0.047-0.523-0.18-0.916-0.398-1.178c-0.336-0.406-0.771-0.609-1.307-0.609
			c-0.484,0-0.892,0.162-1.222,0.486S243.314,68.309,243.279,68.852z"/>
	</g>
	<g>
		<path d="M69.076,33.812l3.299-8.59H73.6l3.516,8.59H75.82l-1.002-2.602h-3.592l-0.943,2.602H69.076z M71.555,30.284h2.912
			l-0.896-2.379c-0.273-0.723-0.477-1.316-0.609-1.781c-0.109,0.551-0.264,1.098-0.463,1.641L71.555,30.284z"/>
		<path d="M84.152,30.8l1.137,0.287c-0.238,0.934-0.667,1.646-1.286,2.136s-1.376,0.735-2.271,0.735
			c-0.926,0-1.679-0.188-2.259-0.565s-1.021-0.923-1.324-1.638s-0.454-1.482-0.454-2.303c0-0.895,0.171-1.675,0.513-2.341
			s0.828-1.172,1.459-1.518s1.325-0.519,2.083-0.519c0.859,0,1.582,0.219,2.168,0.656s0.994,1.053,1.225,1.846l-1.119,0.264
			c-0.199-0.625-0.488-1.08-0.867-1.365s-0.855-0.428-1.43-0.428c-0.66,0-1.212,0.158-1.655,0.475s-0.755,0.741-0.935,1.274
			s-0.27,1.083-0.27,1.649c0,0.73,0.106,1.368,0.319,1.913s0.544,0.952,0.993,1.222s0.936,0.404,1.459,0.404
			c0.637,0,1.176-0.184,1.617-0.551S83.996,31.522,84.152,30.8z"/>
		<path d="M89.889,36.196v-8.607h0.961v0.809c0.227-0.316,0.482-0.554,0.768-0.712s0.631-0.237,1.037-0.237
			c0.531,0,1,0.137,1.406,0.41s0.713,0.659,0.92,1.157s0.311,1.044,0.311,1.638c0,0.637-0.114,1.21-0.343,1.72
			s-0.561,0.9-0.996,1.172s-0.894,0.407-1.374,0.407c-0.352,0-0.667-0.074-0.946-0.223s-0.509-0.336-0.688-0.562v3.029H89.889z
			 M90.844,30.735c0,0.801,0.162,1.393,0.486,1.775s0.717,0.574,1.178,0.574c0.469,0,0.87-0.198,1.204-0.595
			s0.501-1.011,0.501-1.843c0-0.793-0.163-1.387-0.489-1.781s-0.716-0.592-1.169-0.592c-0.449,0-0.847,0.21-1.192,0.63
			S90.844,29.935,90.844,30.735z"/>
		<path d="M96.17,30.7c0-1.152,0.32-2.006,0.961-2.561c0.535-0.461,1.188-0.691,1.957-0.691c0.855,0,1.555,0.28,2.098,0.841
			S102,29.624,102,30.612c0,0.801-0.12,1.431-0.36,1.89s-0.59,0.815-1.049,1.069s-0.96,0.381-1.503,0.381
			c-0.871,0-1.575-0.279-2.112-0.838S96.17,31.751,96.17,30.7z M97.254,30.7c0,0.797,0.174,1.394,0.521,1.79
			s0.785,0.595,1.312,0.595c0.523,0,0.959-0.199,1.307-0.598s0.521-1.006,0.521-1.822c0-0.77-0.175-1.353-0.524-1.749
			s-0.784-0.595-1.304-0.595c-0.527,0-0.965,0.197-1.312,0.592S97.254,29.903,97.254,30.7z"/>
		<path d="M104.385,33.812l-1.904-6.223h1.09l0.99,3.592l0.369,1.336c0.016-0.066,0.123-0.494,0.322-1.283l0.99-3.645h1.084
			l0.932,3.609l0.311,1.189l0.357-1.201l1.066-3.598h1.025l-1.945,6.223h-1.096l-0.99-3.727l-0.24-1.061l-1.26,4.787H104.385z"/>
		<path d="M116.162,31.808l1.09,0.135c-0.172,0.637-0.49,1.131-0.955,1.482s-1.059,0.527-1.781,0.527
			c-0.91,0-1.632-0.28-2.165-0.841s-0.8-1.347-0.8-2.358c0-1.047,0.27-1.859,0.809-2.438s1.238-0.867,2.098-0.867
			c0.832,0,1.512,0.283,2.039,0.85s0.791,1.363,0.791,2.391c0,0.062-0.002,0.156-0.006,0.281h-4.641
			c0.039,0.684,0.232,1.207,0.58,1.57s0.781,0.545,1.301,0.545c0.387,0,0.717-0.102,0.99-0.305S116.002,32.253,116.162,31.808z
			 M112.699,30.103h3.475c-0.047-0.523-0.18-0.916-0.398-1.178c-0.336-0.406-0.771-0.609-1.307-0.609
			c-0.484,0-0.892,0.162-1.222,0.486S112.734,29.56,112.699,30.103z"/>
		<path d="M118.564,33.812v-6.223h0.949v0.943c0.242-0.441,0.466-0.732,0.671-0.873s0.431-0.211,0.677-0.211
			c0.355,0,0.717,0.113,1.084,0.34l-0.363,0.979c-0.258-0.152-0.516-0.229-0.773-0.229c-0.23,0-0.438,0.069-0.621,0.208
			s-0.314,0.331-0.393,0.577c-0.117,0.375-0.176,0.785-0.176,1.23v3.258H118.564z"/>
	</g>
</g>
<g id="DC_Relay">
	<circle fill="#FFFFFF" stroke="#000000" cx="342.417" cy="45.812" r="8.583"/>
	<circle fill="#FFFFFF" stroke="#000000" cx="383.083" cy="45.812" r="8.583"/>
	<line fill="none" stroke="#000000" x1="374.499" y1="44.833" x2="353.333" y2="24.833"/>
</g>
<g id="AC_Power">
	<circle fill="#E6E6E6" stroke="#666666" cx="42" cy="47.812" r="23.875"/>
	<polygon fill="#FBB000" points="57,63.938 39.5,54.062 45,54.062 32,42.812 38.875,42.938 27,31.688 38,31.688 49.75,45.312 
		44.75,45.188 54,56.188 50.375,56.062 	"/>
</g>
<g id="Not_AC">
	<circle fill="#E6E6E6" cx="138.251" cy="90.437" r="17.876"/>
	<polygon fill="#FBB000" points="149.482,102.511 136.38,95.116 140.498,95.116 130.764,86.693 135.912,86.787 127.02,78.363 
		135.256,78.363 144.054,88.564 140.311,88.472 147.236,96.708 144.522,96.613 	"/>
	<path fill="#FF0000" d="M138.252,72.205c-9.873,0-17.877,8.003-17.877,17.876c0,9.872,8.004,17.877,17.877,17.877
		c9.872,0,17.876-8.005,17.876-17.877C156.128,80.208,148.124,72.205,138.252,72.205z M138.252,106.208
		c-8.907,0-16.127-7.222-16.127-16.127c0-8.906,7.22-16.126,16.127-16.126c8.905,0,16.126,7.22,16.126,16.126
		C154.378,98.986,147.157,106.208,138.252,106.208z"/>
	<line fill="none" stroke="#FF0000" stroke-width="2" x1="126.249" y1="102.083" x2="150.253" y2="78.079"/>
</g>
<g id="Connections">
	<rect x="68" y="43.312" fill="#4D4D4D" width="263.833" height="5"/>
	<rect x="393.08" y="43.312" fill="#4D4D4D" width="58.42" height="5"/>
	<rect x="38.25" y="71.688" fill="#4D4D4D" width="4.875" height="5"/>
	<rect x="38.25" y="87.938" fill="#4D4D4D" width="4.875" height="5"/>
	<rect x="57" y="87.938" fill="#4D4D4D" width="4.875" height="5"/>
	<rect x="74.875" y="87.938" fill="#4D4D4D" width="4.875" height="5"/>
	<rect x="93.125" y="87.938" fill="#4D4D4D" width="4.875" height="5"/>
	<rect x="111.5" y="87.938" fill="#4D4D4D" width="4.875" height="5"/>
	<rect x="157.794" y="90.438" fill="#4D4D4D" width="21.206" height="5"/>
	<rect x="280.127" y="90.438" fill="#009245" width="55.948" height="5"/>
	<rect x="358.167" y="49.021" fill="#009245" width="5" height="24.646"/>
</g>
<g id="Emergency_lights">
	<rect x="453.5" y="25.446" fill="#FFFFFF" stroke="#4D4D4D" width="110.5" height="40.342"/>
	<circle fill="#FCEE21" stroke="#4D4D4D" cx="544.625" cy="45.617" r="16.5"/>
	<circle fill="#E6E6E6" stroke="#333333" cx="509.125" cy="45.617" r="16.5"/>
	<polygon fill="#FBB000" points="519.492,56.761 507.397,49.936 511.198,49.936 502.214,42.161 506.965,42.248 498.758,34.473 
		506.361,34.473 514.481,43.889 511.025,43.802 517.418,51.405 514.913,51.318 	"/>
	<circle fill="#FCEE21" stroke="#4D4D4D" cx="473" cy="45.617" r="16.5"/>
</g>
<g id="Outage_Relay">
	<rect x="337.833" y="75.062" fill="#FFFFFF" stroke="#4D4D4D" width="45.667" height="41.75"/>
	<rect x="340.479" y="87.312" fill="#009245" width="9.875" height="19.75"/>
	<rect x="341.931" y="90.562" fill="#F7931E" width="6.971" height="7"/>
	<rect x="355.479" y="87.312" fill="#009245" width="9.875" height="19.75"/>
	<rect x="356.931" y="90.562" fill="#F7931E" width="6.971" height="7"/>
	<rect x="370.625" y="87.312" fill="#009245" width="9.875" height="19.75"/>
	<rect x="372.077" y="90.562" fill="#F7931E" width="6.971" height="7"/>
	<rect x="345.062" y="109.562" fill="#4D4D4D" width="13.901" height="5"/>
	<rect x="362.562" y="109.562" fill="#999999" width="13.901" height="5"/>
	<rect x="196.812" y="86.646" width="5.438" height="5"/>
</g>
<g id="Engine">
	<rect id="Body" x="180" y="79" fill="#333333" width="98.891" height="26.375"/>
	<rect x="183" y="81.333" fill="#666666" width="92.976" height="21.178"/>
	<rect x="195" y="84.702" fill="#8CC63F" width="69.594" height="15.395"/>
	<polygon fill="#4D4D4D" points="202.32,91.751 196.743,91.751 196.743,88.062 198.228,86.751 200.812,86.751 202.32,88.125 	"/>
	<rect x="186" y="84.702" fill="#C69C6D" width="5.25" height="15.395"/>
	<rect x="268.391" y="84.702" fill="#C69C6D" width="5.25" height="15.395"/>
	<polygon fill="#4D4D4D" points="209.75,91.751 204.173,91.751 204.173,88.062 205.659,86.751 208.242,86.751 209.75,88.125 	"/>
	<polygon fill="#4D4D4D" points="217.182,91.751 211.604,91.751 211.604,88.062 213.09,86.751 215.673,86.751 217.182,88.125 	"/>
	<polygon fill="#4D4D4D" points="224.612,91.751 219.035,91.751 219.035,88.062 220.521,86.751 223.104,86.751 224.612,88.125 	"/>
	<polygon fill="#4D4D4D" points="232.043,91.751 226.466,91.751 226.466,88.062 227.951,86.751 230.535,86.751 232.043,88.125 	"/>
	<polygon fill="#4D4D4D" points="239.474,91.751 233.897,91.751 233.897,88.062 235.382,86.751 237.966,86.751 239.474,88.125 	"/>
	<polygon fill="#4D4D4D" points="246.905,91.751 241.328,91.751 241.328,88.062 242.813,86.751 245.396,86.751 246.905,88.125 	"/>
	<polygon fill="#4D4D4D" points="254.336,91.751 248.759,91.751 248.759,88.062 250.244,86.751 252.828,86.751 254.336,88.125 	"/>
	<polygon fill="#4D4D4D" points="261.767,91.751 256.189,91.751 256.189,88.062 257.675,86.751 260.258,86.751 261.767,88.125 	"/>
	<polygon fill="#4D4D4D" points="202.32,92.938 196.743,92.938 196.743,96.626 198.228,97.938 200.812,97.938 202.32,96.563 	"/>
	<polygon fill="#4D4D4D" points="209.75,92.938 204.173,92.938 204.173,96.626 205.659,97.938 208.242,97.938 209.75,96.563 	"/>
	<polygon fill="#4D4D4D" points="217.182,92.938 211.604,92.938 211.604,96.626 213.09,97.938 215.673,97.938 217.182,96.563 	"/>
	<polygon fill="#4D4D4D" points="224.612,92.938 219.035,92.938 219.035,96.626 220.521,97.938 223.104,97.938 224.612,96.563 	"/>
	<polygon fill="#4D4D4D" points="232.043,92.938 226.466,92.938 226.466,96.626 227.951,97.938 230.535,97.938 232.043,96.563 	"/>
	<polygon fill="#4D4D4D" points="239.474,92.938 233.897,92.938 233.897,96.626 235.382,97.938 237.966,97.938 239.474,96.563 	"/>
	<polygon fill="#4D4D4D" points="246.905,92.938 241.328,92.938 241.328,96.626 242.813,97.938 245.396,97.938 246.905,96.563 	"/>
	<polygon fill="#4D4D4D" points="254.336,92.938 248.759,92.938 248.759,96.626 250.244,97.938 252.828,97.938 254.336,96.563 	"/>
	<polygon fill="#4D4D4D" points="261.767,92.938 256.189,92.938 256.189,96.626 257.675,97.938 260.258,97.938 261.767,96.563 	"/>
</g>
</svg>
