<?xml version="1.0" encoding="utf-8"?>
<!-- Generator: Adobe Illustrator 15.0.2, SVG Export Plug-In . SVG Version: 6.00 Build 0)  -->
<!DOCTYPE svg PUBLIC "-//W3C//DTD SVG 1.1//EN" "http://www.w3.org/Graphics/SVG/1.1/DTD/svg11.dtd">
<svg version="1.1" xmlns="http://www.w3.org/2000/svg" xmlns:xlink="http://www.w3.org/1999/xlink" x="0px" y="0px" width="585px"
	 height="122px" viewBox="0 0 585 122" enable-background="new 0 0 585 122" xml:space="preserve">
<g id="Text">
	<g>
		<path d="M324.435,14.96V6.37h6.211v1.014h-5.074v2.631h4.752v1.008h-4.752v2.924h5.273v1.014H324.435z"/>
		<path d="M332.28,14.96V8.737h0.949v0.885c0.457-0.684,1.117-1.025,1.98-1.025c0.375,0,0.721,0.067,1.035,0.202
			s0.549,0.312,0.705,0.53s0.266,0.479,0.328,0.779c0.039,0.195,0.059,0.537,0.059,1.025v3.826h-1.055v-3.785
			c0-0.43-0.041-0.751-0.123-0.964s-0.227-0.383-0.436-0.51s-0.455-0.19-0.736-0.19c-0.449,0-0.836,0.143-1.162,0.428
			s-0.49,0.826-0.49,1.623v3.398H332.28z"/>
		<path d="M338.761,15.476l1.025,0.152c0.043,0.316,0.162,0.547,0.357,0.691c0.262,0.195,0.619,0.293,1.072,0.293
			c0.488,0,0.865-0.098,1.131-0.293s0.445-0.469,0.539-0.82c0.055-0.215,0.08-0.666,0.076-1.354
			c-0.461,0.543-1.035,0.814-1.723,0.814c-0.855,0-1.518-0.309-1.986-0.926s-0.703-1.357-0.703-2.221
			c0-0.594,0.107-1.142,0.322-1.644s0.527-0.89,0.936-1.163s0.887-0.41,1.438-0.41c0.734,0,1.34,0.297,1.816,0.891v-0.75h0.973
			v5.379c0,0.969-0.098,1.655-0.295,2.06s-0.51,0.724-0.938,0.958s-0.955,0.352-1.58,0.352c-0.742,0-1.342-0.167-1.799-0.501
			S338.745,16.147,338.761,15.476z M339.634,11.737c0,0.816,0.162,1.412,0.486,1.787s0.73,0.562,1.219,0.562
			c0.484,0,0.891-0.187,1.219-0.56s0.492-0.958,0.492-1.755c0-0.762-0.168-1.336-0.506-1.723s-0.746-0.58-1.223-0.58
			c-0.469,0-0.867,0.19-1.195,0.571S339.634,10.987,339.634,11.737z"/>
		<path d="M345.634,7.583V6.37h1.055v1.213H345.634z M345.634,14.96V8.737h1.055v6.223H345.634z"/>
		<path d="M348.294,14.96V8.737h0.949v0.885c0.457-0.684,1.117-1.025,1.98-1.025c0.375,0,0.721,0.067,1.035,0.202
			s0.549,0.312,0.705,0.53s0.266,0.479,0.328,0.779c0.039,0.195,0.059,0.537,0.059,1.025v3.826h-1.055v-3.785
			c0-0.43-0.041-0.751-0.123-0.964s-0.227-0.383-0.436-0.51s-0.455-0.19-0.736-0.19c-0.449,0-0.836,0.143-1.162,0.428
			s-0.49,0.826-0.49,1.623v3.398H348.294z"/>
		<path d="M359.228,12.956l1.09,0.135c-0.172,0.637-0.49,1.131-0.955,1.482s-1.059,0.527-1.781,0.527
			c-0.91,0-1.631-0.28-2.164-0.841s-0.801-1.347-0.801-2.358c0-1.047,0.27-1.859,0.809-2.438s1.238-0.867,2.098-0.867
			c0.832,0,1.512,0.283,2.039,0.85s0.791,1.363,0.791,2.391c0,0.062-0.002,0.156-0.006,0.281h-4.641
			c0.039,0.684,0.232,1.207,0.58,1.57s0.781,0.545,1.301,0.545c0.387,0,0.717-0.102,0.99-0.305S359.067,13.401,359.228,12.956z
			 M355.765,11.251h3.475c-0.047-0.523-0.18-0.916-0.398-1.178c-0.336-0.406-0.771-0.609-1.307-0.609
			c-0.484,0-0.891,0.162-1.221,0.486S355.8,10.708,355.765,11.251z"/>
	</g>
	<g>
		<path d="M69.076,33.812l3.299-8.59H73.6l3.516,8.59H75.82l-1.002-2.602h-3.592l-0.943,2.602H69.076z M71.555,30.284h2.912
			l-0.896-2.379c-0.273-0.723-0.477-1.316-0.609-1.781c-0.109,0.551-0.264,1.098-0.463,1.641L71.555,30.284z"/>
		<path d="M84.152,30.8l1.137,0.287c-0.238,0.934-0.667,1.646-1.286,2.136s-1.376,0.735-2.271,0.735
			c-0.926,0-1.679-0.188-2.259-0.565s-1.021-0.923-1.324-1.638s-0.454-1.482-0.454-2.303c0-0.895,0.171-1.675,0.513-2.341
			s0.828-1.172,1.459-1.518s1.325-0.519,2.083-0.519c0.859,0,1.582,0.219,2.168,0.656s0.994,1.053,1.225,1.846l-1.119,0.264
			c-0.199-0.625-0.488-1.08-0.867-1.365s-0.855-0.428-1.43-0.428c-0.66,0-1.212,0.158-1.655,0.475s-0.755,0.741-0.935,1.274
			s-0.27,1.083-0.27,1.649c0,0.73,0.106,1.368,0.319,1.913s0.544,0.952,0.993,1.222s0.936,0.404,1.459,0.404
			c0.637,0,1.176-0.184,1.617-0.551S83.996,31.522,84.152,30.8z"/>
		<path d="M89.889,36.196v-8.607h0.961v0.809c0.227-0.316,0.482-0.554,0.768-0.712s0.631-0.237,1.037-0.237
			c0.531,0,1,0.137,1.406,0.41s0.713,0.659,0.92,1.157s0.311,1.044,0.311,1.638c0,0.637-0.114,1.21-0.343,1.72
			s-0.561,0.9-0.996,1.172s-0.894,0.407-1.374,0.407c-0.352,0-0.667-0.074-0.946-0.223s-0.509-0.336-0.688-0.562v3.029H89.889z
			 M90.844,30.735c0,0.801,0.162,1.393,0.486,1.775s0.717,0.574,1.178,0.574c0.469,0,0.87-0.198,1.204-0.595
			s0.501-1.011,0.501-1.843c0-0.793-0.163-1.387-0.489-1.781s-0.716-0.592-1.169-0.592c-0.449,0-0.847,0.21-1.192,0.63
			S90.844,29.935,90.844,30.735z"/>
		<path d="M96.17,30.7c0-1.152,0.32-2.006,0.961-2.561c0.535-0.461,1.188-0.691,1.957-0.691c0.855,0,1.555,0.28,2.098,0.841
			S102,29.624,102,30.612c0,0.801-0.12,1.431-0.36,1.89s-0.59,0.815-1.049,1.069s-0.96,0.381-1.503,0.381
			c-0.871,0-1.575-0.279-2.112-0.838S96.17,31.751,96.17,30.7z M97.254,30.7c0,0.797,0.174,1.394,0.521,1.79
			s0.785,0.595,1.312,0.595c0.523,0,0.959-0.199,1.307-0.598s0.521-1.006,0.521-1.822c0-0.77-0.175-1.353-0.524-1.749
			s-0.784-0.595-1.304-0.595c-0.527,0-0.965,0.197-1.312,0.592S97.254,29.903,97.254,30.7z"/>
		<path d="M104.385,33.812l-1.904-6.223h1.09l0.99,3.592l0.369,1.336c0.016-0.066,0.123-0.494,0.322-1.283l0.99-3.645h1.084
			l0.932,3.609l0.311,1.189l0.357-1.201l1.066-3.598h1.025l-1.945,6.223h-1.096l-0.99-3.727l-0.24-1.061l-1.26,4.787H104.385z"/>
		<path d="M116.162,31.808l1.09,0.135c-0.172,0.637-0.49,1.131-0.955,1.482s-1.059,0.527-1.781,0.527
			c-0.91,0-1.632-0.28-2.165-0.841s-0.8-1.347-0.8-2.358c0-1.047,0.27-1.859,0.809-2.438s1.238-0.867,2.098-0.867
			c0.832,0,1.512,0.283,2.039,0.85s0.791,1.363,0.791,2.391c0,0.062-0.002,0.156-0.006,0.281h-4.641
			c0.039,0.684,0.232,1.207,0.58,1.57s0.781,0.545,1.301,0.545c0.387,0,0.717-0.102,0.99-0.305S116.002,32.253,116.162,31.808z
			 M112.699,30.103h3.475c-0.047-0.523-0.18-0.916-0.398-1.178c-0.336-0.406-0.771-0.609-1.307-0.609
			c-0.484,0-0.892,0.162-1.222,0.486S112.734,29.56,112.699,30.103z"/>
		<path d="M118.564,33.812v-6.223h0.949v0.943c0.242-0.441,0.466-0.732,0.671-0.873s0.431-0.211,0.677-0.211
			c0.355,0,0.717,0.113,1.084,0.34l-0.363,0.979c-0.258-0.152-0.516-0.229-0.773-0.229c-0.23,0-0.438,0.069-0.621,0.208
			s-0.314,0.331-0.393,0.577c-0.117,0.375-0.176,0.785-0.176,1.23v3.258H118.564z"/>
	</g>
	<g>
		<path d="M373.152,100.965v-8.59h6.211v1.014h-5.074v2.631h4.752v1.008h-4.752v2.924h5.273v1.014H373.152z"/>
		<path d="M381.086,100.965v-8.59h1.137v7.576h4.23v1.014H381.086z"/>
		<path d="M394.715,97.596v-1.008l3.639-0.006v3.188c-0.559,0.445-1.135,0.78-1.729,1.005s-1.203,0.337-1.828,0.337
			c-0.844,0-1.61-0.181-2.3-0.542s-1.21-0.884-1.562-1.567s-0.527-1.447-0.527-2.291c0-0.836,0.175-1.616,0.524-2.341
			s0.853-1.263,1.509-1.614s1.412-0.527,2.268-0.527c0.621,0,1.183,0.101,1.685,0.302s0.896,0.481,1.181,0.841
			s0.502,0.828,0.65,1.406l-1.025,0.281c-0.129-0.438-0.289-0.781-0.48-1.031s-0.465-0.45-0.82-0.601s-0.75-0.226-1.184-0.226
			c-0.52,0-0.969,0.079-1.348,0.237s-0.685,0.366-0.917,0.624s-0.413,0.541-0.542,0.85c-0.219,0.531-0.328,1.107-0.328,1.729
			c0,0.766,0.132,1.406,0.396,1.922s0.647,0.898,1.151,1.148s1.039,0.375,1.605,0.375c0.492,0,0.973-0.095,1.441-0.284
			s0.824-0.392,1.066-0.606v-1.6H394.715z"/>
		<path d="M403.955,100.197c-0.391,0.332-0.767,0.566-1.128,0.703s-0.749,0.205-1.163,0.205c-0.684,0-1.209-0.167-1.576-0.501
			s-0.551-0.761-0.551-1.28c0-0.305,0.069-0.583,0.208-0.835s0.32-0.454,0.545-0.606s0.478-0.268,0.759-0.346
			c0.207-0.055,0.52-0.107,0.938-0.158c0.852-0.102,1.479-0.223,1.881-0.363c0.004-0.145,0.006-0.236,0.006-0.275
			c0-0.43-0.1-0.732-0.299-0.908c-0.27-0.238-0.67-0.357-1.201-0.357c-0.496,0-0.862,0.087-1.099,0.261s-0.411,0.481-0.524,0.923
			l-1.031-0.141c0.094-0.441,0.248-0.798,0.463-1.069s0.525-0.48,0.932-0.627s0.877-0.22,1.412-0.22
			c0.531,0,0.963,0.062,1.295,0.188s0.576,0.282,0.732,0.472s0.266,0.429,0.328,0.718c0.035,0.18,0.053,0.504,0.053,0.973v1.406
			c0,0.98,0.022,1.601,0.067,1.86s0.134,0.509,0.267,0.747h-1.102C404.057,100.746,403.986,100.49,403.955,100.197z M403.867,97.842
			c-0.383,0.156-0.957,0.289-1.723,0.398c-0.434,0.062-0.74,0.133-0.92,0.211s-0.318,0.192-0.416,0.343s-0.146,0.317-0.146,0.501
			c0,0.281,0.106,0.516,0.319,0.703s0.524,0.281,0.935,0.281c0.406,0,0.768-0.089,1.084-0.267s0.549-0.421,0.697-0.729
			c0.113-0.238,0.17-0.59,0.17-1.055V97.842z"/>
		<path d="M408.871,100.021l0.152,0.932c-0.297,0.062-0.562,0.094-0.797,0.094c-0.383,0-0.68-0.061-0.891-0.182
			s-0.359-0.28-0.445-0.478s-0.129-0.612-0.129-1.245v-3.58h-0.773v-0.82h0.773v-1.541l1.049-0.633v2.174h1.061v0.82h-1.061v3.639
			c0,0.301,0.019,0.494,0.056,0.58s0.098,0.154,0.182,0.205s0.204,0.076,0.36,0.076C408.525,100.062,408.68,100.049,408.871,100.021
			z"/>
		<path d="M414.162,98.961l1.09,0.135c-0.172,0.637-0.49,1.131-0.955,1.482s-1.059,0.527-1.781,0.527
			c-0.91,0-1.632-0.28-2.165-0.841s-0.8-1.347-0.8-2.358c0-1.047,0.27-1.859,0.809-2.438s1.238-0.867,2.098-0.867
			c0.832,0,1.512,0.283,2.039,0.85s0.791,1.363,0.791,2.391c0,0.062-0.002,0.156-0.006,0.281h-4.641
			c0.039,0.684,0.232,1.207,0.58,1.57s0.781,0.545,1.301,0.545c0.387,0,0.717-0.102,0.99-0.305S414.002,99.406,414.162,98.961z
			 M410.699,97.256h3.475c-0.047-0.523-0.18-0.916-0.398-1.178c-0.336-0.406-0.771-0.609-1.307-0.609
			c-0.484,0-0.892,0.162-1.222,0.486S410.734,96.713,410.699,97.256z"/>
		<path d="M417.725,100.965l-1.904-6.223h1.09l0.99,3.592l0.369,1.336c0.016-0.066,0.123-0.494,0.322-1.283l0.99-3.645h1.084
			l0.932,3.609l0.311,1.189l0.357-1.201l1.066-3.598h1.025l-1.945,6.223h-1.096l-0.99-3.727l-0.24-1.061l-1.26,4.787H417.725z"/>
		<path d="M429.303,100.197c-0.391,0.332-0.767,0.566-1.128,0.703s-0.749,0.205-1.163,0.205c-0.684,0-1.209-0.167-1.576-0.501
			s-0.551-0.761-0.551-1.28c0-0.305,0.069-0.583,0.208-0.835s0.32-0.454,0.545-0.606s0.478-0.268,0.759-0.346
			c0.207-0.055,0.52-0.107,0.938-0.158c0.852-0.102,1.479-0.223,1.881-0.363c0.004-0.145,0.006-0.236,0.006-0.275
			c0-0.43-0.1-0.732-0.299-0.908c-0.27-0.238-0.67-0.357-1.201-0.357c-0.496,0-0.862,0.087-1.099,0.261s-0.411,0.481-0.524,0.923
			l-1.031-0.141c0.094-0.441,0.248-0.798,0.463-1.069s0.525-0.48,0.932-0.627s0.877-0.22,1.412-0.22
			c0.531,0,0.963,0.062,1.295,0.188s0.576,0.282,0.732,0.472s0.266,0.429,0.328,0.718c0.035,0.18,0.053,0.504,0.053,0.973v1.406
			c0,0.98,0.022,1.601,0.067,1.86s0.134,0.509,0.267,0.747h-1.102C429.404,100.746,429.334,100.49,429.303,100.197z M429.215,97.842
			c-0.383,0.156-0.957,0.289-1.723,0.398c-0.434,0.062-0.74,0.133-0.92,0.211s-0.318,0.192-0.416,0.343s-0.146,0.317-0.146,0.501
			c0,0.281,0.106,0.516,0.319,0.703s0.524,0.281,0.935,0.281c0.406,0,0.768-0.089,1.084-0.267s0.549-0.421,0.697-0.729
			c0.113-0.238,0.17-0.59,0.17-1.055V97.842z"/>
		<path d="M431.869,103.361l-0.117-0.99c0.23,0.062,0.432,0.094,0.604,0.094c0.234,0,0.422-0.039,0.562-0.117
			s0.256-0.188,0.346-0.328c0.066-0.105,0.174-0.367,0.322-0.785c0.02-0.059,0.051-0.145,0.094-0.258l-2.361-6.234h1.137
			l1.295,3.604c0.168,0.457,0.318,0.938,0.451,1.441c0.121-0.484,0.266-0.957,0.434-1.418l1.33-3.627h1.055l-2.367,6.328
			c-0.254,0.684-0.451,1.154-0.592,1.412c-0.188,0.348-0.402,0.603-0.645,0.765s-0.531,0.243-0.867,0.243
			C432.346,103.49,432.119,103.447,431.869,103.361z"/>
	</g>
	<g>
		<path d="M427.892,12.284l1.072-0.094c0.051,0.43,0.169,0.782,0.354,1.058s0.474,0.498,0.864,0.668s0.83,0.255,1.318,0.255
			c0.434,0,0.816-0.064,1.148-0.193s0.579-0.306,0.741-0.53s0.243-0.47,0.243-0.735c0-0.27-0.078-0.505-0.234-0.706
			s-0.414-0.37-0.773-0.507c-0.23-0.09-0.74-0.229-1.529-0.419s-1.342-0.368-1.658-0.536c-0.41-0.215-0.716-0.481-0.917-0.8
			s-0.302-0.675-0.302-1.069c0-0.434,0.123-0.839,0.369-1.216s0.605-0.663,1.078-0.858s0.998-0.293,1.576-0.293
			c0.637,0,1.198,0.103,1.685,0.308s0.86,0.507,1.122,0.905s0.402,0.85,0.422,1.354l-1.09,0.082
			c-0.059-0.543-0.257-0.953-0.595-1.23S431.95,7.31,431.29,7.31c-0.688,0-1.188,0.126-1.503,0.378s-0.472,0.556-0.472,0.911
			c0,0.309,0.111,0.562,0.334,0.762c0.219,0.199,0.79,0.403,1.714,0.612s1.558,0.392,1.901,0.548c0.5,0.23,0.869,0.522,1.107,0.876
			s0.357,0.761,0.357,1.222c0,0.457-0.131,0.888-0.393,1.292s-0.638,0.719-1.128,0.943s-1.042,0.337-1.655,0.337
			c-0.777,0-1.429-0.113-1.954-0.34s-0.938-0.567-1.236-1.022S427.907,12.858,427.892,12.284z"/>
		<path d="M440.707,13.04l1.09,0.135c-0.172,0.637-0.49,1.131-0.955,1.482s-1.059,0.527-1.781,0.527c-0.91,0-1.632-0.28-2.165-0.841
			s-0.8-1.347-0.8-2.358c0-1.047,0.27-1.859,0.809-2.438s1.238-0.867,2.098-0.867c0.832,0,1.512,0.283,2.039,0.85
			s0.791,1.363,0.791,2.391c0,0.062-0.002,0.156-0.006,0.281h-4.641c0.039,0.684,0.232,1.207,0.58,1.57s0.781,0.545,1.301,0.545
			c0.387,0,0.717-0.102,0.99-0.305S440.547,13.485,440.707,13.04z M437.244,11.335h3.475c-0.047-0.523-0.18-0.916-0.398-1.178
			c-0.336-0.406-0.771-0.609-1.307-0.609c-0.484,0-0.892,0.162-1.222,0.486S437.279,10.792,437.244,11.335z"/>
		<path d="M443.421,15.044V8.821h0.949v0.885c0.457-0.684,1.117-1.025,1.98-1.025c0.375,0,0.72,0.067,1.034,0.202
			s0.55,0.312,0.706,0.53s0.266,0.479,0.328,0.779c0.039,0.195,0.059,0.537,0.059,1.025v3.826h-1.055v-3.785
			c0-0.43-0.041-0.751-0.123-0.964s-0.228-0.383-0.437-0.51s-0.454-0.19-0.735-0.19c-0.449,0-0.837,0.143-1.163,0.428
			s-0.489,0.826-0.489,1.623v3.398H443.421z"/>
		<path d="M449.974,13.187l1.043-0.164c0.059,0.418,0.222,0.738,0.489,0.961s0.642,0.334,1.122,0.334
			c0.484,0,0.844-0.099,1.078-0.296s0.352-0.429,0.352-0.694c0-0.238-0.104-0.426-0.311-0.562c-0.145-0.094-0.504-0.213-1.078-0.357
			c-0.773-0.195-1.31-0.364-1.608-0.507s-0.525-0.34-0.68-0.592s-0.231-0.53-0.231-0.835c0-0.277,0.063-0.534,0.19-0.771
			s0.3-0.433,0.519-0.589c0.164-0.121,0.388-0.224,0.671-0.308s0.587-0.126,0.911-0.126c0.488,0,0.917,0.07,1.286,0.211
			s0.642,0.331,0.817,0.571s0.297,0.562,0.363,0.964l-1.031,0.141c-0.047-0.32-0.183-0.57-0.407-0.75s-0.542-0.27-0.952-0.27
			c-0.484,0-0.83,0.08-1.037,0.24s-0.311,0.348-0.311,0.562c0,0.137,0.043,0.26,0.129,0.369c0.086,0.113,0.221,0.207,0.404,0.281
			c0.105,0.039,0.416,0.129,0.932,0.27c0.746,0.199,1.267,0.362,1.562,0.489s0.526,0.312,0.694,0.554s0.252,0.543,0.252,0.902
			c0,0.352-0.103,0.683-0.308,0.993s-0.501,0.551-0.888,0.721s-0.824,0.255-1.312,0.255c-0.809,0-1.425-0.168-1.849-0.504
			S450.091,13.847,449.974,13.187z"/>
		<path d="M456.303,11.933c0-1.152,0.32-2.006,0.961-2.561c0.535-0.461,1.188-0.691,1.957-0.691c0.855,0,1.555,0.28,2.098,0.841
			s0.814,1.335,0.814,2.323c0,0.801-0.12,1.431-0.36,1.89s-0.59,0.815-1.049,1.069s-0.96,0.381-1.503,0.381
			c-0.871,0-1.575-0.279-2.112-0.838S456.303,12.983,456.303,11.933z M457.387,11.933c0,0.797,0.174,1.394,0.521,1.79
			s0.785,0.595,1.312,0.595c0.523,0,0.959-0.199,1.307-0.598s0.521-1.006,0.521-1.822c0-0.77-0.175-1.353-0.524-1.749
			s-0.784-0.595-1.304-0.595c-0.527,0-0.965,0.197-1.312,0.592S457.387,11.136,457.387,11.933z"/>
		<path d="M463.657,15.044V8.821h0.949v0.943c0.242-0.441,0.466-0.732,0.671-0.873s0.431-0.211,0.677-0.211
			c0.355,0,0.717,0.113,1.084,0.34l-0.363,0.979c-0.258-0.152-0.516-0.229-0.773-0.229c-0.23,0-0.438,0.069-0.621,0.208
			s-0.314,0.331-0.393,0.577c-0.117,0.375-0.176,0.785-0.176,1.23v3.258H463.657z"/>
		<path d="M471.312,12.776l1.055-0.141c0.121,0.598,0.327,1.028,0.618,1.292s0.646,0.396,1.063,0.396
			c0.496,0,0.915-0.172,1.257-0.516s0.513-0.77,0.513-1.277c0-0.484-0.158-0.884-0.475-1.198s-0.719-0.472-1.207-0.472
			c-0.199,0-0.447,0.039-0.744,0.117l0.117-0.926c0.07,0.008,0.127,0.012,0.17,0.012c0.449,0,0.854-0.117,1.213-0.352
			s0.539-0.596,0.539-1.084c0-0.387-0.131-0.707-0.393-0.961s-0.6-0.381-1.014-0.381c-0.41,0-0.752,0.129-1.025,0.387
			s-0.449,0.645-0.527,1.16l-1.055-0.188c0.129-0.707,0.422-1.255,0.879-1.644s1.025-0.583,1.705-0.583
			c0.469,0,0.9,0.101,1.295,0.302s0.696,0.476,0.905,0.823s0.313,0.717,0.313,1.107c0,0.371-0.1,0.709-0.299,1.014
			s-0.494,0.547-0.885,0.727c0.508,0.117,0.902,0.36,1.184,0.729s0.422,0.831,0.422,1.386c0,0.75-0.273,1.386-0.82,1.907
			s-1.238,0.782-2.074,0.782c-0.754,0-1.38-0.225-1.878-0.674S471.382,13.491,471.312,12.776z"/>
	</g>
</g>
<g id="Layer_9">
</g>
<g id="EL_Gateway" display="none">
	<circle display="inline" fill="#FFFFFF" stroke="#000000" cx="342.417" cy="45.812" r="8.583"/>
	<circle display="inline" fill="#FFFFFF" stroke="#000000" cx="383.083" cy="45.812" r="8.583"/>
	<line display="inline" fill="none" stroke="#000000" x1="374.499" y1="44.833" x2="353.333" y2="24.833"/>
</g>
<g id="AC_Power">
	<circle fill="#E6E6E6" stroke="#666666" cx="42" cy="47.812" r="23.875"/>
	<polygon fill="#FBB000" points="57,63.938 39.5,54.062 45,54.062 32,42.812 38.875,42.938 27,31.688 38,31.688 49.75,45.312 
		44.75,45.188 54,56.188 50.375,56.062 	"/>
</g>
<g id="Not_AC">
</g>
<g id="Connections">
	<rect x="68" y="43.312" fill="#4D4D4D" width="60.667" height="5"/>
	<rect x="393.25" y="39.812" fill="#009245" width="49.251" height="5"/>
	<rect x="340.432" y="55.141" fill="#009245" width="5" height="19.609"/>
	<rect x="132" y="12.01" fill="#E6E6E6" stroke="#FF0000" stroke-width="2" width="107.252" height="66.527"/>
	<g>
		<path d="M138.276,39V27.547h1.516v10.102h5.641V39H138.276z"/>
		<path d="M147.465,29.164v-1.617h1.406v1.617H147.465z M147.465,39v-8.297h1.406V39H147.465z"/>
		<path d="M151.154,39.688l1.367,0.203c0.057,0.422,0.216,0.729,0.477,0.922c0.349,0.26,0.825,0.391,1.43,0.391
			c0.651,0,1.153-0.13,1.508-0.391c0.354-0.261,0.594-0.625,0.719-1.094c0.073-0.287,0.106-0.888,0.102-1.805
			c-0.615,0.724-1.38,1.086-2.297,1.086c-1.141,0-2.023-0.411-2.648-1.234c-0.625-0.823-0.938-1.81-0.938-2.961
			c0-0.792,0.143-1.522,0.43-2.191c0.286-0.669,0.702-1.186,1.246-1.551c0.544-0.364,1.184-0.547,1.918-0.547
			c0.979,0,1.786,0.396,2.422,1.188v-1h1.297v7.172c0,1.292-0.132,2.207-0.395,2.746c-0.263,0.539-0.68,0.965-1.25,1.277
			s-1.272,0.469-2.105,0.469c-0.99,0-1.789-0.223-2.398-0.668S151.133,40.583,151.154,39.688z M152.318,34.703
			c0,1.089,0.216,1.883,0.648,2.383c0.432,0.5,0.974,0.75,1.625,0.75c0.646,0,1.188-0.249,1.625-0.746
			c0.438-0.497,0.656-1.277,0.656-2.34c0-1.016-0.226-1.781-0.676-2.297c-0.451-0.516-0.994-0.773-1.629-0.773
			c-0.625,0-1.156,0.254-1.594,0.762S152.318,33.703,152.318,34.703z"/>
		<path d="M160.711,39V27.547h1.406v4.109c0.656-0.76,1.484-1.141,2.484-1.141c0.614,0,1.148,0.121,1.602,0.363
			s0.777,0.577,0.973,1.004c0.195,0.427,0.293,1.047,0.293,1.859V39h-1.406v-5.258c0-0.703-0.152-1.215-0.457-1.535
			s-0.736-0.48-1.293-0.48c-0.417,0-0.809,0.108-1.176,0.324c-0.367,0.216-0.629,0.509-0.785,0.879
			c-0.156,0.37-0.234,0.88-0.234,1.531V39H160.711z"/>
		<path d="M173.08,37.742l0.203,1.242c-0.396,0.083-0.75,0.125-1.062,0.125c-0.511,0-0.906-0.081-1.188-0.242
			s-0.479-0.374-0.594-0.637c-0.115-0.263-0.172-0.816-0.172-1.66v-4.773h-1.031v-1.094h1.031v-2.055l1.398-0.844v2.898h1.414v1.094
			h-1.414v4.852c0,0.401,0.024,0.659,0.074,0.773c0.049,0.115,0.13,0.206,0.242,0.273c0.112,0.068,0.272,0.102,0.48,0.102
			C172.619,37.797,172.824,37.779,173.08,37.742z"/>
		<path d="M174.862,29.164v-1.617h1.406v1.617H174.862z M174.862,39v-8.297h1.406V39H174.862z"/>
		<path d="M178.809,39v-8.297h1.266v1.18c0.609-0.911,1.489-1.367,2.641-1.367c0.5,0,0.959,0.09,1.379,0.27
			c0.419,0.18,0.733,0.416,0.941,0.707c0.208,0.292,0.354,0.638,0.438,1.039c0.052,0.261,0.078,0.716,0.078,1.367V39h-1.406v-5.047
			c0-0.573-0.055-1.001-0.164-1.285c-0.109-0.284-0.304-0.51-0.582-0.68c-0.279-0.169-0.605-0.254-0.98-0.254
			c-0.599,0-1.116,0.19-1.551,0.57c-0.435,0.38-0.652,1.102-0.652,2.164V39H178.809z"/>
		<path d="M187.85,39.688l1.367,0.203c0.057,0.422,0.216,0.729,0.477,0.922c0.349,0.26,0.825,0.391,1.43,0.391
			c0.651,0,1.153-0.13,1.508-0.391c0.354-0.261,0.594-0.625,0.719-1.094c0.073-0.287,0.106-0.888,0.102-1.805
			c-0.615,0.724-1.38,1.086-2.297,1.086c-1.141,0-2.023-0.411-2.648-1.234c-0.625-0.823-0.938-1.81-0.938-2.961
			c0-0.792,0.143-1.522,0.43-2.191c0.286-0.669,0.702-1.186,1.246-1.551c0.544-0.364,1.184-0.547,1.918-0.547
			c0.979,0,1.786,0.396,2.422,1.188v-1h1.297v7.172c0,1.292-0.132,2.207-0.395,2.746c-0.263,0.539-0.68,0.965-1.25,1.277
			s-1.272,0.469-2.105,0.469c-0.99,0-1.789-0.223-2.398-0.668S187.829,40.583,187.85,39.688z M189.014,34.703
			c0,1.089,0.216,1.883,0.648,2.383c0.432,0.5,0.974,0.75,1.625,0.75c0.646,0,1.188-0.249,1.625-0.746
			c0.438-0.497,0.656-1.277,0.656-2.34c0-1.016-0.226-1.781-0.676-2.297c-0.451-0.516-0.994-0.773-1.629-0.773
			c-0.625,0-1.156,0.254-1.594,0.762S189.014,33.703,189.014,34.703z"/>
		<path d="M209.947,27.547h1.516v6.617c0,1.151-0.13,2.065-0.391,2.742c-0.261,0.677-0.73,1.228-1.41,1.652
			c-0.68,0.425-1.572,0.637-2.676,0.637c-1.073,0-1.951-0.185-2.633-0.555c-0.683-0.37-1.169-0.905-1.461-1.605
			c-0.292-0.7-0.438-1.657-0.438-2.871v-6.617h1.516v6.609c0,0.995,0.092,1.728,0.277,2.199c0.185,0.472,0.502,0.835,0.953,1.09
			c0.45,0.255,1.001,0.383,1.652,0.383c1.114,0,1.909-0.252,2.383-0.758c0.474-0.505,0.711-1.477,0.711-2.914V27.547z"/>
		<path d="M214.386,39V27.547h4.32c0.76,0,1.341,0.037,1.742,0.109c0.562,0.094,1.034,0.272,1.414,0.535
			c0.38,0.263,0.686,0.632,0.918,1.105c0.231,0.474,0.348,0.995,0.348,1.562c0,0.974-0.31,1.798-0.93,2.473
			c-0.62,0.675-1.74,1.012-3.359,1.012h-2.938V39H214.386z M215.901,32.992h2.961c0.979,0,1.674-0.182,2.086-0.547
			c0.411-0.364,0.617-0.877,0.617-1.539c0-0.479-0.121-0.889-0.363-1.23c-0.242-0.341-0.562-0.566-0.957-0.676
			c-0.255-0.067-0.727-0.102-1.414-0.102h-2.93V32.992z"/>
		<path d="M224.942,35.32l1.43-0.125c0.067,0.573,0.225,1.043,0.473,1.41c0.247,0.367,0.631,0.664,1.152,0.891
			c0.521,0.227,1.106,0.34,1.758,0.34c0.578,0,1.088-0.086,1.531-0.258c0.442-0.172,0.772-0.407,0.988-0.707
			c0.216-0.299,0.324-0.626,0.324-0.98c0-0.359-0.104-0.673-0.312-0.941c-0.208-0.268-0.552-0.493-1.031-0.676
			c-0.308-0.12-0.987-0.306-2.039-0.559c-1.052-0.252-1.789-0.491-2.211-0.715c-0.547-0.286-0.955-0.642-1.223-1.066
			c-0.269-0.424-0.402-0.899-0.402-1.426c0-0.578,0.164-1.118,0.492-1.621c0.328-0.502,0.807-0.884,1.438-1.145
			c0.63-0.26,1.331-0.391,2.102-0.391c0.849,0,1.598,0.137,2.246,0.41s1.147,0.676,1.496,1.207c0.349,0.531,0.536,1.133,0.562,1.805
			l-1.453,0.109c-0.078-0.724-0.343-1.271-0.793-1.641c-0.451-0.37-1.116-0.555-1.996-0.555c-0.917,0-1.585,0.168-2.004,0.504
			c-0.419,0.336-0.629,0.741-0.629,1.215c0,0.412,0.148,0.75,0.445,1.016c0.292,0.266,1.053,0.538,2.285,0.816
			c1.231,0.279,2.077,0.522,2.535,0.73c0.667,0.308,1.159,0.697,1.477,1.168c0.317,0.472,0.477,1.015,0.477,1.629
			c0,0.609-0.175,1.184-0.523,1.723c-0.349,0.539-0.851,0.958-1.504,1.258c-0.654,0.299-1.39,0.449-2.207,0.449
			c-1.037,0-1.905-0.151-2.605-0.453c-0.701-0.302-1.25-0.756-1.648-1.363C225.172,36.772,224.962,36.086,224.942,35.32z"/>
		<path d="M170.376,51.547h1.516v6.617c0,1.151-0.13,2.065-0.391,2.742c-0.261,0.677-0.73,1.228-1.41,1.652
			s-1.572,0.637-2.676,0.637c-1.073,0-1.951-0.185-2.633-0.555c-0.683-0.37-1.169-0.905-1.461-1.605
			c-0.292-0.7-0.438-1.657-0.438-2.871v-6.617h1.516v6.609c0,0.995,0.092,1.728,0.277,2.199c0.185,0.472,0.502,0.835,0.953,1.09
			c0.45,0.255,1.001,0.383,1.652,0.383c1.114,0,1.909-0.253,2.383-0.758c0.474-0.505,0.711-1.477,0.711-2.914V51.547z"/>
		<path d="M174.752,63V51.547h1.516v10.102h5.641V63H174.752z"/>
		<path d="M183.754,60.352l1.352-0.125c0.114,0.636,0.333,1.097,0.656,1.383c0.323,0.286,0.737,0.43,1.242,0.43
			c0.432,0,0.811-0.099,1.137-0.297c0.325-0.198,0.592-0.462,0.801-0.793c0.208-0.331,0.383-0.777,0.523-1.34
			s0.211-1.135,0.211-1.719c0-0.062-0.003-0.156-0.008-0.281c-0.281,0.448-0.666,0.812-1.152,1.09
			c-0.487,0.279-1.015,0.418-1.582,0.418c-0.948,0-1.75-0.344-2.406-1.031s-0.984-1.594-0.984-2.719
			c0-1.161,0.342-2.096,1.027-2.805c0.685-0.708,1.543-1.062,2.574-1.062c0.745,0,1.426,0.201,2.043,0.602
			c0.617,0.401,1.086,0.973,1.406,1.715s0.48,1.816,0.48,3.223c0,1.464-0.159,2.629-0.477,3.496
			c-0.318,0.867-0.791,1.527-1.418,1.98c-0.628,0.453-1.363,0.68-2.207,0.68c-0.896,0-1.628-0.249-2.195-0.746
			C184.209,61.952,183.868,61.253,183.754,60.352z M189.512,55.297c0-0.807-0.215-1.448-0.645-1.922
			c-0.43-0.474-0.947-0.711-1.551-0.711c-0.625,0-1.169,0.255-1.633,0.766c-0.464,0.511-0.695,1.172-0.695,1.984
			c0,0.729,0.22,1.322,0.66,1.777c0.44,0.456,0.983,0.684,1.629,0.684c0.651,0,1.186-0.228,1.605-0.684
			C189.302,56.736,189.512,56.104,189.512,55.297z"/>
		<path d="M200.232,61.648V63h-7.57c-0.011-0.339,0.044-0.664,0.164-0.977c0.192-0.516,0.501-1.023,0.926-1.523
			c0.424-0.5,1.038-1.078,1.84-1.734c1.245-1.021,2.086-1.829,2.523-2.426c0.438-0.596,0.656-1.16,0.656-1.691
			c0-0.557-0.199-1.027-0.598-1.41s-0.918-0.574-1.559-0.574c-0.677,0-1.219,0.203-1.625,0.609s-0.612,0.969-0.617,1.688
			l-1.445-0.148c0.099-1.078,0.471-1.899,1.117-2.465c0.646-0.565,1.513-0.848,2.602-0.848c1.099,0,1.969,0.305,2.609,0.914
			s0.961,1.365,0.961,2.266c0,0.458-0.094,0.909-0.281,1.352c-0.188,0.443-0.499,0.909-0.934,1.398
			c-0.435,0.49-1.158,1.162-2.168,2.016c-0.844,0.708-1.386,1.189-1.625,1.441c-0.24,0.253-0.438,0.507-0.594,0.762H200.232z"/>
		<path d="M206.648,63v-2.742h-4.969v-1.289l5.227-7.422h1.148v7.422h1.547v1.289h-1.547V63H206.648z M206.648,58.969v-5.164
			l-3.586,5.164H206.648z"/>
	</g>
	<rect x="241.5" y="39.867" fill="#4D4D4D" width="48.75" height="5"/>
	<polygon fill="#009245" points="184.409,98.359 184.408,80.75 179.408,80.75 179.409,103.359 317.278,103.359 317.278,98.359 	"/>
	<rect x="460.545" y="39.333" fill="#009245" width="41.705" height="5"/>
</g>
<g id="Emergency_lights" display="none">
	<rect x="453.5" y="25.446" display="inline" fill="#FFFFFF" stroke="#4D4D4D" width="110.5" height="40.342"/>
	<circle display="inline" fill="#E6E6E6" stroke="#333333" cx="509.125" cy="45.617" r="16.5"/>
	<polygon display="inline" fill="#FBB000" points="519.492,56.761 507.397,49.936 511.198,49.936 502.214,42.161 506.965,42.248 
		498.758,34.473 506.361,34.473 514.481,43.889 511.025,43.802 517.418,51.405 514.913,51.318 	"/>
	<circle display="inline" fill="#FCEE21" stroke="#4D4D4D" cx="473" cy="45.617" r="16.5"/>
</g>
<g id="Outage_Relay">
	<rect x="319.036" y="76.984" fill="#FFFFFF" stroke="#4D4D4D" width="45.667" height="41.75"/>
	<rect x="321.682" y="89.234" fill="#009245" width="9.875" height="19.75"/>
	<rect x="323.134" y="92.484" fill="#F7931E" width="6.971" height="7"/>
	<rect x="336.682" y="89.234" fill="#009245" width="9.875" height="19.75"/>
	<rect x="338.134" y="92.484" fill="#F7931E" width="6.971" height="7"/>
	<rect x="351.828" y="89.234" fill="#009245" width="9.875" height="19.75"/>
	<rect x="353.28" y="92.484" fill="#F7931E" width="6.971" height="7"/>
	<rect x="326.266" y="111.484" fill="#4D4D4D" width="13.901" height="5"/>
	<rect x="343.766" y="111.484" fill="#999999" width="13.901" height="5"/>
	<rect x="309.298" y="34.686" width="5.438" height="5"/>
</g>
<g id="Engine">
	<rect id="Body_2_" x="292.485" y="27.039" fill="#333333" width="98.891" height="26.375"/>
	<rect x="295.485" y="29.372" fill="#666666" width="92.977" height="21.178"/>
	<rect x="307.485" y="32.741" fill="#8CC63F" width="69.594" height="15.395"/>
	<polygon fill="#4D4D4D" points="314.806,39.79 309.229,39.79 309.229,36.102 310.714,34.79 313.298,34.79 314.806,36.164 	"/>
	<rect x="298.485" y="32.741" fill="#C69C6D" width="5.25" height="15.395"/>
	<rect x="380.876" y="32.741" fill="#C69C6D" width="5.25" height="15.395"/>
	<polygon fill="#4D4D4D" points="322.236,39.79 316.659,39.79 316.659,36.102 318.145,34.79 320.728,34.79 322.236,36.164 	"/>
	<polygon fill="#4D4D4D" points="329.667,39.79 324.091,39.79 324.091,36.102 325.575,34.79 328.159,34.79 329.667,36.164 	"/>
	<polygon fill="#4D4D4D" points="337.099,39.79 331.521,39.79 331.521,36.102 333.007,34.79 335.59,34.79 337.099,36.164 	"/>
	<polygon fill="#4D4D4D" points="344.528,39.79 338.952,39.79 338.952,36.102 340.437,34.79 343.021,34.79 344.528,36.164 	"/>
	<polygon fill="#4D4D4D" points="351.96,39.79 346.383,39.79 346.383,36.102 347.868,34.79 350.452,34.79 351.96,36.164 	"/>
	<polygon fill="#4D4D4D" points="359.391,39.79 353.813,39.79 353.813,36.102 355.299,34.79 357.882,34.79 359.391,36.164 	"/>
	<polygon fill="#4D4D4D" points="366.821,39.79 361.245,39.79 361.245,36.102 362.729,34.79 365.313,34.79 366.821,36.164 	"/>
	<polygon fill="#4D4D4D" points="374.253,39.79 368.675,39.79 368.675,36.102 370.161,34.79 372.744,34.79 374.253,36.164 	"/>
	<polygon fill="#4D4D4D" points="314.806,40.977 309.229,40.977 309.229,44.665 310.714,45.977 313.298,45.977 314.806,44.603 	"/>
	<polygon fill="#4D4D4D" points="322.236,40.977 316.659,40.977 316.659,44.665 318.145,45.977 320.728,45.977 322.236,44.603 	"/>
	<polygon fill="#4D4D4D" points="329.667,40.977 324.091,40.977 324.091,44.665 325.575,45.977 328.159,45.977 329.667,44.603 	"/>
	<polygon fill="#4D4D4D" points="337.099,40.977 331.521,40.977 331.521,44.665 333.007,45.977 335.59,45.977 337.099,44.603 	"/>
	<polygon fill="#4D4D4D" points="344.528,40.977 338.952,40.977 338.952,44.665 340.437,45.977 343.021,45.977 344.528,44.603 	"/>
	<polygon fill="#4D4D4D" points="351.96,40.977 346.383,40.977 346.383,44.665 347.868,45.977 350.452,45.977 351.96,44.603 	"/>
	<polygon fill="#4D4D4D" points="359.391,40.977 353.813,40.977 353.813,44.665 355.299,45.977 357.882,45.977 359.391,44.603 	"/>
	<polygon fill="#4D4D4D" points="366.821,40.977 361.245,40.977 361.245,44.665 362.729,45.977 365.313,45.977 366.821,44.603 	"/>
	<polygon fill="#4D4D4D" points="374.253,40.977 368.675,40.977 368.675,44.665 370.161,45.977 372.744,45.977 374.253,44.603 	"/>
</g>
<g id="Sensor">
	<path fill="#CCCCCC" d="M457.334,56.167H445.5v-30.75c0-1.611,1.306-2.917,2.917-2.917h6c1.611,0,2.917,1.306,2.917,2.917V56.167z"
		/>
	<path fill="#CCCCCC" d="M463.834,61.334h-24.833v-2.25c0-1.611,1.306-2.917,2.917-2.917h18.999c1.611,0,2.917,1.306,2.917,2.917
		V61.334z"/>
	<polygon fill="#4D4D4D" points="454.206,32.6 448.628,32.6 448.628,28.911 450.114,27.6 452.697,27.6 454.206,28.974 	"/>
	<polygon fill="#4D4D4D" points="454.206,41.833 448.628,41.833 448.628,38.145 450.114,36.833 452.697,36.833 454.206,38.207 	"/>
</g>
<g id="Fixture">
	<circle fill="#FCEE21" stroke="#4D4D4D" cx="530.496" cy="47.34" r="8.121"/>
	<circle fill="#FCEE21" stroke="#4D4D4D" cx="553.496" cy="47.34" r="8.121"/>
	<rect x="520.041" y="27.688" width="42.918" height="7.822"/>
	<polygon fill="#999999" points="579.5,47.616 503.5,47.616 510.653,34.964 572.57,34.964 	"/>
	<g>
		<path d="M522.164,15.101v-8.59h5.795v1.014h-4.658v2.66h4.031v1.014h-4.031v3.902H522.164z"/>
		<path d="M529.606,7.724V6.511h1.055v1.213H529.606z M529.606,15.101V8.878h1.055v6.223H529.606z"/>
		<path d="M531.863,15.101l2.273-3.234l-2.104-2.988h1.318l0.955,1.459c0.18,0.277,0.324,0.51,0.434,0.697
			c0.172-0.258,0.33-0.486,0.475-0.686l1.049-1.471h1.26l-2.15,2.93l2.314,3.293h-1.295l-1.277-1.934l-0.34-0.521l-1.635,2.455
			H531.863z"/>
		<path d="M541.17,14.157l0.152,0.932c-0.297,0.062-0.562,0.094-0.797,0.094c-0.383,0-0.68-0.061-0.891-0.182
			s-0.359-0.28-0.445-0.478s-0.129-0.612-0.129-1.245v-3.58h-0.773v-0.82h0.773V7.337l1.049-0.633v2.174h1.061v0.82h-1.061v3.639
			c0,0.301,0.019,0.494,0.056,0.58s0.098,0.154,0.182,0.205s0.204,0.076,0.36,0.076C540.824,14.198,540.979,14.185,541.17,14.157z"
			/>
		<path d="M546.579,15.101v-0.914c-0.484,0.703-1.143,1.055-1.975,1.055c-0.367,0-0.71-0.07-1.028-0.211s-0.555-0.317-0.709-0.53
			s-0.263-0.474-0.325-0.782c-0.043-0.207-0.064-0.535-0.064-0.984V8.878h1.055v3.451c0,0.551,0.021,0.922,0.064,1.113
			c0.066,0.277,0.207,0.495,0.422,0.653s0.48,0.237,0.797,0.237s0.613-0.081,0.891-0.243s0.474-0.383,0.589-0.662
			s0.173-0.685,0.173-1.216V8.878h1.055v6.223H546.579z"/>
		<path d="M549.463,15.101V8.878h0.949v0.943c0.242-0.441,0.466-0.732,0.671-0.873s0.431-0.211,0.677-0.211
			c0.355,0,0.717,0.113,1.084,0.34l-0.363,0.979c-0.258-0.152-0.516-0.229-0.773-0.229c-0.23,0-0.438,0.069-0.621,0.208
			s-0.314,0.331-0.393,0.577c-0.117,0.375-0.176,0.785-0.176,1.23v3.258H549.463z"/>
		<path d="M558.03,13.097l1.09,0.135c-0.172,0.637-0.49,1.131-0.955,1.482s-1.059,0.527-1.781,0.527c-0.91,0-1.632-0.28-2.165-0.841
			s-0.8-1.347-0.8-2.358c0-1.047,0.27-1.859,0.809-2.438s1.238-0.867,2.098-0.867c0.832,0,1.512,0.283,2.039,0.85
			s0.791,1.363,0.791,2.391c0,0.062-0.002,0.156-0.006,0.281h-4.641c0.039,0.684,0.232,1.207,0.58,1.57s0.781,0.545,1.301,0.545
			c0.387,0,0.717-0.102,0.99-0.305S557.87,13.542,558.03,13.097z M554.567,11.392h3.475c-0.047-0.523-0.18-0.916-0.398-1.178
			c-0.336-0.406-0.771-0.609-1.307-0.609c-0.484,0-0.892,0.162-1.222,0.486S554.603,10.849,554.567,11.392z"/>
	</g>
</g>
</svg>
