<?xml version="1.0" encoding="utf-8"?>
<!-- Generator: Adobe Illustrator 15.0.2, SVG Export Plug-In . SVG Version: 6.00 Build 0)  -->
<!DOCTYPE svg PUBLIC "-//W3C//DTD SVG 1.1//EN" "http://www.w3.org/Graphics/SVG/1.1/DTD/svg11.dtd">
<svg version="1.1" id="Layer_1" xmlns="http://www.w3.org/2000/svg" xmlns:xlink="http://www.w3.org/1999/xlink" x="0px" y="0px"
	 width="366px" height="87px" viewBox="0 0 366 87" enable-background="new 0 0 366 87" xml:space="preserve">
<g>
	<defs>
		<rect id="SVGID_1_" width="366" height="87"/>
	</defs>
	<clipPath id="SVGID_2_">
		<use xlink:href="#SVGID_1_"  overflow="visible"/>
	</clipPath>
	<path clip-path="url(#SVGID_2_)" fill="#00AEEF" d="M13.449,18.676c1.739,1.238,2.141,3.648,0.903,5.386
		c-1.243,1.735-3.657,2.141-5.391,0.903c-1.738-1.246-2.141-3.656-0.898-5.395C9.301,17.836,11.715,17.43,13.449,18.676"/>
	<path clip-path="url(#SVGID_2_)" fill="#00AEEF" d="M23.719,26.031c1.734,1.239,2.136,3.653,0.894,5.391
		c-1.238,1.738-3.652,2.137-5.386,0.898c-1.739-1.242-2.145-3.656-0.899-5.386C19.566,25.195,21.98,24.793,23.719,26.031"/>
	<path clip-path="url(#SVGID_2_)" fill="#00AEEF" d="M33.98,33.387c1.739,1.246,2.141,3.652,0.899,5.394
		c-1.238,1.739-3.652,2.141-5.387,0.899c-1.738-1.239-2.144-3.656-0.898-5.391C29.832,32.555,32.246,32.149,33.98,33.387"/>
	<path clip-path="url(#SVGID_2_)" fill="#00AEEF" d="M74.086,71.231c-1.738-1.247-2.141-3.653-0.902-5.392
		c1.246-1.738,3.656-2.141,5.394-0.901c1.738,1.233,2.141,3.651,0.895,5.39C78.238,72.063,75.82,72.469,74.086,71.231"/>
	<path clip-path="url(#SVGID_2_)" fill="#00AEEF" d="M63.863,63.898c-1.734-1.238-2.136-3.652-0.898-5.391
		c1.238-1.733,3.652-2.141,5.39-0.901c1.735,1.245,2.141,3.659,0.899,5.39C68.016,64.738,65.605,65.141,63.863,63.898"/>
</g>
<g>
	<defs>
		<rect id="SVGID_3_" y="0.031" width="365.916" height="86.969"/>
	</defs>
	<clipPath id="SVGID_4_">
		<use xlink:href="#SVGID_3_"  overflow="visible"/>
	</clipPath>
	<path clip-path="url(#SVGID_4_)" fill="#00AEEF" d="M53.644,56.574c-1.738-1.242-2.144-3.656-0.898-5.395
		c1.234-1.738,3.648-2.137,5.383-0.898c1.738,1.243,2.144,3.652,0.902,5.391C57.793,57.41,55.379,57.809,53.644,56.574"/>
	<path clip-path="url(#SVGID_4_)" fill="#00AEEF" d="M27.93,81.957c0.652-2.031,2.828-3.148,4.859-2.5
		c2.031,0.652,3.152,2.828,2.496,4.856c-0.648,2.038-2.824,3.155-4.855,2.5C28.395,86.16,27.277,83.988,27.93,81.957"/>
</g>
<g>
	<defs>
		<rect id="SVGID_5_" width="366" height="87"/>
	</defs>
	<clipPath id="SVGID_6_">
		<use xlink:href="#SVGID_5_"  overflow="visible"/>
	</clipPath>
	<path clip-path="url(#SVGID_6_)" fill="#00AEEF" d="M31.805,69.937c0.656-2.03,2.828-3.147,4.859-2.498
		c2.035,0.651,3.152,2.827,2.504,4.854c-0.652,2.035-2.828,3.148-4.859,2.504C32.273,74.145,31.156,71.961,31.805,69.937"/>
	<path clip-path="url(#SVGID_6_)" fill="#00AEEF" d="M35.684,57.918c0.652-2.031,2.828-3.152,4.863-2.504
		c2.027,0.656,3.144,2.828,2.496,4.863c-0.649,2.031-2.824,3.148-4.856,2.5C36.152,62.129,35.031,59.945,35.684,57.918"/>
	<path clip-path="url(#SVGID_6_)" fill="#00AEEF" d="M59.492,8.18c-0.652,2.039-2.828,3.156-4.859,2.508
		c-2.031-0.653-3.149-2.829-2.5-4.864c0.652-2.031,2.828-3.148,4.855-2.5C59.019,3.981,60.144,6.152,59.492,8.18"/>
	<path clip-path="url(#SVGID_6_)" fill="#00AEEF" d="M55.629,20.152c-0.652,2.035-2.828,3.153-4.856,2.5
		c-2.035-0.648-3.148-2.824-2.5-4.859c0.649-2.035,2.825-3.152,4.856-2.496C55.16,15.945,56.285,18.121,55.629,20.152"/>
	<path clip-path="url(#SVGID_6_)" fill="#00AEEF" d="M51.769,32.125c-0.656,2.031-2.828,3.152-4.859,2.5
		c-2.035-0.652-3.152-2.828-2.504-4.855c0.653-2.036,2.828-3.157,4.86-2.504C51.297,27.918,52.418,30.094,51.769,32.125"/>
	<path clip-path="url(#SVGID_6_)" fill="#00AEEF" d="M83.734,49.047c-2.136-0.004-3.855-1.742-3.847-3.879
		c0.007-2.133,1.746-3.855,3.879-3.848c2.128,0.012,3.855,1.746,3.847,3.879C87.609,47.336,85.871,49.059,83.734,49.047"/>
	<path clip-path="url(#SVGID_6_)" fill="#00AEEF" d="M71.109,48.977c-2.136-0.004-3.859-1.742-3.851-3.871
		c0.008-2.136,1.742-3.863,3.875-3.852c2.136,0.004,3.863,1.742,3.851,3.875C74.977,47.266,73.238,48.988,71.109,48.977"/>
</g>
<g>
	<defs>
		<rect id="SVGID_7_" y="0.031" width="365.916" height="86.969"/>
	</defs>
	<clipPath id="SVGID_8_">
		<use xlink:href="#SVGID_7_"  overflow="visible"/>
	</clipPath>
	<path clip-path="url(#SVGID_8_)" fill="#00AEEF" d="M58.477,48.91c-2.133-0.008-3.864-1.742-3.848-3.875
		c0.004-2.136,1.742-3.859,3.875-3.851c2.133,0.007,3.859,1.742,3.848,3.875C62.344,47.195,60.613,48.914,58.477,48.91"/>
	<path clip-path="url(#SVGID_8_)" fill="#00AEEF" d="M3.879,41.223c2.137,0.011,3.855,1.746,3.848,3.882
		c-0.008,2.129-1.743,3.855-3.879,3.844C1.715,48.941-0.008,47.207,0,45.074C0.004,42.941,1.742,41.219,3.879,41.223"/>
</g>
<g>
	<defs>
		<rect id="SVGID_9_" width="366" height="87"/>
	</defs>
	<clipPath id="SVGID_10_">
		<use xlink:href="#SVGID_9_"  overflow="visible"/>
	</clipPath>
	<path clip-path="url(#SVGID_10_)" fill="#00AEEF" d="M16.457,41.293c2.133,0.008,3.855,1.746,3.848,3.883
		c-0.008,2.129-1.742,3.855-3.879,3.848c-2.129-0.012-3.856-1.746-3.848-3.874C12.582,43.012,14.32,41.289,16.457,41.293"/>
	<path clip-path="url(#SVGID_10_)" fill="#00AEEF" d="M29.031,41.363c2.137,0.008,3.86,1.743,3.852,3.883
		c-0.008,2.129-1.742,3.855-3.879,3.848c-2.133-0.012-3.86-1.746-3.848-3.879C25.16,43.078,26.902,41.355,29.031,41.363"/>
	<path clip-path="url(#SVGID_10_)" fill="#00AEEF" d="M34.297,6.02c0.699,2.019-0.371,4.218-2.387,4.917
		c-2.015,0.7-4.219-0.371-4.914-2.39c-0.695-2.016,0.371-4.219,2.387-4.914C31.398,2.938,33.598,4.004,34.297,6.02"/>
	<path clip-path="url(#SVGID_10_)" fill="#00AEEF" d="M38.402,17.965c0.7,2.019-0.371,4.222-2.386,4.918
		c-2.016,0.699-4.219-0.371-4.918-2.391c-0.696-2.019,0.375-4.218,2.39-4.914C35.508,14.879,37.707,15.949,38.402,17.965"/>
</g>
<g>
	<defs>
		<rect id="SVGID_11_" y="0.031" width="365.916" height="86.969"/>
	</defs>
	<clipPath id="SVGID_12_">
		<use xlink:href="#SVGID_11_"  overflow="visible"/>
	</clipPath>
	<path clip-path="url(#SVGID_12_)" fill="#00AEEF" d="M42.508,29.914c0.699,2.016-0.375,4.215-2.387,4.914
		c-2.016,0.696-4.223-0.375-4.918-2.39c-0.695-2.02,0.375-4.219,2.391-4.914C39.609,26.824,41.809,27.895,42.508,29.914"/>
	<path clip-path="url(#SVGID_12_)" fill="#00AEEF" d="M53.281,83.988c-0.695-2.012,0.371-4.219,2.387-4.914s4.215,0.375,4.914,2.391
		c0.703,2.012-0.375,4.215-2.387,4.914C56.18,87.074,53.977,86.004,53.281,83.988"/>
</g>
<g>
	<defs>
		<rect id="SVGID_13_" width="366" height="87"/>
	</defs>
	<clipPath id="SVGID_14_">
		<use xlink:href="#SVGID_13_"  overflow="visible"/>
	</clipPath>
	<path clip-path="url(#SVGID_14_)" fill="#00AEEF" d="M49.191,72.09c-0.695-2.012,0.375-4.219,2.391-4.914
		c2.016-0.694,4.215,0.379,4.918,2.391c0.691,2.016-0.379,4.219-2.395,4.918C52.086,75.18,49.891,74.106,49.191,72.09"/>
	<path clip-path="url(#SVGID_14_)" fill="#00AEEF" d="M45.102,60.191c-0.696-2.012,0.375-4.21,2.39-4.91
		c2.02-0.695,4.219,0.371,4.914,2.391c0.699,2.017-0.371,4.219-2.387,4.914C48.004,63.285,45.797,62.215,45.102,60.191"/>
	<path clip-path="url(#SVGID_14_)" fill="#00AEEF" d="M8.957,65.184c1.738-1.234,4.152-0.82,5.387,0.923
		c1.23,1.737,0.82,4.151-0.922,5.386c-1.742,1.23-4.152,0.821-5.387-0.918C6.805,68.828,7.215,66.422,8.957,65.184"/>
	<path clip-path="url(#SVGID_14_)" fill="#00AEEF" d="M19.277,57.902c1.739-1.234,4.153-0.816,5.383,0.918
		c1.238,1.746,0.82,4.152-0.918,5.387c-1.738,1.234-4.152,0.828-5.387-0.922C17.121,61.547,17.535,59.137,19.277,57.902"/>
	<path clip-path="url(#SVGID_14_)" fill="#00AEEF" d="M29.598,50.629c1.738-1.238,4.152-0.828,5.386,0.91
		c1.231,1.742,0.817,4.156-0.918,5.391c-1.746,1.23-4.156,0.824-5.386-0.918C27.445,54.266,27.852,51.859,29.598,50.629"/>
	<path clip-path="url(#SVGID_14_)" fill="#00AEEF" d="M78.5,25.156c-1.738,1.231-4.152,0.821-5.387-0.922
		c-1.234-1.742-0.824-4.152,0.914-5.386c1.742-1.235,4.157-0.825,5.391,0.918C80.648,21.5,80.238,23.922,78.5,25.156"/>
	<path clip-path="url(#SVGID_14_)" fill="#00AEEF" d="M68.223,32.402c-1.746,1.235-4.157,0.825-5.387-0.918
		c-1.234-1.738-0.824-4.152,0.918-5.386c1.738-1.231,4.152-0.821,5.387,0.922C70.375,28.762,69.961,31.172,68.223,32.402"/>
	<path clip-path="url(#SVGID_14_)" fill="#00AEEF" d="M57.945,39.656c-1.742,1.235-4.156,0.825-5.386-0.918
		c-1.239-1.742-0.821-4.152,0.918-5.39c1.742-1.235,4.152-0.817,5.386,0.922C60.098,36.008,59.684,38.426,57.945,39.656"/>
	<path clip-path="url(#SVGID_14_)" fill="#00AEEF" d="M40.906,48.969c-2.254-1.609-2.777-4.75-1.164-7.004
		c1.61-2.262,4.746-2.785,7.008-1.172c2.254,1.613,2.777,4.746,1.168,7.008C46.301,50.055,43.168,50.582,40.906,48.969"/>
	<path clip-path="url(#SVGID_14_)" d="M106.49,33.566h0.211c1.548-3.868,4.784-6.33,9.004-6.33c1.829,0,3.658,0.633,5.205,1.618
		l-2.884,5.768c-1.125-0.985-2.391-1.337-3.869-1.337c-6.823,0-7.667,6.33-7.667,11.676V61.14h-6.33V28.221h6.33V33.566"/>
	<path clip-path="url(#SVGID_14_)" d="M126.186,45.735c0.071,5.627,3.869,10.902,9.918,10.902c4.854,0,7.456-2.462,9.848-6.401
		l5.346,3.024c-3.095,5.699-8.863,9.004-15.264,9.004c-10.059,0-16.179-7.596-16.179-17.304c0-10.128,5.417-17.725,16.038-17.725
		c10.481,0,15.405,7.738,15.405,17.514v0.985H126.186 M144.967,40.952c-0.774-4.924-4.009-8.229-9.074-8.229
		c-4.923,0-8.581,3.516-9.355,8.229H144.967z"/>
	<path clip-path="url(#SVGID_14_)" d="M181.262,58.005h-0.14c-2.369,2.372-6.542,4.26-11.185,4.26
		c-10.129,0-15.756-8.37-15.756-17.796c0-9.004,5.979-17.233,15.475-17.233c4.924,0,9.234,2.087,11.466,4.471l0.14,1V0.085h6.331
		V61.14h-6.331V58.005 M181.614,44.68c0-6.401-3.869-11.818-10.692-11.818c-6.542,0-10.41,5.699-10.41,11.818
		c0,6.19,3.728,11.958,10.41,11.958C177.815,56.638,181.614,51.151,181.614,44.68z"/>
	<path clip-path="url(#SVGID_14_)" d="M343.622,58.005h-0.141c-2.368,2.372-6.541,4.26-11.185,4.26
		c-10.129,0-15.756-8.37-15.756-17.796c0-9.004,5.98-17.233,15.475-17.233c4.925,0,9.233,2.087,11.466,4.471l0.141,1V0.085h6.33
		V61.14h-6.33V58.005 M343.974,44.68c0-6.401-3.87-11.818-10.691-11.818c-6.542,0-10.41,5.699-10.41,11.818
		c0,6.19,3.728,11.958,10.41,11.958C340.175,56.638,343.974,51.151,343.974,44.68z"/>
	<path clip-path="url(#SVGID_14_)" d="M275.482,44.75c0,9.919-7.737,17.515-17.585,17.515s-17.584-7.596-17.584-17.515
		c0-9.917,7.736-17.514,17.584-17.514S275.482,34.833,275.482,44.75 M246.644,44.75c0,6.191,4.994,11.466,11.254,11.466
		c6.261,0,11.255-5.274,11.255-11.466c0-6.26-4.994-11.465-11.255-11.465C251.638,33.285,246.644,38.49,246.644,44.75z"/>
	<path clip-path="url(#SVGID_14_)" d="M313.466,44.75c0,9.919-7.737,17.515-17.585,17.515s-17.585-7.596-17.585-17.515
		c0-9.917,7.737-17.514,17.585-17.514S313.466,34.833,313.466,44.75 M284.626,44.75c0,6.191,4.995,11.466,11.255,11.466
		c6.261,0,11.255-5.274,11.255-11.466c0-6.26-4.994-11.465-11.255-11.465C289.621,33.285,284.626,38.49,284.626,44.75z"/>
	<path clip-path="url(#SVGID_14_)" d="M354.561,5.694c0-3.156,2.508-5.663,5.678-5.663c3.171,0,5.678,2.507,5.678,5.663
		c0,3.157-2.507,5.663-5.678,5.663C357.068,11.357,354.561,8.851,354.561,5.694 M355.482,5.694c0,2.666,2.162,4.742,4.756,4.742
		s4.756-2.076,4.756-4.742c0-2.68-2.162-4.741-4.756-4.741S355.482,3.014,355.482,5.694z M362.832,8.922h-1.052l-1.628-2.94h-1.182
		v2.94h-0.923V2.553h2.681c1.152,0,2.19,0.345,2.19,1.685c0,1.254-0.851,1.715-1.701,1.744L362.832,8.922z M358.971,3.475v1.586
		h0.979c0.864,0,2.047,0.143,2.047-0.721c0-0.807-0.678-0.865-1.441-0.865H358.971z"/>
	<polyline clip-path="url(#SVGID_14_)" points="233.183,28.553 226.4,53.939 218.189,28.553 213.319,28.553 205.058,53.939 
		198.274,28.553 191.239,28.553 200.664,61.14 208.12,61.14 215.764,38.711 223.359,61.14 230.794,61.14 240.219,28.553 
		233.183,28.553 	"/>
</g>
</svg>
