<?xml version="1.0" encoding="utf-8"?>
<!-- Generator: Adobe Illustrator 15.0.2, SVG Export Plug-In . SVG Version: 6.00 Build 0)  -->
<!DOCTYPE svg PUBLIC "-//W3C//DTD SVG 1.1//EN" "http://www.w3.org/Graphics/SVG/1.1/DTD/svg11.dtd">
<svg version="1.1" id="Layer_2" xmlns="http://www.w3.org/2000/svg" xmlns:xlink="http://www.w3.org/1999/xlink" x="0px" y="0px"
	 width="93.5px" height="87px" viewBox="0 0 93.5 87" enable-background="new 0 0 93.5 87" xml:space="preserve">
<path d="M42.939,46.828c-2.254-1.609-2.777-4.75-1.164-7.004c1.61-2.262,4.746-2.785,7.008-1.172
	c2.254,1.613,2.777,4.746,1.168,7.008C48.334,47.914,45.201,48.441,42.939,46.828"/>
<path d="M59.978,37.516c-1.742,1.235-4.156,0.825-5.386-0.918c-1.239-1.742-0.821-4.152,0.918-5.39
	c1.742-1.235,4.152-0.817,5.386,0.922C62.131,33.867,61.717,36.285,59.978,37.516"/>
<path d="M70.256,30.261c-1.746,1.235-4.157,0.825-5.387-0.918c-1.234-1.738-0.824-4.152,0.918-5.386
	c1.738-1.231,4.152-0.821,5.387,0.922C72.408,26.622,71.994,29.031,70.256,30.261"/>
<path d="M80.533,23.016c-1.738,1.231-4.152,0.821-5.387-0.922c-1.234-1.742-0.824-4.152,0.914-5.386
	c1.742-1.235,4.157-0.825,5.391,0.918C82.681,19.359,82.271,21.781,80.533,23.016"/>
<path d="M31.631,48.488c1.738-1.238,4.152-0.828,5.386,0.91c1.231,1.742,0.817,4.156-0.918,5.391
	c-1.746,1.23-4.156,0.824-5.386-0.918C29.478,52.125,29.885,49.719,31.631,48.488"/>
<path d="M21.31,55.762c1.739-1.234,4.153-0.816,5.383,0.918c1.238,1.746,0.82,4.152-0.918,5.387
	c-1.738,1.234-4.152,0.828-5.387-0.922C19.154,59.406,19.568,56.996,21.31,55.762"/>
<path d="M10.99,63.043c1.738-1.233,4.152-0.819,5.387,0.924c1.23,1.736,0.82,4.15-0.922,5.386c-1.742,1.229-4.152,0.821-5.387-0.918
	C8.838,66.688,9.248,64.281,10.99,63.043"/>
<path d="M47.135,58.051c-0.696-2.012,0.375-4.211,2.39-4.91c2.02-0.695,4.219,0.371,4.914,2.391
	c0.699,2.018-0.371,4.219-2.387,4.914C50.037,61.145,47.83,60.074,47.135,58.051"/>
<path d="M51.224,69.949c-0.695-2.012,0.375-4.219,2.391-4.914c2.016-0.693,4.215,0.379,4.918,2.391
	c0.691,2.017-0.379,4.22-2.395,4.918C54.119,73.039,51.924,71.965,51.224,69.949"/>
<path d="M55.314,81.848c-0.695-2.012,0.371-4.219,2.387-4.914s4.215,0.375,4.914,2.391c0.703,2.012-0.375,4.215-2.387,4.914
	C58.213,84.934,56.01,83.863,55.314,81.848"/>
<path d="M44.541,27.773c0.699,2.016-0.375,4.215-2.387,4.914c-2.016,0.696-4.223-0.375-4.918-2.39
	c-0.695-2.02,0.375-4.219,2.391-4.914C41.642,24.684,43.842,25.754,44.541,27.773"/>
<path d="M40.435,15.824c0.7,2.019-0.371,4.222-2.386,4.918c-2.016,0.699-4.219-0.371-4.918-2.391
	c-0.696-2.019,0.375-4.218,2.39-4.914C37.541,12.738,39.74,13.809,40.435,15.824"/>
<path d="M36.33,3.879c0.699,2.019-0.371,4.218-2.387,4.917c-2.015,0.7-4.219-0.371-4.914-2.39c-0.695-2.016,0.371-4.219,2.387-4.914
	C33.431,0.797,35.631,1.863,36.33,3.879"/>
<path d="M31.064,39.222c2.137,0.008,3.86,1.743,3.852,3.883c-0.008,2.129-1.742,3.855-3.879,3.848
	c-2.133-0.012-3.86-1.746-3.848-3.879C27.193,40.938,28.935,39.214,31.064,39.222"/>
<path d="M18.49,39.152c2.133,0.008,3.855,1.746,3.848,3.883c-0.008,2.129-1.742,3.855-3.879,3.848
	c-2.129-0.012-3.856-1.746-3.848-3.873C14.615,40.872,16.353,39.148,18.49,39.152"/>
<path d="M5.912,39.083c2.137,0.011,3.855,1.746,3.848,3.882c-0.008,2.129-1.743,3.854-3.879,3.844
	c-2.133-0.008-3.856-1.742-3.848-3.875C2.037,40.8,3.775,39.078,5.912,39.083"/>
<path d="M60.51,46.77c-2.133-0.008-3.864-1.742-3.848-3.875c0.004-2.136,1.742-3.859,3.875-3.851
	c2.133,0.007,3.859,1.742,3.848,3.875C64.377,45.055,62.646,46.773,60.51,46.77"/>
<path d="M73.142,46.836c-2.136-0.004-3.859-1.742-3.851-3.871c0.008-2.136,1.742-3.862,3.875-3.852
	c2.136,0.004,3.863,1.742,3.851,3.875C77.01,45.125,75.271,46.848,73.142,46.836"/>
<path d="M85.767,46.906c-2.136-0.004-3.855-1.742-3.847-3.879c0.007-2.133,1.746-3.855,3.879-3.848
	c2.128,0.012,3.855,1.746,3.847,3.879C89.642,45.195,87.904,46.918,85.767,46.906"/>
<path d="M53.802,29.984c-0.656,2.031-2.828,3.152-4.859,2.5c-2.035-0.652-3.152-2.828-2.504-4.855
	c0.653-2.036,2.828-3.157,4.86-2.504C53.33,25.777,54.451,27.953,53.802,29.984"/>
<path d="M57.662,18.011c-0.652,2.035-2.828,3.153-4.856,2.5c-2.035-0.648-3.148-2.824-2.5-4.859
	c0.649-2.035,2.825-3.152,4.856-2.496C57.193,13.804,58.318,15.98,57.662,18.011"/>
<path d="M61.525,6.04c-0.652,2.039-2.828,3.156-4.859,2.508c-2.031-0.653-3.149-2.829-2.5-4.864c0.652-2.031,2.828-3.148,4.855-2.5
	C61.052,1.84,62.177,4.011,61.525,6.04"/>
<path d="M37.717,55.777c0.652-2.031,2.828-3.152,4.863-2.504c2.027,0.656,3.144,2.828,2.496,4.863
	c-0.649,2.031-2.824,3.147-4.856,2.5C38.185,59.988,37.064,57.805,37.717,55.777"/>
<path d="M33.838,67.797c0.656-2.03,2.828-3.147,4.859-2.498c2.035,0.65,3.152,2.826,2.504,4.854
	c-0.652,2.035-2.828,3.148-4.859,2.504C34.306,72.004,33.189,69.82,33.838,67.797"/>
<path d="M29.963,79.816c0.652-2.031,2.828-3.148,4.859-2.5c2.031,0.652,3.152,2.828,2.496,4.855c-0.648,2.039-2.824,3.155-4.855,2.5
	C30.428,84.02,29.31,81.848,29.963,79.816"/>
<path d="M55.677,54.434c-1.738-1.242-2.144-3.656-0.898-5.395c1.234-1.738,3.648-2.138,5.383-0.898
	c1.738,1.242,2.144,3.652,0.902,5.391C59.826,55.27,57.412,55.668,55.677,54.434"/>
<path d="M65.896,61.758c-1.734-1.238-2.136-3.652-0.898-5.392c1.238-1.733,3.652-2.141,5.39-0.901
	c1.735,1.246,2.141,3.66,0.899,5.391C70.049,62.598,67.638,63,65.896,61.758"/>
<path d="M76.119,69.09c-1.738-1.246-2.141-3.652-0.902-5.392c1.246-1.737,3.656-2.141,5.394-0.901
	c1.738,1.233,2.141,3.651,0.895,5.391C80.271,69.922,77.853,70.328,76.119,69.09"/>
<path d="M36.013,31.247c1.739,1.246,2.141,3.652,0.899,5.394c-1.238,1.739-3.652,2.141-5.387,0.899
	c-1.738-1.239-2.144-3.656-0.898-5.391C31.865,30.415,34.279,30.008,36.013,31.247"/>
<path d="M25.752,23.891c1.734,1.239,2.136,3.653,0.894,5.391c-1.238,1.738-3.652,2.137-5.386,0.898
	c-1.739-1.242-2.145-3.656-0.899-5.386C21.599,23.054,24.013,22.652,25.752,23.891"/>
<path d="M15.482,16.535c1.739,1.238,2.141,3.648,0.903,5.386c-1.243,1.735-3.657,2.141-5.391,0.903
	c-1.738-1.246-2.141-3.656-0.898-5.395C11.334,15.695,13.748,15.29,15.482,16.535"/>
<path d="M81.144,79.196c0-3.155,2.508-5.663,5.679-5.663s5.678,2.508,5.678,5.663c0,3.157-2.507,5.663-5.678,5.663
	S81.144,82.354,81.144,79.196 M82.065,79.196c0,2.666,2.162,4.742,4.756,4.742s4.756-2.076,4.756-4.742
	c0-2.68-2.162-4.741-4.756-4.741S82.065,76.517,82.065,79.196z M89.415,82.424h-1.053l-1.627-2.939h-1.182v2.939H84.63v-6.369h2.682
	c1.151,0,2.189,0.346,2.189,1.686c0,1.254-0.852,1.715-1.701,1.744L89.415,82.424z M85.554,76.978v1.586h0.979
	c0.864,0,2.047,0.144,2.047-0.722c0-0.807-0.679-0.864-1.44-0.864H85.554z"/>
</svg>
